<?xml version="1.0" encoding="utf-8"?>
<!-- Generator: Adobe Illustrator 16.0.0, SVG Export Plug-In . SVG Version: 6.00 Build 0)  -->
<!DOCTYPE svg PUBLIC "-//W3C//DTD SVG 1.1//EN" "http://www.w3.org/Graphics/SVG/1.1/DTD/svg11.dtd">
<svg version="1.1" id="Layer_1" xmlns="http://www.w3.org/2000/svg" xmlns:xlink="http://www.w3.org/1999/xlink" x="0px" y="0px"
	 width="1017.206px" height="419.589px" viewBox="0 0 1017.206 419.589" enable-background="new 0 0 1017.206 419.589"
	 xml:space="preserve">
<g>
	<path d="M204.792,414.951V296.163h-11.314v-2.397h32.226v66.507h0.34c0.456-1.03,1.23-2.543,2.314-4.545
		c1.084-1.997,2.713-3.996,4.888-5.999c2.17-1.997,4.94-3.74,8.313-5.228c3.37-1.482,7.626-2.228,12.771-2.228
		c7.542,0,13.395,2.173,17.568,6.514c4.17,4.345,6.257,10.284,6.257,17.827v48.337h11.482v2.398h-43.021v-2.398h10.627v-54.166
		c0-4.799-0.975-8.312-2.914-10.542c-1.945-2.227-4.574-3.343-7.886-3.343c-2.745,0-5.374,0.66-7.885,1.972
		c-2.516,1.314-4.713,3.286-6.601,5.913c-1.884,2.631-3.399,5.889-4.542,9.771c-1.143,3.887-1.712,8.457-1.712,13.715v36.68h10.799
		v2.398h-43.025v-2.398H204.792z"/>
	<path d="M375.086,418.895c-3.03,0.456-5.856,0.686-8.484,0.686c-5.831,0-10.143-1.03-12.942-3.086
		c-2.803-2.058-4.542-4.913-5.228-8.57h-0.343c-1.829,4.572-4.344,7.657-7.542,9.255c-3.202,1.599-7.828,2.401-13.884,2.401
		c-2.742,0-5.545-0.288-8.397-0.857c-2.858-0.573-5.487-1.482-7.886-2.744c-2.402-1.253-4.344-2.999-5.831-5.226
		c-1.485-2.23-2.227-4.944-2.227-8.145c0-3.312,0.658-6.083,1.972-8.312c1.314-2.229,3.026-4.113,5.143-5.654
		c2.111-1.544,4.513-2.802,7.197-3.773c2.684-0.968,5.455-1.913,8.316-2.829c4.681-1.369,8.484-2.541,11.398-3.512
		c2.913-0.97,5.167-1.997,6.769-3.086c1.599-1.084,2.713-2.314,3.344-3.685c0.628-1.372,0.941-3.143,0.941-5.315v-10.455
		c0-3.085-0.744-5.885-2.227-8.4c-1.485-2.513-4.286-3.771-8.397-3.771c-2.632,0-4.917,0.603-6.859,1.802
		c-1.946,1.2-2.913,3.402-2.913,6.6c0,0.342,0.055,0.94,0.171,1.799c0.11,0.856,0.227,1.8,0.343,2.83
		c0.113,1.025,0.227,1.999,0.344,2.913c0.109,0.916,0.168,1.541,0.168,1.885c0,1.715-0.398,3.059-1.198,4.029
		c-0.8,0.971-1.742,1.687-2.826,2.143c-1.091,0.457-2.23,0.713-3.428,0.77c-1.201,0.059-2.205,0.088-3.004,0.088
		c-1.139,0-2.314-0.088-3.512-0.259c-1.198-0.171-2.257-0.569-3.173-1.2c-0.913-0.626-1.687-1.512-2.311-2.656
		c-0.628-1.141-0.942-2.683-0.942-4.627c0-2.973,0.826-5.628,2.483-7.973c1.658-2.34,3.859-4.283,6.601-5.826
		c2.742-1.543,5.855-2.715,9.342-3.516c3.484-0.797,7.112-1.2,10.887-1.2c4.341,0,8.423,0.345,12.252,1.03
		c3.826,0.686,7.141,1.944,9.941,3.772s5.028,4.313,6.688,7.454c1.654,3.144,2.482,7.113,2.482,11.912v42.511
		c0,2.171,0.314,4.086,0.943,5.742c0.627,1.658,2.197,2.487,4.713,2.487c1.485,0,2.716-0.285,3.687-0.858
		c0.971-0.57,1.91-1.373,2.83-2.398l1.541,1.541C380.425,417.009,378.11,418.435,375.086,418.895z M347.06,374.842
		c-0.23,0.686-0.657,1.345-1.286,1.97c-0.627,0.631-1.745,1.346-3.343,2.143c-2.169,1.028-4.345,2.031-6.513,3.001
		c-2.172,0.973-4.111,2.201-5.827,3.686c-1.713,1.486-3.115,3.314-4.199,5.485c-1.087,2.172-1.628,4.969-1.628,8.396
		c0,1.373,0.085,2.974,0.256,4.801c0.171,1.831,0.628,3.601,1.373,5.315c0.741,1.713,1.855,3.17,3.344,4.37
		c1.482,1.198,3.538,1.799,6.17,1.799c1.482,0,2.939-0.342,4.367-1.027c1.43-0.688,2.716-1.742,3.858-3.169
		c1.143-1.43,2.056-3.315,2.746-5.659c0.683-2.341,1.025-5.17,1.025-8.484v-22.626H347.06z"/>
	<path d="M402.596,414.951v-68.733h-11.314v-2.403h31.883v17.141h0.346c0.453-1.025,1.253-2.596,2.396-4.714
		c1.143-2.11,2.8-4.197,4.973-6.254c2.169-2.059,4.972-3.856,8.401-5.399c3.424-1.543,7.71-2.314,12.854-2.314
		c7.543,0,13.398,2.173,17.572,6.514c4.169,4.345,6.254,10.284,6.254,17.827v48.337h11.485v2.398h-43.021v-2.398h10.627v-54.166
		c0-4.799-0.975-8.312-2.917-10.542c-1.945-2.227-4.571-3.343-7.882-3.343c-2.746,0-5.374,0.66-7.886,1.972
		c-2.515,1.314-4.716,3.286-6.601,5.913c-1.884,2.631-3.399,5.889-4.542,9.771c-1.146,3.887-1.713,8.457-1.713,13.715v36.68h10.796
		v2.398h-43.025v-2.398H402.596z"/>
	<path d="M588.402,414.951v2.398h-31.882v-12.683h-0.341c-1.833,4.799-4.374,8.483-7.627,11.056
		c-3.255,2.57-7.458,3.857-12.598,3.857c-5.605,0-10.69-1.088-15.258-3.256c-4.571-2.171-8.484-5.057-11.741-8.656
		c-3.259-3.6-5.804-7.743-7.629-12.43c-1.829-4.683-2.742-9.598-2.742-14.741c0-3.997,0.716-8.283,2.144-12.855
		c1.427-4.57,3.657-8.798,6.684-12.685c3.027-3.883,6.882-7.112,11.572-9.682c4.681-2.573,10.34-3.86,16.971-3.86
		c5.14,0,9.31,1.2,12.511,3.601c3.194,2.402,5.654,5.998,7.367,10.799h0.347v-59.651h-11.658v-2.397h32.569v121.186H588.402z
		 M555.581,368.5c-0.404-4.343-1.234-8.341-2.486-11.999c-1.263-3.657-3.146-6.687-5.659-9.083
		c-2.515-2.402-5.885-3.604-10.112-3.604c-2.856,0-5.287,0.632-7.283,1.888c-2.004,1.26-3.629,3.316-4.886,6.17
		c-1.258,2.858-2.143,6.659-2.658,11.399c-0.514,4.743-0.773,10.542-0.773,17.398c0,5.6,0.143,10.657,0.432,15.169
		c0.284,4.516,0.912,8.372,1.883,11.569c0.972,3.202,2.402,5.659,4.287,7.372c1.883,1.714,4.428,2.569,7.63,2.569
		c4.797,0,8.539-1.227,11.225-3.684c2.684-2.457,4.717-5.542,6.087-9.257c1.369-3.711,2.197-7.715,2.482-11.999
		c0.285-4.285,0.431-8.197,0.431-11.74C556.18,376.898,555.979,372.844,555.581,368.5z"/>
	<path d="M622.854,382.039c0,4.116,0.172,8.258,0.516,12.428c0.34,4.174,1.252,7.943,2.741,11.315
		c1.486,3.372,3.654,6.142,6.513,8.311c2.856,2.175,6.859,3.257,12.001,3.257c4.571,0,8.424-0.855,11.567-2.569
		c3.146-1.713,5.713-3.688,7.714-5.914c2-2.229,3.486-4.426,4.458-6.598c0.971-2.169,1.511-3.771,1.627-4.801l2.399,0.856
		c-0.574,2.171-1.541,4.487-2.911,6.941c-1.372,2.46-3.26,4.746-5.658,6.856c-2.402,2.117-5.373,3.888-8.912,5.315
		c-3.545,1.427-7.83,2.143-12.857,2.143c-5.939,0-11.486-0.889-16.626-2.657c-5.145-1.771-9.627-4.341-13.453-7.714
		c-3.83-3.37-6.831-7.483-9.003-12.341c-2.173-4.855-3.254-10.372-3.254-16.541c0-4.911,1.026-9.712,3.083-14.399
		c2.059-4.685,4.887-8.828,8.483-12.428c3.603-3.6,7.831-6.514,12.687-8.741c4.855-2.229,10.084-3.344,15.685-3.344
		c3.997,0,7.995,0.631,12,1.886c3.998,1.259,7.598,3.202,10.799,5.829c3.194,2.628,5.826,6.029,7.883,10.201
		c2.056,4.17,3.085,9.169,3.085,14.997h-50.565V382.039z M650.28,360.441c0-1.257-0.059-2.798-0.171-4.627
		c-0.116-1.825-0.516-3.656-1.198-5.484c-0.688-1.826-1.803-3.368-3.344-4.628c-1.544-1.256-3.688-1.888-6.43-1.888
		c-3.884,0-6.885,0.917-8.995,2.745c-2.12,1.829-3.688,4.142-4.717,6.94c-1.03,2.804-1.687,5.831-1.973,9.085
		c-0.287,3.257-0.488,6.371-0.599,9.341h27.426V360.441z"/>
	<path d="M717.985,293.766v121.186h11.489v2.398h-43.883v-2.398h11.481V296.163h-11.481v-2.397H717.985z"/>
	<path d="M771.981,343.814v71.137h11.482v2.398h-43.88v-2.398h11.482v-68.733h-11.482v-2.403H771.981z M752.954,298.393
		c2.398-2.401,5.253-3.6,8.567-3.6c3.316,0,6.174,1.198,8.572,3.6s3.6,5.258,3.6,8.57c0,3.315-1.201,6.17-3.6,8.57
		s-5.256,3.6-8.572,3.6c-3.314,0-6.169-1.199-8.567-3.6c-2.403-2.4-3.6-5.255-3.6-8.57
		C749.354,303.65,750.551,300.794,752.954,298.393z"/>
	<path d="M816.544,382.039c0,4.116,0.172,8.258,0.516,12.428c0.343,4.174,1.256,7.943,2.741,11.315
		c1.482,3.372,3.655,6.142,6.514,8.311c2.854,2.175,6.856,3.257,12,3.257c4.567,0,8.423-0.855,11.569-2.569
		c3.141-1.713,5.714-3.688,7.711-5.914c2.004-2.229,3.486-4.426,4.457-6.598c0.971-2.169,1.515-3.771,1.63-4.801l2.397,0.856
		c-0.572,2.171-1.54,4.487-2.91,6.941c-1.373,2.46-3.26,4.746-5.659,6.856c-2.4,2.117-5.369,3.888-8.911,5.315
		c-3.544,1.427-7.831,2.143-12.854,2.143c-5.943,0-11.486-0.889-16.63-2.657c-5.141-1.771-9.627-4.341-13.457-7.714
		c-3.826-3.37-6.826-7.483-8.996-12.341c-2.172-4.855-3.256-10.372-3.256-16.541c0-4.911,1.029-9.712,3.081-14.399
		c2.06-4.685,4.889-8.828,8.485-12.428c3.604-3.6,7.831-6.514,12.687-8.741c4.855-2.229,10.084-3.344,15.688-3.344
		c3.994,0,7.995,0.631,11.996,1.886c3.998,1.259,7.598,3.202,10.8,5.829c3.195,2.628,5.826,6.029,7.886,10.201
		c2.052,4.17,3.081,9.169,3.081,14.997h-50.564V382.039z M843.97,360.441c0-1.257-0.059-2.798-0.172-4.627
		c-0.117-1.825-0.515-3.656-1.197-5.484c-0.688-1.826-1.804-3.368-3.345-4.628c-1.54-1.256-3.687-1.888-6.428-1.888
		c-3.885,0-6.887,0.917-8.998,2.745c-2.116,1.829-3.686,4.142-4.716,6.94c-1.026,2.804-1.687,5.831-1.971,9.085
		c-0.288,3.257-0.486,6.371-0.6,9.341h27.426V360.441z"/>
	<path d="M911.85,343.814v14.399h0.339c2.062-4.342,4.83-8.083,8.314-11.228c3.486-3.14,8.083-4.713,13.8-4.713
		c4.801,0,8.682,1.286,11.657,3.857c2.968,2.569,4.454,6.143,4.454,10.714c0,3.428-0.829,6.113-2.483,8.055
		c-1.658,1.944-4.318,2.915-7.969,2.915c-2.629,0-5.031-0.543-7.204-1.63c-2.172-1.086-3.253-3.113-3.253-6.085
		c0-0.342,0.055-0.943,0.169-1.8c0.112-0.857,0.258-1.771,0.431-2.741c0.168-0.97,0.31-1.857,0.427-2.657
		c0.113-0.798,0.172-1.256,0.172-1.372c-0.117-0.914-0.289-1.629-0.516-2.144c-0.229-0.514-0.599-0.968-1.113-1.369
		s-1.285-0.599-2.315-0.599c-1.146,0-2.569,0.54-4.285,1.625c-1.713,1.088-3.318,2.659-4.797,4.717
		c-1.485,2.055-2.774,4.54-3.858,7.455c-1.086,2.913-1.63,6.199-1.63,9.855v43.881h13.542v2.398h-45.592v-2.398h11.143v-68.733
		h-11.143v-2.403H911.85z"/>
	<path d="M959.15,392.499c1.377,3.197,2.775,6.282,4.202,9.253c1.427,2.974,3.114,5.602,5.056,7.887
		c1.946,2.285,4.287,4.143,7.031,5.568c2.742,1.431,6.11,2.143,10.11,2.143c1.029,0,2.401-0.055,4.114-0.171
		c1.716-0.113,3.399-0.599,5.057-1.456c1.654-0.857,3.086-2.169,4.286-3.943c1.201-1.768,1.8-4.311,1.8-7.627
		c0-1.03-0.146-2.084-0.428-3.171c-0.285-1.087-0.884-2.2-1.8-3.342s-2.26-2.257-4.029-3.344c-1.771-1.086-4.199-2.197-7.287-3.342
		l-13.882-5.142c-1.602-0.572-3.314-1.342-5.144-2.314c-1.825-0.97-3.513-2.255-5.054-3.857c-1.546-1.599-2.828-3.514-3.858-5.742
		c-1.029-2.229-1.541-4.887-1.541-7.971c0-3.314,0.684-6.455,2.057-9.427c1.372-2.973,3.282-5.57,5.742-7.801
		c2.453-2.227,5.426-3.999,8.912-5.312c3.487-1.312,7.287-1.973,11.397-1.973c2.173,0,4.203,0.23,6.09,0.688
		c1.883,0.457,3.596,0.942,5.14,1.457c1.546,0.514,2.913,1,4.112,1.456c1.2,0.456,2.143,0.687,2.829,0.687
		c1.256,0,2.059-0.23,2.398-0.687c0.344-0.456,0.628-0.97,0.861-1.541h2.398v20.912h-2.23c-1.144-2.744-2.312-5.37-3.513-7.886
		c-1.2-2.512-2.632-4.715-4.285-6.601c-1.658-1.884-3.684-3.368-6.087-4.456c-2.398-1.083-5.37-1.63-8.912-1.63
		c-3.77,0-7.228,1.004-10.371,3.002c-3.143,1.999-4.713,4.941-4.713,8.826c0,0.801,0.113,1.715,0.344,2.743
		c0.229,1.028,0.74,2.086,1.544,3.171c0.8,1.088,2.055,2.174,3.768,3.257c1.715,1.088,4.001,2.145,6.856,3.172l14.573,4.971
		c6.17,2.172,10.854,5.03,14.053,8.572c3.198,3.541,4.8,8.055,4.8,13.54c0,3.769-0.827,7.174-2.485,10.197
		c-1.658,3.03-3.83,5.6-6.514,7.714c-2.687,2.118-5.801,3.744-9.341,4.886c-3.543,1.143-7.198,1.715-10.972,1.715
		c-2.056,0-4.286-0.229-6.685-0.686c-2.399-0.46-4.711-1.002-6.943-1.629c-2.225-0.628-4.258-1.172-6.083-1.628
		c-1.829-0.457-3.257-0.687-4.286-0.687c-0.916,0-1.573,0.172-1.972,0.515c-0.4,0.342-0.768,0.971-1.117,1.884h-2.396v-24.851
		H959.15z"/>
</g>
<path fill="#999999" d="M206.45,413.294V294.506h-11.314v-2.398h32.226v66.507h0.34c0.457-1.028,1.229-2.542,2.314-4.544
	c1.084-1.998,2.712-3.996,4.888-5.998c2.169-1.998,4.94-3.74,8.313-5.229c3.37-1.483,7.626-2.228,12.77-2.228
	c7.543,0,13.396,2.173,17.569,6.514c4.169,4.344,6.257,10.284,6.257,17.827v48.337h11.482v2.398h-43.022v-2.398h10.628v-54.165
	c0-4.8-0.975-8.313-2.914-10.542c-1.945-2.229-4.574-3.345-7.886-3.345c-2.745,0-5.373,0.661-7.885,1.973
	c-2.516,1.314-4.713,3.287-6.601,5.913c-1.883,2.63-3.398,5.889-4.541,9.771c-1.143,3.888-1.713,8.457-1.713,13.715v36.681h10.799
	v2.398h-43.025v-2.398H206.45z"/>
<path fill="#999999" d="M376.744,417.237c-3.03,0.456-5.856,0.686-8.485,0.686c-5.83,0-10.142-1.029-12.942-3.087
	c-2.804-2.057-4.542-4.912-5.229-8.57h-0.343c-1.829,4.572-4.344,7.657-7.543,9.256c-3.201,1.599-7.828,2.401-13.884,2.401
	c-2.742,0-5.545-0.288-8.397-0.857c-2.858-0.573-5.487-1.483-7.885-2.744c-2.402-1.254-4.344-2.999-5.831-5.226
	c-1.485-2.231-2.227-4.943-2.227-8.145c0-3.312,0.657-6.083,1.971-8.312s3.027-4.114,5.144-5.655
	c2.111-1.545,4.513-2.802,7.196-3.773c2.684-0.969,5.455-1.913,8.317-2.829c4.681-1.37,8.484-2.542,11.397-3.513
	c2.914-0.97,5.167-1.997,6.769-3.085c1.599-1.084,2.713-2.314,3.344-3.685c0.627-1.372,0.942-3.142,0.942-5.315v-10.455
	c0-3.084-0.745-5.886-2.228-8.399c-1.486-2.514-4.286-3.772-8.397-3.772c-2.632,0-4.917,0.602-6.859,1.803
	c-1.946,1.198-2.914,3.401-2.914,6.598c0,0.343,0.055,0.942,0.172,1.8c0.11,0.857,0.227,1.8,0.343,2.829
	c0.113,1.026,0.226,2.002,0.343,2.914c0.11,0.916,0.168,1.541,0.168,1.884c0,1.716-0.398,3.059-1.198,4.03
	c-0.799,0.971-1.742,1.687-2.826,2.143c-1.091,0.457-2.23,0.712-3.428,0.77c-1.2,0.06-2.204,0.087-3.004,0.087
	c-1.139,0-2.314-0.087-3.512-0.258s-2.256-0.568-3.173-1.2c-0.913-0.627-1.686-1.512-2.311-2.657
	c-0.627-1.14-0.942-2.681-0.942-4.627c0-2.972,0.825-5.627,2.483-7.971c1.657-2.341,3.858-4.285,6.601-5.828
	c2.742-1.542,5.856-2.713,9.342-3.515c3.483-0.798,7.112-1.199,10.886-1.199c4.341,0,8.424,0.343,12.253,1.028
	c3.826,0.688,7.142,1.944,9.941,3.772c2.8,1.828,5.027,4.314,6.688,7.455c1.654,3.144,2.483,7.114,2.483,11.913v42.51
	c0,2.171,0.314,4.087,0.942,5.742c0.628,1.657,2.198,2.486,4.713,2.486c1.486,0,2.716-0.285,3.688-0.857
	c0.971-0.571,1.91-1.372,2.829-2.399l1.542,1.541C382.082,415.352,379.767,416.776,376.744,417.237z M348.716,373.184
	c-0.229,0.687-0.657,1.345-1.285,1.97c-0.628,0.632-1.745,1.347-3.344,2.143c-2.169,1.03-4.344,2.032-6.513,3.001
	c-2.172,0.973-4.111,2.202-5.827,3.686c-1.712,1.486-3.114,3.316-4.199,5.485c-1.087,2.173-1.627,4.97-1.627,8.398
	c0,1.372,0.083,2.973,0.255,4.801c0.171,1.83,0.627,3.599,1.372,5.315c0.742,1.712,1.855,3.168,3.344,4.369
	c1.483,1.197,3.539,1.798,6.17,1.798c1.482,0,2.939-0.341,4.367-1.027c1.431-0.686,2.716-1.742,3.858-3.169
	c1.143-1.43,2.056-3.315,2.745-5.659c0.683-2.34,1.027-5.169,1.027-8.483v-22.627H348.716z"/>
<path fill="#999999" d="M404.253,413.294V344.56h-11.313v-2.402h31.882v17.141h0.347c0.453-1.026,1.252-2.597,2.395-4.713
	c1.143-2.112,2.8-4.198,4.972-6.255c2.169-2.058,4.973-3.857,8.401-5.399c3.425-1.544,7.711-2.314,12.854-2.314
	c7.542,0,13.399,2.173,17.571,6.514c4.169,4.344,6.254,10.284,6.254,17.827v48.337h11.485v2.398h-43.021v-2.398h10.627v-54.165
	c0-4.8-0.975-8.313-2.917-10.542c-1.946-2.229-4.571-3.345-7.883-3.345c-2.745,0-5.374,0.661-7.885,1.973
	c-2.516,1.314-4.717,3.287-6.601,5.913c-1.884,2.63-3.399,5.889-4.542,9.771c-1.146,3.888-1.712,8.457-1.712,13.715v36.681h10.795
	v2.398h-43.025v-2.398H404.253z"/>
<path fill="#999999" d="M590.061,413.294v2.398h-31.884v-12.684h-0.34c-1.832,4.8-4.373,8.486-7.627,11.056
	c-3.256,2.571-7.458,3.858-12.599,3.858c-5.603,0-10.689-1.088-15.256-3.257c-4.572-2.17-8.485-5.057-11.742-8.656
	c-3.26-3.6-5.805-7.742-7.63-12.429c-1.829-4.684-2.742-9.599-2.742-14.742c0-3.996,0.716-8.282,2.144-12.854
	c1.427-4.568,3.658-8.796,6.684-12.686c3.027-3.883,6.882-7.111,11.573-9.682c4.681-2.572,10.34-3.858,16.969-3.858
	c5.141,0,9.311,1.199,12.511,3.6c3.196,2.401,5.656,5.999,7.369,10.799h0.346v-59.651H546.18v-2.398h32.569v121.187H590.061z
	 M557.237,366.843c-0.404-4.343-1.232-8.341-2.484-11.999c-1.264-3.658-3.147-6.687-5.659-9.084
	c-2.516-2.401-5.886-3.603-10.113-3.603c-2.855,0-5.286,0.632-7.283,1.887c-2.004,1.261-3.629,3.317-4.885,6.171
	c-1.26,2.858-2.143,6.659-2.658,11.399c-0.515,4.742-0.773,10.542-0.773,17.397c0,5.602,0.143,10.657,0.431,15.169
	c0.284,4.517,0.913,8.373,1.884,11.57c0.971,3.202,2.402,5.658,4.285,7.371c1.885,1.714,4.429,2.57,7.63,2.57
	c4.797,0,8.541-1.227,11.227-3.685c2.684-2.456,4.717-5.54,6.085-9.256c1.37-3.711,2.199-7.714,2.483-11.998
	c0.285-4.287,0.431-8.198,0.431-11.742C557.837,375.241,557.637,371.187,557.237,366.843z"/>
<path fill="#999999" d="M624.513,380.382c0,4.116,0.171,8.259,0.516,12.428c0.339,4.174,1.252,7.943,2.741,11.314
	c1.485,3.372,3.654,6.143,6.513,8.312c2.855,2.174,6.859,3.256,12,3.256c4.572,0,8.424-0.856,11.566-2.57
	c3.147-1.713,5.713-3.687,7.715-5.912c2.001-2.229,3.486-4.428,4.457-6.6c0.971-2.168,1.512-3.771,1.629-4.8l2.398,0.855
	c-0.573,2.172-1.541,4.488-2.911,6.941c-1.372,2.461-3.259,4.747-5.657,6.856c-2.402,2.118-5.374,3.889-8.913,5.316
	c-3.544,1.427-7.831,2.143-12.858,2.143c-5.939,0-11.484-0.889-16.626-2.658c-5.143-1.771-9.627-4.34-13.452-7.714
	c-3.831-3.369-6.831-7.482-9.003-12.34c-2.173-4.855-3.253-10.371-3.253-16.541c0-4.911,1.025-9.713,3.081-14.4
	c2.059-4.684,4.889-8.827,8.485-12.426c3.603-3.601,7.83-6.514,12.687-8.742c4.854-2.229,10.083-3.343,15.684-3.343
	c3.997,0,7.995,0.63,12,1.886c3.997,1.257,7.598,3.201,10.799,5.828c3.195,2.629,5.827,6.03,7.883,10.2
	c2.056,4.171,3.085,9.17,3.085,14.998h-50.564V380.382z M651.938,358.785c0-1.258-0.058-2.799-0.171-4.628
	c-0.117-1.826-0.515-3.655-1.198-5.485c-0.689-1.826-1.802-3.367-3.344-4.628c-1.545-1.255-3.688-1.887-6.429-1.887
	c-3.885,0-6.885,0.916-8.997,2.745c-2.119,1.828-3.687,4.143-4.717,6.941c-1.028,2.803-1.685,5.829-1.971,9.084
	c-0.287,3.257-0.489,6.37-0.599,9.342h27.425V358.785z"/>
<path fill="#999999" d="M719.643,292.107v121.187h11.488v2.398h-43.883v-2.398h11.483V294.506h-11.483v-2.398H719.643z"/>
<path fill="#999999" d="M773.639,342.157v71.137h11.482v2.398h-43.88v-2.398h11.482V344.56h-11.482v-2.402H773.639z M754.61,296.734
	c2.399-2.399,5.254-3.6,8.569-3.6c3.314,0,6.173,1.2,8.572,3.6c2.398,2.401,3.6,5.258,3.6,8.571c0,3.314-1.201,6.17-3.6,8.57
	c-2.399,2.4-5.258,3.599-8.572,3.599c-3.315,0-6.17-1.198-8.569-3.599c-2.401-2.4-3.599-5.256-3.599-8.57
	C751.012,301.992,752.209,299.136,754.61,296.734z"/>
<path fill="#999999" d="M818.201,380.382c0,4.116,0.173,8.259,0.515,12.428c0.343,4.174,1.256,7.943,2.742,11.314
	c1.482,3.372,3.655,6.143,6.514,8.312c2.854,2.174,6.855,3.256,12,3.256c4.567,0,8.423-0.856,11.57-2.57
	c3.14-1.713,5.713-3.687,7.711-5.912c2.003-2.229,3.485-4.428,4.457-6.6c0.971-2.168,1.515-3.771,1.628-4.8l2.398,0.855
	c-0.573,2.172-1.54,4.488-2.909,6.941c-1.373,2.461-3.26,4.747-5.66,6.856c-2.401,2.118-5.37,3.889-8.911,5.316
	c-3.545,1.427-7.83,2.143-12.854,2.143c-5.943,0-11.486-0.889-16.63-2.658c-5.141-1.771-9.626-4.34-13.456-7.714
	c-3.826-3.369-6.827-7.482-8.997-12.34c-2.171-4.855-3.256-10.371-3.256-16.541c0-4.911,1.029-9.713,3.082-14.4
	c2.059-4.684,4.888-8.827,8.484-12.426c3.604-3.601,7.831-6.514,12.686-8.742c4.857-2.229,10.085-3.343,15.688-3.343
	c3.994,0,7.995,0.63,11.997,1.886c3.998,1.257,7.597,3.201,10.799,5.828c3.195,2.629,5.827,6.03,7.886,10.2
	c2.052,4.171,3.082,9.17,3.082,14.998h-50.565V380.382z M845.627,358.785c0-1.258-0.059-2.799-0.172-4.628
	c-0.116-1.826-0.514-3.655-1.197-5.485c-0.687-1.826-1.804-3.367-3.345-4.628c-1.54-1.255-3.687-1.887-6.43-1.887
	c-3.884,0-6.884,0.916-8.995,2.745c-2.116,1.828-3.686,4.143-4.717,6.941c-1.025,2.803-1.687,5.829-1.971,9.084
	c-0.289,3.257-0.485,6.37-0.6,9.342h27.426V358.785z"/>
<path fill="#999999" d="M913.508,342.157v14.398h0.339c2.062-4.34,4.83-8.083,8.313-11.226c3.485-3.141,8.083-4.714,13.8-4.714
	c4.801,0,8.682,1.285,11.658,3.856c2.967,2.571,4.454,6.143,4.454,10.714c0,3.428-0.83,6.113-2.484,8.055
	c-1.657,1.945-4.317,2.916-7.97,2.916c-2.628,0-5.03-0.543-7.203-1.629c-2.171-1.087-3.253-3.112-3.253-6.087
	c0-0.341,0.055-0.942,0.169-1.798c0.113-0.858,0.259-1.771,0.43-2.741c0.169-0.97,0.312-1.858,0.429-2.657
	c0.112-0.799,0.171-1.258,0.171-1.374c-0.116-0.912-0.288-1.628-0.516-2.143c-0.229-0.514-0.599-0.968-1.113-1.37
	c-0.514-0.4-1.285-0.599-2.314-0.599c-1.146,0-2.57,0.541-4.286,1.625c-1.712,1.088-3.317,2.659-4.798,4.717
	c-1.485,2.056-2.773,4.542-3.857,7.456c-1.085,2.912-1.629,6.198-1.629,9.854v43.882h13.541v2.398h-45.592v-2.398h11.142V344.56
	h-11.142v-2.402H913.508z"/>
<path fill="#999999" d="M960.809,390.841c1.376,3.199,2.773,6.283,4.202,9.254c1.427,2.973,3.114,5.602,5.056,7.888
	c1.946,2.284,4.287,4.141,7.031,5.566c2.741,1.432,6.108,2.144,10.109,2.144c1.029,0,2.402-0.055,4.115-0.171
	c1.716-0.113,3.398-0.599,5.056-1.457c1.654-0.855,3.085-2.169,4.286-3.943c1.201-1.767,1.8-4.311,1.8-7.626
	c0-1.03-0.146-2.085-0.427-3.172c-0.285-1.085-0.884-2.199-1.8-3.342c-0.916-1.141-2.26-2.256-4.031-3.342
	c-1.771-1.087-4.197-2.199-7.286-3.343l-13.881-5.143c-1.604-0.571-3.314-1.342-5.145-2.314c-1.825-0.97-3.512-2.254-5.053-3.856
	c-1.547-1.598-2.829-3.513-3.859-5.743c-1.029-2.228-1.541-4.885-1.541-7.971c0-3.314,0.684-6.454,2.057-9.426
	c1.372-2.972,3.281-5.571,5.743-7.8c2.453-2.229,5.426-3.999,8.912-5.314c3.485-1.312,7.285-1.971,11.396-1.971
	c2.173,0,4.202,0.229,6.09,0.686c1.884,0.459,3.597,0.942,5.141,1.457c1.544,0.516,2.913,1,4.111,1.457
	c1.201,0.456,2.143,0.686,2.829,0.686c1.255,0,2.059-0.229,2.397-0.686c0.344-0.457,0.629-0.971,0.861-1.54h2.399v20.911h-2.229
	c-1.144-2.745-2.312-5.37-3.513-7.886c-1.201-2.513-2.632-4.715-4.286-6.601c-1.657-1.885-3.685-3.367-6.087-4.456
	c-2.397-1.083-5.369-1.63-8.911-1.63c-3.771,0-7.229,1.004-10.372,3.001c-3.144,2-4.714,4.943-4.714,8.828
	c0,0.799,0.114,1.714,0.344,2.741c0.23,1.028,0.742,2.087,1.545,3.173c0.799,1.087,2.055,2.172,3.768,3.257
	c1.716,1.086,4.002,2.143,6.856,3.17l14.574,4.971c6.169,2.174,10.854,5.031,14.052,8.572c3.197,3.541,4.801,8.056,4.801,13.542
	c0,3.767-0.828,7.173-2.485,10.195c-1.658,3.03-3.83,5.602-6.514,7.715c-2.687,2.117-5.801,3.743-9.343,4.885
	c-3.542,1.143-7.196,1.716-10.971,1.716c-2.057,0-4.285-0.229-6.685-0.686c-2.398-0.461-4.71-1.003-6.944-1.629
	c-2.223-0.628-4.256-1.172-6.082-1.628c-1.828-0.457-3.257-0.687-4.286-0.687c-0.916,0-1.573,0.171-1.971,0.515
	c-0.402,0.341-0.769,0.972-1.117,1.884h-2.396v-24.852H960.809z"/>
<line fill="#FFFFFF" stroke="#000000" stroke-width="2" stroke-miterlimit="10" x1="124.437" y1="3" x2="124.437" y2="291"/>
<circle fill="none" stroke="#000000" stroke-miterlimit="10" cx="125.252" cy="295.988" r="4.691"/>
<circle fill="none" stroke="#999999" stroke-width="2" stroke-miterlimit="10" cx="126.91" cy="295.988" r="4.691"/>
<line fill="#FFFFFF" stroke="#999999" stroke-width="2" stroke-miterlimit="10" x1="126.437" y1="3" x2="126.437" y2="291"/>
<g>
	<path fill="#999999" d="M225.19,145.608v118.028h11.184v2.337h-42.737v-2.337h11.185V147.946h-11.185v-2.337H225.19z"/>
	<path fill="#999999" d="M318.09,267.478c-2.949,0.443-5.704,0.667-8.265,0.667c-5.675,0-9.876-1-12.602-3.004
		c-2.729-2.004-4.425-4.785-5.095-8.348h-0.334c-1.78,4.454-4.228,7.458-7.341,9.015c-3.121,1.557-7.627,2.337-13.525,2.337
		c-2.67,0-5.399-0.278-8.18-0.835c-2.78-0.558-5.341-1.443-7.678-2.67c-2.337-1.224-4.231-2.923-5.675-5.094
		c-1.447-2.168-2.172-4.812-2.172-7.931c0-3.224,0.64-5.924,1.921-8.094c1.279-2.171,2.948-4.008,5.008-5.508
		c2.059-1.504,4.395-2.728,7.012-3.675c2.614-0.945,5.313-1.863,8.098-2.755c4.561-1.335,8.261-2.475,11.1-3.422
		c2.839-0.943,5.033-1.945,6.594-3.006c1.557-1.057,2.642-2.254,3.256-3.588c0.609-1.337,0.916-3.061,0.916-5.177v-10.184
		c0-3.005-0.724-5.729-2.168-8.181c-1.447-2.443-4.172-3.671-8.18-3.671c-2.561,0-4.788,0.585-6.678,1.751
		c-1.894,1.17-2.839,3.314-2.839,6.43c0,0.334,0.055,0.916,0.168,1.752c0.106,0.834,0.223,1.754,0.333,2.754
		c0.11,1.002,0.224,1.949,0.333,2.84s0.168,1.501,0.168,1.834c0,1.672-0.392,2.982-1.169,3.924c-0.78,0.949-1.699,1.646-2.755,2.086
		c-1.058,0.447-2.17,0.698-3.337,0.753c-1.168,0.056-2.144,0.083-2.923,0.083c-1.114,0-2.253-0.083-3.422-0.251
		c-1.168-0.165-2.199-0.557-3.088-1.169c-0.893-0.607-1.645-1.473-2.252-2.586c-0.616-1.111-0.92-2.615-0.92-4.508
		c0-2.893,0.806-5.48,2.421-7.761c1.612-2.282,3.755-4.177,6.426-5.679c2.67-1.502,5.702-2.641,9.099-3.421
		c3.393-0.777,6.928-1.171,10.599-1.171c4.231,0,8.206,0.336,11.938,1.002c3.727,0.668,6.954,1.895,9.683,3.675
		c2.725,1.78,4.895,4.201,6.51,7.261c1.611,3.062,2.421,6.928,2.421,11.604v41.401c0,2.113,0.305,3.98,0.916,5.593
		c0.612,1.613,2.143,2.419,4.593,2.419c1.444,0,2.642-0.274,3.591-0.834c0.941-0.556,1.861-1.335,2.754-2.337l1.502,1.505
		C323.289,265.641,321.036,267.031,318.09,267.478z M290.794,224.572c-0.223,0.667-0.642,1.31-1.253,1.92
		c-0.612,0.614-1.697,1.31-3.254,2.088c-2.117,1-4.23,1.976-6.344,2.922c-2.114,0.945-4.008,2.144-5.675,3.588
		c-1.67,1.446-3.033,3.229-4.091,5.342c-1.059,2.117-1.586,4.843-1.586,8.181c0,1.336,0.084,2.895,0.252,4.674
		c0.165,1.784,0.609,3.507,1.334,5.177c0.722,1.67,1.81,3.087,3.256,4.256c1.444,1.169,3.448,1.751,6.012,1.751
		c1.444,0,2.861-0.332,4.253-0.999c1.392-0.668,2.642-1.696,3.758-3.09c1.11-1.39,2.004-3.226,2.67-5.509
		c0.667-2.279,1-5.033,1-8.265v-22.035H290.794z"/>
	<path fill="#999999" d="M336.535,241.769c1.337,3.117,2.696,6.121,4.092,9.013c1.389,2.896,3.03,5.457,4.924,7.682
		c1.89,2.227,4.172,4.034,6.843,5.425c2.67,1.392,5.953,2.086,9.85,2.086c1.003,0,2.337-0.053,4.008-0.166
		c1.667-0.111,3.308-0.584,4.923-1.418c1.612-0.836,3.004-2.114,4.173-3.839c1.169-1.726,1.755-4.201,1.755-7.43
		c0-1.002-0.143-2.03-0.417-3.089c-0.279-1.058-0.865-2.143-1.755-3.256c-0.89-1.11-2.199-2.195-3.92-3.255
		c-1.728-1.058-4.092-2.142-7.099-3.256l-13.521-5.008c-1.558-0.556-3.228-1.308-5.008-2.255c-1.781-0.942-3.421-2.196-4.924-3.756
		c-1.502-1.557-2.754-3.423-3.754-5.593c-1.004-2.17-1.505-4.758-1.505-7.762c0-3.229,0.67-6.287,2.003-9.184
		c1.337-2.894,3.199-5.425,5.594-7.594c2.392-2.172,5.286-3.897,8.679-5.176c3.396-1.279,7.099-1.922,11.104-1.922
		c2.114,0,4.092,0.225,5.927,0.668c1.835,0.447,3.506,0.92,5.007,1.42c1.503,0.5,2.836,0.977,4.008,1.42
		c1.168,0.445,2.084,0.666,2.754,0.666c1.221,0,2.004-0.221,2.337-0.666c0.334-0.443,0.609-0.945,0.835-1.502h2.334v20.364h-2.169
		c-1.113-2.671-2.253-5.228-3.421-7.679c-1.169-2.446-2.564-4.59-4.173-6.428c-1.615-1.836-3.59-3.281-5.927-4.338
		c-2.337-1.057-5.235-1.587-8.683-1.587c-3.67,0-7.041,0.975-10.1,2.921c-3.062,1.948-4.589,4.816-4.589,8.597
		c0,0.78,0.109,1.671,0.333,2.671c0.221,1.004,0.722,2.033,1.502,3.09c0.776,1.057,2.003,2.116,3.674,3.173
		c1.667,1.057,3.895,2.085,6.675,3.087l14.191,4.84c6.008,2.117,10.573,4.9,13.69,8.35c3.114,3.448,4.675,7.848,4.675,13.186
		c0,3.675-0.81,6.989-2.422,9.935c-1.615,2.951-3.729,5.456-6.341,7.513c-2.619,2.062-5.652,3.647-9.1,4.758
		c-3.451,1.113-7.012,1.67-10.687,1.67c-2.003,0-4.173-0.224-6.51-0.667c-2.337-0.446-4.59-0.978-6.762-1.586
		c-2.169-0.612-4.147-1.14-5.924-1.586c-1.784-0.443-3.172-0.669-4.173-0.669c-0.894,0-1.534,0.167-1.922,0.501
		c-0.393,0.332-0.751,0.948-1.085,1.836h-2.337v-24.205H336.535z"/>
	<path fill="#999999" d="M407.652,241.769c1.337,3.117,2.697,6.121,4.089,9.013c1.392,2.896,3.033,5.457,4.927,7.682
		c1.89,2.227,4.172,4.034,6.843,5.425c2.671,1.392,5.954,2.086,9.851,2.086c1.001,0,2.338-0.053,4.008-0.166
		c1.667-0.111,3.308-0.584,4.923-1.418c1.612-0.836,3.004-2.114,4.173-3.839c1.168-1.726,1.755-4.201,1.755-7.43
		c0-1.002-0.143-2.03-0.417-3.089c-0.279-1.058-0.865-2.143-1.755-3.256c-0.89-1.11-2.199-2.195-3.923-3.255
		c-1.726-1.058-4.089-2.142-7.093-3.256l-13.524-5.008c-1.561-0.556-3.228-1.308-5.008-2.255c-1.78-0.942-3.422-2.196-4.924-3.756
		c-1.502-1.557-2.754-3.423-3.755-5.593c-1.003-2.17-1.505-4.758-1.505-7.762c0-3.229,0.67-6.287,2.004-9.184
		c1.336-2.894,3.198-5.425,5.594-7.594c2.392-2.172,5.283-3.897,8.679-5.176c3.396-1.279,7.096-1.922,11.104-1.922
		c2.114,0,4.092,0.225,5.927,0.668c1.835,0.447,3.506,0.92,5.007,1.42c1.502,0.5,2.839,0.977,4.005,1.42
		c1.172,0.445,2.088,0.666,2.758,0.666c1.224,0,2.004-0.221,2.337-0.666c0.33-0.443,0.608-0.945,0.832-1.502h2.337v20.364h-2.169
		c-1.113-2.671-2.253-5.228-3.421-7.679c-1.168-2.446-2.564-4.59-4.173-6.428c-1.615-1.836-3.59-3.281-5.927-4.338
		c-2.337-1.057-5.231-1.587-8.683-1.587c-3.67,0-7.041,0.975-10.1,2.921c-3.062,1.948-4.59,4.816-4.59,8.597
		c0,0.78,0.11,1.671,0.334,2.671c0.22,1.004,0.722,2.033,1.502,3.09c0.776,1.057,2.003,2.116,3.674,3.173
		c1.667,1.057,3.895,2.085,6.675,3.087l14.191,4.84c6.012,2.117,10.573,4.9,13.69,8.35c3.114,3.448,4.675,7.848,4.675,13.186
		c0,3.675-0.81,6.989-2.422,9.935c-1.615,2.951-3.729,5.456-6.345,7.513c-2.616,2.062-5.649,3.647-9.096,4.758
		c-3.455,1.113-7.012,1.67-10.686,1.67c-2.004,0-4.173-0.224-6.51-0.667c-2.337-0.446-4.59-0.978-6.762-1.586
		c-2.169-0.612-4.147-1.14-5.924-1.586c-1.784-0.443-3.172-0.669-4.175-0.669c-0.891,0-1.532,0.167-1.92,0.501
		c-0.392,0.332-0.751,0.948-1.085,1.836h-2.337v-24.205H407.652z"/>
</g>
<g>
	<path d="M223.533,145.608v118.028h11.184v2.337h-42.737v-2.337h11.185V147.946h-11.185v-2.337H223.533z"/>
	<path d="M316.432,267.478c-2.949,0.443-5.704,0.667-8.264,0.667c-5.675,0-9.876-1-12.602-3.004
		c-2.729-2.004-4.426-4.785-5.095-8.348h-0.334c-1.78,4.454-4.228,7.458-7.342,9.015c-3.121,1.557-7.627,2.337-13.524,2.337
		c-2.671,0-5.4-0.278-8.181-0.835c-2.78-0.558-5.341-1.443-7.678-2.67c-2.338-1.224-4.231-2.923-5.675-5.094
		c-1.447-2.168-2.172-4.812-2.172-7.931c0-3.224,0.639-5.924,1.921-8.094c1.279-2.171,2.948-4.008,5.008-5.508
		c2.059-1.504,4.395-2.728,7.012-3.675c2.614-0.945,5.314-1.863,8.098-2.755c4.561-1.335,8.261-2.475,11.1-3.422
		c2.839-0.943,5.034-1.945,6.594-3.006c1.557-1.057,2.642-2.254,3.257-3.588c0.608-1.337,0.916-3.061,0.916-5.177v-10.184
		c0-3.005-0.726-5.729-2.169-8.181c-1.447-2.443-4.173-3.671-8.181-3.671c-2.561,0-4.788,0.585-6.678,1.751
		c-1.894,1.17-2.839,3.314-2.839,6.43c0,0.334,0.056,0.916,0.168,1.752c0.107,0.834,0.224,1.754,0.334,2.754
		c0.11,1.002,0.223,1.949,0.334,2.84c0.109,0.891,0.167,1.501,0.167,1.834c0,1.672-0.392,2.982-1.168,3.924
		c-0.78,0.949-1.7,1.646-2.755,2.086c-1.059,0.447-2.17,0.698-3.337,0.753c-1.168,0.056-2.145,0.083-2.923,0.083
		c-1.114,0-2.253-0.083-3.422-0.251c-1.169-0.165-2.2-0.557-3.088-1.169c-0.893-0.607-1.644-1.473-2.252-2.586
		c-0.615-1.111-0.919-2.615-0.919-4.508c0-2.893,0.806-5.48,2.421-7.761c1.612-2.282,3.755-4.177,6.426-5.679
		c2.671-1.502,5.702-2.641,9.099-3.421c3.393-0.777,6.928-1.171,10.599-1.171c4.231,0,8.207,0.336,11.939,1.002
		c3.726,0.668,6.953,1.895,9.682,3.675c2.726,1.78,4.895,4.201,6.51,7.261c1.612,3.062,2.421,6.928,2.421,11.604v41.401
		c0,2.113,0.305,3.98,0.917,5.593c0.612,1.613,2.143,2.419,4.594,2.419c1.443,0,2.641-0.274,3.59-0.834
		c0.942-0.556,1.861-1.335,2.754-2.337l1.502,1.505C321.631,265.641,319.378,267.031,316.432,267.478z M289.136,224.572
		c-0.223,0.667-0.641,1.31-1.253,1.92c-0.612,0.614-1.696,1.31-3.253,2.088c-2.117,1-4.231,1.976-6.345,2.922
		c-2.114,0.945-4.008,2.144-5.675,3.588c-1.67,1.446-3.033,3.229-4.092,5.342c-1.059,2.117-1.586,4.843-1.586,8.181
		c0,1.336,0.084,2.895,0.252,4.674c0.165,1.784,0.608,3.507,1.333,5.177c0.722,1.67,1.81,3.087,3.256,4.256
		c1.444,1.169,3.448,1.751,6.012,1.751c1.444,0,2.861-0.332,4.253-0.999c1.392-0.668,2.642-1.696,3.758-3.09
		c1.111-1.39,2.004-3.226,2.67-5.509c0.667-2.279,1.001-5.033,1.001-8.265v-22.035H289.136z"/>
	<path d="M334.877,241.769c1.337,3.117,2.697,6.121,4.092,9.013c1.389,2.896,3.03,5.457,4.924,7.682
		c1.89,2.227,4.172,4.034,6.843,5.425c2.671,1.392,5.954,2.086,9.851,2.086c1.003,0,2.337-0.053,4.007-0.166
		c1.667-0.111,3.309-0.584,4.924-1.418c1.612-0.836,3.004-2.114,4.173-3.839c1.168-1.726,1.754-4.201,1.754-7.43
		c0-1.002-0.142-2.03-0.417-3.089c-0.278-1.058-0.864-2.143-1.754-3.256c-0.891-1.11-2.198-2.195-3.92-3.255
		c-1.729-1.058-4.092-2.142-7.1-3.256l-13.521-5.008c-1.557-0.556-3.227-1.308-5.008-2.255c-1.78-0.942-3.422-2.196-4.924-3.756
		c-1.501-1.557-2.754-3.423-3.755-5.593c-1.003-2.17-1.505-4.758-1.505-7.762c0-3.229,0.67-6.287,2.004-9.184
		c1.337-2.894,3.199-5.425,5.594-7.594c2.392-2.172,5.286-3.897,8.679-5.176c3.396-1.279,7.099-1.922,11.103-1.922
		c2.114,0,4.092,0.225,5.928,0.668c1.835,0.447,3.506,0.92,5.008,1.42c1.501,0.5,2.835,0.977,4.007,1.42
		c1.169,0.445,2.085,0.666,2.755,0.666c1.221,0,2.004-0.221,2.337-0.666c0.333-0.443,0.609-0.945,0.836-1.502h2.334v20.364h-2.169
		c-1.113-2.671-2.253-5.228-3.421-7.679c-1.168-2.446-2.564-4.59-4.173-6.428c-1.615-1.836-3.589-3.281-5.927-4.338
		s-5.234-1.587-8.682-1.587c-3.671,0-7.041,0.975-10.1,2.921c-3.062,1.948-4.59,4.816-4.59,8.597c0,0.78,0.109,1.671,0.333,2.671
		c0.22,1.004,0.722,2.033,1.502,3.09c0.776,1.057,2.004,2.116,3.674,3.173c1.667,1.057,3.894,2.085,6.675,3.087l14.192,4.84
		c6.008,2.117,10.572,4.9,13.69,8.35c3.114,3.448,4.674,7.848,4.674,13.186c0,3.675-0.809,6.989-2.421,9.935
		c-1.616,2.951-3.729,5.456-6.341,7.513c-2.619,2.062-5.652,3.647-9.1,4.758c-3.451,1.113-7.012,1.67-10.687,1.67
		c-2.003,0-4.173-0.224-6.51-0.667c-2.338-0.446-4.59-0.978-6.762-1.586c-2.169-0.612-4.147-1.14-5.924-1.586
		c-1.784-0.443-3.172-0.669-4.173-0.669c-0.894,0-1.534,0.167-1.923,0.501c-0.392,0.332-0.75,0.948-1.084,1.836h-2.337v-24.205
		H334.877z"/>
	<path d="M405.995,241.769c1.337,3.117,2.697,6.121,4.088,9.013c1.393,2.896,3.034,5.457,4.927,7.682
		c1.891,2.227,4.172,4.034,6.843,5.425c2.671,1.392,5.953,2.086,9.851,2.086c1,0,2.337-0.053,4.007-0.166
		c1.667-0.111,3.308-0.584,4.924-1.418c1.612-0.836,3.004-2.114,4.172-3.839c1.169-1.726,1.755-4.201,1.755-7.43
		c0-1.002-0.142-2.03-0.418-3.089c-0.278-1.058-0.864-2.143-1.754-3.256c-0.89-1.11-2.198-2.195-3.923-3.255
		c-1.726-1.058-4.088-2.142-7.093-3.256l-13.525-5.008c-1.56-0.556-3.227-1.308-5.008-2.255c-1.78-0.942-3.421-2.196-4.924-3.756
		c-1.501-1.557-2.754-3.423-3.755-5.593c-1.003-2.17-1.505-4.758-1.505-7.762c0-3.229,0.67-6.287,2.004-9.184
		c1.337-2.894,3.199-5.425,5.594-7.594c2.392-2.172,5.283-3.897,8.678-5.176c3.396-1.279,7.096-1.922,11.104-1.922
		c2.114,0,4.092,0.225,5.928,0.668c1.835,0.447,3.506,0.92,5.008,1.42c1.501,0.5,2.839,0.977,4.004,1.42
		c1.171,0.445,2.088,0.666,2.758,0.666c1.224,0,2.004-0.221,2.337-0.666c0.331-0.443,0.609-0.945,0.832-1.502h2.338v20.364h-2.169
		c-1.113-2.671-2.253-5.228-3.421-7.679c-1.169-2.446-2.564-4.59-4.173-6.428c-1.615-1.836-3.589-3.281-5.927-4.338
		c-2.337-1.057-5.231-1.587-8.682-1.587c-3.671,0-7.041,0.975-10.1,2.921c-3.062,1.948-4.59,4.816-4.59,8.597
		c0,0.78,0.109,1.671,0.333,2.671c0.221,1.004,0.723,2.033,1.503,3.09c0.776,1.057,2.003,2.116,3.674,3.173
		c1.667,1.057,3.894,2.085,6.675,3.087l14.192,4.84c6.011,2.117,10.572,4.9,13.69,8.35c3.114,3.448,4.674,7.848,4.674,13.186
		c0,3.675-0.809,6.989-2.421,9.935c-1.615,2.951-3.729,5.456-6.344,7.513c-2.616,2.062-5.649,3.647-9.097,4.758
		c-3.454,1.113-7.012,1.67-10.686,1.67c-2.003,0-4.173-0.224-6.51-0.667c-2.338-0.446-4.59-0.978-6.762-1.586
		c-2.169-0.612-4.147-1.14-5.924-1.586c-1.784-0.443-3.172-0.669-4.176-0.669c-0.891,0-1.531,0.167-1.92,0.501
		c-0.392,0.332-0.751,0.948-1.084,1.836h-2.337v-24.205H405.995z"/>
</g>
<line fill="#FFFFFF" stroke="#999999" stroke-width="2" stroke-miterlimit="10" x1="124.437" y1="0" x2="124.437" y2="137"/>
<line fill="#FFFFFF" stroke="#000000" stroke-width="2" stroke-miterlimit="10" x1="126.437" y1="1" x2="126.437" y2="135"/>
<circle fill="none" stroke="#999999" stroke-width="1.5" stroke-miterlimit="10" cx="125.015" cy="141.551" r="4.691"/>
<path fill="#999999" d="M180.583,181.747c-1.328-3.639-2.906-7.462-4.741-11.476c-1.837-4.014-4.165-7.677-6.983-10.997
	c-2.823-3.317-6.292-6.006-10.411-8.062c-4.123-2.058-9.186-3.002-15.193-2.838c-8.123,0.226-14.477,1.902-19.064,5.036
	c-4.592,3.132-8.008,7.402-10.254,12.808c-2.246,5.408-3.598,11.817-4.061,19.233c-0.463,7.42-0.575,15.521-0.331,24.309
	c0.318,11.573,1.25,21.12,2.794,28.649c1.544,7.528,3.797,13.479,6.756,17.849c2.958,4.373,6.717,7.389,11.27,9.045
	c4.557,1.654,9.946,2.395,16.179,2.223c5.006-0.139,9.51-1.265,13.517-3.379c4.005-2.115,7.521-4.857,10.546-8.224
	c3.023-3.369,5.534-7.192,7.534-11.48c1.994-4.284,3.43-8.724,4.309-13.313l2.669-0.072l0.976,35.377l-2.671,0.072
	c-0.595-1.318-1.286-2.217-2.078-2.698c-0.793-0.477-1.968-0.695-3.525-0.651c-1.337,0.037-3.052,0.39-5.147,1.06
	c-2.098,0.669-4.5,1.405-7.202,2.201c-2.71,0.797-5.665,1.549-8.874,2.251c-3.213,0.699-6.597,1.102-10.155,1.198
	c-8.122,0.225-16.011-1.144-23.664-4.106c-7.652-2.961-14.417-7.118-20.3-12.466c-5.883-5.35-10.65-11.702-14.304-19.061
	c-3.656-7.358-5.602-15.377-5.841-24.057c-0.262-9.452,1.421-18.075,5.046-25.855c3.628-7.784,8.371-14.484,14.226-20.101
	c5.858-5.615,12.442-10.001,19.761-13.154c7.316-3.152,14.535-4.827,21.657-5.026c3.558-0.097,6.876,0.146,9.956,0.728
	c3.077,0.584,5.935,1.201,8.57,1.852c2.631,0.65,5.015,1.278,7.147,1.89c2.132,0.609,3.92,0.894,5.37,0.853
	c1.554-0.043,2.716-0.269,3.486-0.679c0.768-0.412,1.296-1.399,1.586-2.969l2.674-0.073l0.939,34.045L180.583,181.747z"/>
<path d="M178.882,180.138c-1.329-3.64-2.907-7.464-4.741-11.476c-1.839-4.014-4.167-7.677-6.983-10.997
	c-2.824-3.319-6.293-6.008-10.412-8.063c-4.123-2.058-9.186-3.001-15.192-2.836c-8.124,0.225-14.479,1.898-19.065,5.033
	c-4.592,3.134-8.009,7.401-10.252,12.807c-2.249,5.409-3.6,11.819-4.063,19.235c-0.464,7.42-0.573,15.521-0.33,24.311
	c0.317,11.57,1.25,21.118,2.793,28.646c1.545,7.53,3.797,13.481,6.757,17.851c2.96,4.372,6.716,7.388,11.271,9.041
	c4.555,1.656,9.944,2.397,16.179,2.226c5.005-0.138,9.507-1.267,13.515-3.377c4.004-2.116,7.521-4.859,10.546-8.227
	c3.022-3.366,5.532-7.194,7.533-11.48c1.994-4.286,3.432-8.723,4.309-13.312l2.667-0.072l0.978,35.378l-2.669,0.073
	c-0.597-1.321-1.29-2.22-2.08-2.697c-0.793-0.48-1.968-0.698-3.525-0.656c-1.336,0.037-3.053,0.394-5.147,1.063
	c-2.097,0.67-4.499,1.403-7.203,2.199c-2.709,0.798-5.665,1.55-8.873,2.249c-3.211,0.702-6.597,1.103-10.155,1.2
	c-8.122,0.226-16.01-1.144-23.662-4.105c-7.654-2.964-14.42-7.119-20.302-12.465c-5.881-5.351-10.65-11.706-14.303-19.062
	c-3.656-7.359-5.602-15.377-5.841-24.055c-0.262-9.455,1.421-18.076,5.047-25.858c3.628-7.783,8.369-14.483,14.226-20.099
	c5.858-5.616,12.442-10.003,19.761-13.158c7.316-3.151,14.535-4.826,21.657-5.022c3.557-0.099,6.877,0.143,9.957,0.729
	c3.075,0.581,5.934,1.198,8.568,1.848c2.633,0.654,5.017,1.281,7.149,1.892c2.132,0.607,3.92,0.892,5.369,0.852
	c1.557-0.042,2.717-0.267,3.488-0.68c0.767-0.409,1.297-1.398,1.586-2.968l2.674-0.072l0.938,34.044L178.882,180.138z"/>
<circle fill="#FFFFFF" stroke="#000000" stroke-width="2" stroke-miterlimit="10" cx="126.672" cy="141.551" r="4.691"/>
<path fill="none" stroke="#999999" stroke-width="2" stroke-miterlimit="10" d="M0,287.493"/>
<path fill="none" stroke="#000000" stroke-width="2" stroke-miterlimit="10" d="M1.664,287.493"/>
<path d="M183.005,333.361c-1.315-3.56-2.877-7.304-4.69-11.228c-1.817-3.924-4.121-7.507-6.908-10.756
	c-2.791-3.241-6.222-5.876-10.301-7.889c-4.075-2.011-9.083-2.935-15.025-2.77c-8.036,0.217-14.323,1.856-18.86,4.923
	c-4.543,3.062-7.926,7.241-10.146,12.524c-2.221,5.292-3.556,11.561-4.015,18.819c-0.458,7.256-0.568,15.186-0.329,23.781
	c0.316,11.319,1.237,20.657,2.765,28.022c1.529,7.366,3.757,13.188,6.682,17.46c2.93,4.284,6.647,7.227,11.152,8.85
	c4.509,1.616,9.839,2.341,16.005,2.173c4.949-0.134,9.403-1.239,13.37-3.304c3.963-2.066,7.44-4.754,10.432-8.045
	c2.989-3.29,5.476-7.038,7.457-11.232c1.969-4.188,3.39-8.533,4.261-13.022l2.638-0.072l0.966,34.609l-2.644,0.071
	c-0.586-1.289-1.273-2.167-2.051-2.636c-0.787-0.473-1.95-0.682-3.492-0.641c-1.323,0.034-3.018,0.383-5.091,1.036
	c-2.075,0.653-4.447,1.372-7.125,2.152c-2.682,0.779-5.602,1.512-8.778,2.2c-3.177,0.684-6.522,1.079-10.041,1.176
	c-8.038,0.221-15.843-1.119-23.415-4.02c-7.57-2.896-14.261-6.965-20.081-12.196c-5.819-5.23-10.536-11.441-14.15-18.645
	c-3.618-7.2-5.54-15.046-5.776-23.532c-0.261-9.247,1.403-17.679,4.992-25.291c3.587-7.614,8.274-14.174,14.073-19.665
	c5.793-5.492,12.305-9.785,19.548-12.865c7.237-3.083,14.379-4.723,21.423-4.922c3.519-0.091,6.8,0.145,9.85,0.712
	c3.046,0.576,5.872,1.181,8.478,1.814c2.604,0.636,4.96,1.248,7.072,1.848c2.105,0.599,3.877,0.876,5.314,0.835
	c1.535-0.04,2.685-0.259,3.445-0.664c0.762-0.401,1.285-1.368,1.571-2.905l2.643-0.071l0.93,33.305L183.005,333.361z"/>
<path fill="#999999" d="M181.323,331.787c-1.314-3.56-2.876-7.302-4.695-11.229c-1.817-3.925-4.118-7.507-6.907-10.752
	c-2.793-3.25-6.221-5.886-10.3-7.889c-4.077-2.018-9.086-2.941-15.028-2.776c-8.035,0.219-14.32,1.858-18.858,4.927
	c-4.543,3.062-7.926,7.239-10.144,12.525c-2.223,5.29-3.561,11.563-4.018,18.815c-0.46,7.262-0.566,15.183-0.327,23.783
	c0.313,11.316,1.237,20.657,2.765,28.02c1.528,7.364,3.755,13.188,6.684,17.466c2.928,4.278,6.643,7.227,11.152,8.843
	c4.505,1.623,9.835,2.349,16.003,2.177c4.951-0.133,9.406-1.239,13.37-3.304c3.959-2.07,7.441-4.754,10.436-8.046
	c2.986-3.3,5.472-7.039,7.449-11.228c1.974-4.194,3.394-8.537,4.265-13.025l2.639-0.072l0.966,34.608l-2.644,0.075
	c-0.589-1.297-1.275-2.178-2.055-2.644c-0.782-0.469-1.949-0.681-3.49-0.64c-1.317,0.035-3.018,0.384-5.09,1.039
	c-2.078,0.657-4.446,1.372-7.125,2.152c-2.682,0.782-5.605,1.517-8.779,2.198c-3.175,0.687-6.525,1.081-10.044,1.172
	c-8.037,0.223-15.838-1.116-23.411-4.016c-7.571-2.897-14.264-6.963-20.08-12.189c-5.82-5.233-10.537-11.45-14.154-18.649
	c-3.612-7.202-5.54-15.042-5.776-23.528c-0.259-9.252,1.408-17.687,4.993-25.298c3.59-7.612,8.276-14.171,14.073-19.659
	c5.795-5.496,12.311-9.784,19.549-12.879c7.235-3.08,14.378-4.717,21.422-4.909c3.519-0.091,6.806,0.142,9.852,0.712
	c3.044,0.571,5.871,1.176,8.479,1.81c2.603,0.639,4.959,1.255,7.069,1.848c2.107,0.599,3.876,0.876,5.311,0.841
	c1.541-0.046,2.688-0.264,3.45-0.671c0.763-0.396,1.282-1.367,1.573-2.902l2.643-0.07l0.932,33.307L181.323,331.787z"/>
</svg>
