<?xml version="1.0" encoding="utf-8"?>
<!-- Generator: Adobe Illustrator 16.0.0, SVG Export Plug-In . SVG Version: 6.00 Build 0)  -->
<!DOCTYPE svg PUBLIC "-//W3C//DTD SVG 1.1//EN" "http://www.w3.org/Graphics/SVG/1.1/DTD/svg11.dtd">
<svg version="1.1" id="Layer_1" xmlns="http://www.w3.org/2000/svg" xmlns:xlink="http://www.w3.org/1999/xlink" x="0px" y="0px"
	 width="600px" height="600px" viewBox="0 0 600 600" enable-background="new 0 0 600 600" xml:space="preserve">
<g>
	<path fill-rule="evenodd" clip-rule="evenodd" d="M245.233,427.328c-5.403,3.802-10.771,5.773-16.497,0.41
		c-1.98-1.854-4.399,0.509-6.936-0.101c-3.139-0.755-3.058,2.631-3.4,5.121c-0.419,3.048-2.951,4.496-5.684,4.083
		c-3.574-0.542-4.354,1.459-4.975,4.062c-1.16,4.866-4.021,9.16-4.433,14.344c-0.167,2.107-2.182,3.527-4.774,3.357
		c-4.137-0.272-7.415,0.831-9.556,4.948c-1.442,2.775-6.215,2.752-8.343,0.067c-2.378-2.999-4.824-3.23-8.082-1.64
		c-4.07,1.987-7.518-0.167-8.278-4.7c-0.564-3.361-2.744-5.715-5.888-6.707c-2.403-0.759-3.428-2.332-4.11-4.422
		c-0.471-1.442,1.291-3.124-0.114-4.335c-1.093-0.942-1.568-2.18-2.496-3.457c-3.879,3.035-3.375,7.096-2.163,10.778
		c1.514,4.597,2.396,9.139,1.836,13.933c-0.338,2.892-1.365,5.853-4.583,5.919c-3.289,0.067-4.303-2.948-4.651-5.801
		c-0.526-4.302-0.384-8.718,1.402-12.613c1.963-4.283,0.925-7.863-0.611-11.864c-2.125-5.532-1.146-11.18,1.186-16.43
		c1.637-3.686,0.721-7.13-0.052-10.618c-0.255-1.152-1.319-2.48-0.698-3.45c4.596-7.188,1.495-14.191-0.245-21.252
		c-1.401-5.686-1.751-11.501-1.465-17.301c0.171-3.45-0.55-5.592-4.659-5.656c-0.086,2.223-0.943,4.244-2.806,5.743
		c-1.754,1.413-0.15,2.771,0.225,4.033c1.48,5.002,3.229,9.958,0.948,15.166c-0.797,1.82-1.566,3.679-4.161,3.559
		c-2.496-0.115-3.214-1.803-3.972-3.748c-2.05-5.263-0.444-10.187,1.213-15.115c0.571-1.699,1.388-3.016-0.773-4.606
		c-2.565-1.888-2.398-4.718-0.611-7.342c0.537-0.789,2.199-1.35,1.075-2.532c-1.221-1.284-2.713-2.556-4.334-3.12
		c-0.896-0.312-2.416,0.729-1.017,2.372c3.18,3.737,2.082,6.868-1.847,8.93c-1.996,1.047-0.808,1.867-0.459,2.833
		c1.679,4.659,2.505,9.394,1.681,14.355c-0.458,2.761-1.355,5.298-4.575,5.309c-3.305,0.011-4.22-2.92-4.617-5.409
		c-0.784-4.918-0.042-9.778,2.23-14.26c0.833-1.641,1.084-2.739-0.269-4.349c-2.558-3.044-1.866-6.024,1.337-8.182
		c2.666-1.795,2.856-4.412,2.182-6.877c-0.529-1.935-2.691-3.447-0.54-5.665c1.885-1.942,4.866-3.175,6.58-1.964
		c5.269,3.722,10.044-2.566,15.101-0.108c1.143,0.555,0.945-1.211,0.954-1.92c0.109-9.477,0.175-18.953,0.189-28.43
		c0.005-3.64-0.739-7.305,1.137-10.79c0.749-1.394,0.343-2.929-0.403-4.394c-5.613-11.013-4.118-22.278-0.505-33.335
		c1.998-6.115,5.016-11.922,8.627-17.793c5.065,14.45,9.079,28.555,7.128,43.64c-0.347,2.682-1.924,4.815-3.223,7.017
		c-1.071,1.818-1.426,3.135,0.117,4.883c1.088,1.232,1.447,2.892,1.42,4.695c-0.169,11.426-0.198,22.854-0.298,34.28
		c-0.018,2.022,0.098,3.345,2.799,2.152c3.255-1.438,5.942,0.621,8.968,1.564c2.468,0.771,5.342-2.92,8.847-2.017
		c4.618,1.19,5.669,4.097,2.746,7.832c-0.592,0.756-2.382,1.243-1.036,2.879c0.903,1.099,1.762,1.498,3.138,0.895
		c0.82-0.359,1.986-0.821,2.65-0.507c4.705,2.232,9.092,0.534,13.634-0.604c2.697-0.676,4.366-2.938,2.776-5.239
		c-1.452-2.101-1.84-3.678,0.188-5.542c1.273-1.171,0.767-2.884,0.778-4.37c0.047-6.125,0.124-12.253-0.015-18.375
		c-0.072-3.184,0.476-6.053,2.517-8.55c-0.431-2.174-0.937-4.324-1.954-6.312c1.477-1.818,1.036-3.879,0.689-5.776
		c-0.112,1.559,0.983,3.336-0.248,4.981c-1.082,1.021-1.457-0.009-1.96-0.668c-4.78-17.041,1.668-31.598,10.25-46.602
		c3.903,14.761,10.126,28.386,6.42,43.33c-1.597,6.441-3.235,12.363-1.451,19.296c1.4,5.44,0.57,11.588,0.027,17.355
		c-0.467,4.956,3.41,3.47,5.365,3.888c2.867,0.613,1.62-2.196,1.649-3.479c0.235-10.387-0.068-20.803,0.596-31.159
		c0.371-5.793,0.078-11.064-1.672-16.737c-3.591-11.635-0.792-22.949,4.233-33.733c1.787-3.834,3.816-7.556,6.179-12.203
		c3.121,12.475,7.683,23.568,7.625,35.772c5.225-3.166,6.035-5.015,4.312-10.229c-0.738-2.234,0.016-4.043,1.521-5.397
		c2.923-2.627,3.923-5.182,1.427-8.786c-1.636-2.363-0.59-4.909,1.567-6.456c3.405-2.441,3.513-5.262,1.733-8.6
		c-1.481-2.776-0.695-5.227,1.651-6.85c3.191-2.207,3.987-4.781,2.526-8.292c-0.891-2.141-0.629-4.278,0.987-5.982
		c2.529-2.667,2.767-5.342,0.734-8.427c-1.363-2.068-1.587-4.644,0.116-6.411c2.994-3.106,3.379-5.97,0.974-9.593
		c-1.51-2.275-1.007-4.856,1.051-6.676c2.839-2.51,2.921-4.808,0.692-7.874c-1.866-2.568-1.762-5.39,1.058-7.663
		c2.668-2.15,2.854-4.717,1.338-7.775c-1.039-2.096-1.318-4.632,0.616-6.41c3.12-2.868,2.996-5.675,0.827-9.013
		c-1.284-1.977-0.809-4.097,0.712-5.949c2.286-2.785,2.516-5.48-0.249-8.19c-1.864-1.827-2.351-4.518-0.806-6.296
		c3.259-3.751,3.62-7.538,2.431-12.166c-0.981-3.813,2.237-5.69,5.02-7.328c1.15-0.677,2.601-1.207,3.909-1.192
		c7.959,0.084,15.928,0.167,23.868,0.667c2.086,0.131,3.388,0.449,2.983-2.081c-1.66-10.364-0.914-20.876-2.09-31.305
		c-0.775-6.875-1.671-13.948,1.381-21.101c1.999-4.684,1.292-10.681,0.196-15.863c-1.454-6.875-0.675-13.674-0.675-20.502
		c0.001-2.648,2.046-3.932,4.495-4.468c2.371-0.519,4.271,0.349,5.559,2.275c0.654,0.979,1.279,2.292,1.195,3.399
		c-0.862,11.33,3.324,22.653,1.182,33.712c-1.372,7.084-2.911,14.145-1.898,21.055c1.523,10.381,0.365,20.904,2.46,31.188
		c0.185,0.909,0.144,2.183,1.213,2.164c4.381-0.077,8.314,3.251,12.942,1.449c3.945-1.537,7.889-0.424,11.612,0.976
		c2.284,0.859,4.957,2.479,4.753,5.052c-0.278,3.506,1.971,6.146,2.118,9.373c0.062,1.317,1.252,1.588,2.11,2.15
		c3.051,2,3.182,4.878,1.582,7.573c-2.061,3.468-2.311,6.354,0.707,9.362c1.846,1.841,2.035,4.111,0.267,6.206
		c-2.642,3.131-2.512,6.057,0.242,9.064c1.768,1.93,1.825,4.535,0.504,6.395c-2.425,3.413-2.411,6.223,0.419,9.275
		c1.636,1.766,1.7,3.958,0.245,5.882c-2.604,3.442-1.882,6.364,0.879,9.311c1.91,2.037,2.001,4.262,0.181,6.615
		c-2.198,2.843-2.298,5.528,0.706,8.167c2.214,1.945,2.447,4.467,0.562,6.967c-2.186,2.896-2.026,5.571,0.586,8.201
		c1.725,1.735,2.588,3.879,1.207,6.236c-2.041,3.487-2.307,6.481,1.262,9.344c2.055,1.647,1.723,4.517,0.544,6.343
		c-2.282,3.538-1.69,6.21,0.996,9.074c1.753,1.87,1.749,4.183,0.407,6.383c-1.795,2.945-2,5.456,1.294,7.65
		c1.837,1.223,2.099,3.436,1.529,5.409c-1.158,4.007-1.607,7.625,2.271,10.619c1.212,0.937,1.19,2.941,0.598,4.338
		c-1.645,3.877-1.053,7.117,1.665,10.357c1.675,1.997,1.517,4.867,0.258,6.927c-1.722,2.818-0.883,5.466,0.584,7.336
		c2.102,2.686,2.633,5.43,2.546,8.559c2.9,0.687,2.361-1.565,2.454-3.035c0.267-4.239-0.349-8.507,0.356-12.737
		c1.911-3.308,1.945-6.175-0.801-9.365c-1.86-2.162-1.477-5.514-1.753-8.372c-1.016-10.493,1.132-20.571,4.381-30.453
		c0.98-2.983,2.355-5.836,2.435-9.159c7.621,11.444,12.517,23.667,12.342,37.557c-0.549,9.912-2.627,19.691-1.589,29.756
		c0.827,8.026,0.104,16.165,0.267,24.252c0.026,1.354,0.031,2.969,2.023,2.932c1.681-0.033,2.313-1.249,2.5-2.752
		c0.168-1.367,0.068-2.744,0.125-4.115c0.281-6.838-0.765-13.736,1.039-20.508c0.549-2.058-0.633-3.848-1.319-5.695
		c-2.161-5.812-3.617-11.68-1.291-17.82c1.05-10.479,4.89-20.313,7.492-31.224c4.714,8.649,9.576,16.767,11.031,26.328
		c1.399,9.188,1.404,18.275-2.986,26.882c-1.049,2.057,0.836,3.993,0.81,6.135c-0.072,5.964,0.095,11.934,0.271,17.898
		c0.101,3.41-0.818,6.961,1.928,10.005c1.07,1.187-0.035,2.747-0.668,4.205c-1.159,2.667-0.368,3.843,2.785,5.401
		c5.769,2.852,11.355-0.677,16.817,1.035c1.201,0.376,2.007-0.116,2.713-1.104c0.809-1.136-0.16-1.667-0.686-2.296
		c-1.445-1.725-3.784-3.356-1.652-5.843c2.304-2.688,5.591-3.563,8.687-1.901c2.641,1.418,4.609,1.862,7.222,0.017
		c1.774-1.254,4.123-1.014,6.149,0.046c2.232,1.167,2.638,0.035,2.631-1.905c-0.035-11.326-1.037-22.771,0.281-33.94
		c0.924-7.829-1.76-14.531-2.678-21.76c-1.278-10.076,1.208-19.734,4.159-29.235c1.038-3.342,2.374-6.56,2.462-10.291
		c4.465,5.987,7.734,12.644,9.871,19.642c3.354,10.99,4.173,22.13-1.443,32.856c-0.267,0.51-0.632,1.185-0.499,1.654
		c3.616,12.736,0.906,25.746,1.689,38.601c0.159,2.627-0.189,3.916,3.793,4.057c4.822,0.172,9.542,0.722,14.488,0.362
		c4.719-0.342,5.916,2.745,4.195,7.115c-1.021,2.597-0.549,5.305,1.851,7.14c3.303,2.526,3.884,5.496,1.209,8.59
		c-1.431,1.653-0.404,2.589,0.033,3.987c1.665,5.346,4.115,10.644,1.46,16.417c-0.804,1.747-1.589,3.363-3.789,3.433
		c-2.405,0.076-3.308-1.589-4.244-3.493c-2.343-4.762-0.81-9.462,0.565-13.871c0.979-3.147,1.229-5.144-1.903-6.792
		c-0.585-0.308-0.846-1.231-1.256-1.871c-1.467-1.769-0.564-3.706-0.001-6.405c-3.622,3.471,0.588,7.238-1.773,10.023
		c-3.276,1.99-3.202,4.475-1.818,7.807c1.579,3.805,1.986,7.948,1.051,12.115c-0.606,2.703-1.484,5.277-4.826,4.962
		c-3.164-0.299-4.022-3.147-4.327-5.648c-0.577-4.736-0.086-9.443,1.884-13.899c0.438-0.993-2.707-8.896-3.48-8.709
		c-1.865,0.453-4.271,0.198-4.053,3.555c0.652,10.021-0.915,19.712-4.135,29.282c-0.766,2.274-0.643,5.75,1.123,8.416
		c1.203,1.817,1.689,3.652,0.695,6.013c-1.444,3.435-1.406,7.239-0.209,10.75c2.149,6.3,4.081,12.254,0.264,18.877
		c-1.286,2.231-1.524,5.785-0.073,9.034c2.118,4.742,3.438,9.838,1.399,15.094c-0.805,2.074-1.841,4.162-4.42,3.926
		c-2.17-0.197-3.095-2.04-3.898-3.997c-1.899-4.624-0.694-9.164,0.636-13.455c0.897-2.893,1.523-5.466,1.217-8.548
		c-0.193-1.949-0.777-3.81-2.144-4.056c-1.635-0.293-3.069,2.11-3.126,3.279c-0.219,4.451-0.595,8.207-6.246,9.03
		c-0.387,0.057-4.166,2.853-3.854,6.547c0.31,3.688-4.263,5.981-7.81,4.235c-3.453-1.699-5.985-1.646-8.504,1.59
		c-2.203,2.833-6.626,2.464-8.594-0.711c-2.14-3.457-5.043-4.702-8.909-4.397c-3.146,0.248-5.483-1.617-5.378-4.356
		c0.214-5.542-4.106-9.503-4.429-14.828c-0.068-1.124-1.637-3.272-4.466-2.698c-3.567,0.724-5.847-1.406-5.973-5.109
		c-0.116-3.395-1.691-3.548-4.767-3.931c-3.862-0.48-6.364,0.963-9.44,2.55c-4.297,2.216-8.261,0.012-11.898-2.47
		c-1.271-0.866-2.161-2.74-4.545-1.517c3.918,3.003,3.944,5.925,0.919,9.748c-1.269,1.604-1.759,4.856,0.753,7.057
		c2.431,2.129,2.831,4.954,0.814,7.364c-2.868,3.427-3.07,6.352-0.12,9.832c1.452,1.713,1.286,4.26-0.13,6.007
		c-2.673,3.296-2.701,6.087,0.217,9.29c1.82,1.999,1.888,5.012-0.144,6.677c-2.457,2.014-1.221,3.288-0.332,5.255
		c4.08,9.033,6.851,18.28,3.694,28.299c-1.171,3.713-3.007,7.194-7.17,7.316c-4.289,0.126-6.218-3.543-7.343-7.127
		c-3.109-9.903-0.626-19.316,3.256-28.415c0.95-2.227,2.094-3.551-0.415-5.57c-1.95-1.571-2.018-4.233-0.228-6.192
		c2.958-3.237,2.977-6.059-0.094-9.283c-1.851-1.945-1.835-4.688-0.068-6.662c2.899-3.237,3.415-6.127,0.292-9.493
		c-1.77-1.906-1.837-4.275-0.035-6.226c3.12-3.379,2.569-6.282-0.293-9.571c-1.853-2.13-1.717-4.853,0.336-7.03
		c0.974-1.031,1.149-2.114,1.551-3.396c1.601-5.106-1.583-8.006-4.223-11.349c-6.13-7.764-6.12-7.829-13.757-1.585
		c-5.42,4.432-9.339,9.883-11.706,16.58c-0.954,2.702-0.189,3.512,2.104,4.188c3.972,1.17,7.759,2.799,11.043,5.367
		c4.247,3.323,7.753,7.044,5.919,13.137c-0.425,1.413,0.606,2.309,1.255,3.285c1.26,1.898,1.311,3.758-0.1,5.509
		c-2.872,3.567-3.004,6.791,0.387,10.261c1.562,1.598,1.469,4.223,0.035,5.925c-2.945,3.496-3.497,6.702-0.268,10.293
		c1.538,1.709,1.344,3.746-0.091,5.456c-2.771,3.302-2.669,6.239,0.12,9.644c1.861,2.27,1.91,5.297-0.765,7.28
		c-1.649,1.225-1.295,1.883-0.454,3.401c4.884,8.815,6.68,18.246,4.905,28.232c-0.792,4.456-4.554,8.631-7.659,8.771
		c-3.268,0.149-7.086-3.812-7.915-8.915c-1.585-9.754-0.192-19.165,4.394-27.959c0.795-1.523,1.309-2.127-0.326-3.525
		c-2.362-2.022-2.61-4.973-0.608-7.393c2.624-3.171,2.587-5.816-0.227-8.807c-2.048-2.176-2.074-4.87-0.012-7.046
		c2.949-3.113,2.722-5.917,0.15-9.105c-1.711-2.121-1.946-5.161,0.231-6.601c3.203-2.117,0.816-4.72,1.398-6.984
		c0.249-0.969-1.647-2.208-2.564-1.911c-3,0.97-5.855,2.387-8.754,3.659c-0.259,0.113-0.638,0.588-0.618,0.611
		c3.207,3.878-0.06,6.414-1.446,9.649c-0.52,1.213-1.371,4.637,1.689,6.625c2.318,1.506,2.034,4.803,0.233,7
		c-2.623,3.2-3.121,6.016-0.138,9.274c1.737,1.896,1.684,4.289,0.004,6.276c-2.636,3.121-2.616,5.946,0.061,9.092
		c1.845,2.168,2.046,5.009-0.087,6.993c-1.953,1.816-1.276,2.863-0.343,4.844c4.157,8.823,6.724,17.983,4.13,27.854
		c-0.115,0.442-0.149,0.923-0.345,1.325c-1.548,3.195-3.105,6.757-7.22,6.826c-3.904,0.066-5.524-3.259-7.014-6.32
		c-0.229-0.467-0.336-0.993-0.803-2.418c-0.821,3.555-1.141,6.307-2.114,8.801c-1.262,3.232-2.658,6.562-7.085,6.755
		c-4.351,0.189-5.525-3.175-7.17-6.036c-0.424-0.739-0.53-1.661-0.797-2.547c-9.543,6.026-14.453,2.781-15.38-10.108
		c-1.573,0.292-1.875,1.729-2.635,2.715c-3.168,4.108-7.558,3.99-10.591-0.272c-2.405-3.38-3.258-7.329-3.165-11.285
		c0.174-7.344,1.065-14.642,4.654-21.262c1.003-1.851,1.704-3.129-0.321-5.027c-2.106-1.977-2.039-4.835,0.005-7.033
		c2.628-2.826,2.442-5.414-0.061-8.061c-2.558-2.703-2.609-5.413,0.027-8.02c2.682-2.653,2.526-5.309,0.237-8.023
		c-2.081-2.467-2.311-5.163-0.202-7.467c2.813-3.07,2.157-5.695-0.241-8.418c-2.248-2.554-2.633-5.19-0.138-7.729
		c1.394-1.418,1.11-2.278-0.006-3.81c-4.44-6.092-3.736-10.92,1.91-16.032c3.23-2.925,7.038-4.935,11.078-6.211
		c2.688-0.849,3.048-2.242,2.308-4.321c-3.375-9.476-9.651-16.476-18.407-21.362c-1.621-0.903-2.453-0.333-3.397,0.924
		c-2.568,3.42-5.555,6.579-7.718,10.229c-1.68,2.835-0.985,6.547,0.856,8.924c2.602,3.358,2.535,5.619-0.205,8.756
		c-1.905,2.18-2.692,5.094-0.044,7.793c2.274,2.317,2.183,4.968,0.174,7.424c-2.41,2.947-2.574,5.671,0.251,8.446
		c2.552,2.508,2.434,5.164-0.026,7.635c-2.674,2.686-2.669,5.318-0.287,8.151c2.065,2.458,2.303,5.254-0.079,7.381
		c-1.977,1.765-1.023,2.911-0.262,4.597c3.826,8.476,6.107,17.237,4.158,26.616c-0.306,1.476-0.891,2.915-1.505,4.3
		c-1.239,2.798-3.189,5.097-6.398,5.156c-3.297,0.062-5.29-2.386-6.384-5.154c-4.254-10.765-1.674-20.998,3.011-30.896
		c0.929-1.961,1.654-3.121-0.399-4.833c-1.91-1.591-2.57-4.004-0.687-6.118c3.175-3.565,3.33-6.916,0.26-10.661
		c-1.245-1.52-0.98-3.693,0.254-5.178c2.919-3.51,2.864-6.658-0.238-10.032c-1.744-1.896-1.956-4.271,0.026-6.194
		c3.371-3.27,3.134-6.382,0.337-9.897c-1.449-1.821-1.042-4.06,0-6.098c0.291-0.317,0.475-0.752,0.129-1.032
		C246.354,426.539,245.735,426.74,245.233,427.328z"/>
	<path fill-rule="evenodd" clip-rule="evenodd" fill="#FDFDFD" d="M389.199,287.614c0.08,7.342,0.112,14.69,4.387,21.171
		c0.306,0.463,0.636,1.275,0.437,1.652c-4.373,8.282-0.979,17.131-1.871,25.662c-0.255,2.44-0.097,3.65-3.453,4.179
		c-4.256,0.669-4.4-0.664-4.345-4c0.178-10.842,1.233-21.841-0.225-32.481c-1.119-8.167,4.09-14.603,3.314-22.231
		c0.019,2.084-0.267,4.232,0.143,6.238C387.97,289.684,388.621,287.591,389.199,287.614z"/>
	<path fill-rule="evenodd" clip-rule="evenodd" fill="#F1F1F1" d="M480.214,367.51c0.358-2.298,0.624-4.629-1.418-6.325
		c-1.335-1.108-1.265-2.201,0.112-2.812c1.515-0.673,2.504-3.338,4.35-2.121c2.426,1.601-0.855,2.581-0.978,4.007
		c-0.104,1.211-0.194,2.422-0.292,3.634C480.753,364.781,481.852,366.816,480.214,367.51z"/>
	<path fill-rule="evenodd" clip-rule="evenodd" fill="#BEBEBE" d="M370.841,301.354c-0.034,5.249-0.051,10.498-0.124,15.748
		c-0.012,0.798,0.431,2.087-0.829,2.178c-1.225,0.089-1.678-1.045-1.857-2.153c2.274-1.047,1.95-3.108,2.08-5.07
		C370.347,308.489,369.211,304.823,370.841,301.354z"/>
	<path fill-rule="evenodd" clip-rule="evenodd" fill="#0D0D0D" d="M200.97,304.14c2.497,1.803,1.881,4.386,1.719,6.857
		c-0.919-2.696-3.362-4.715-3.473-7.773c0.586,0.307,1.173,0.613,1.759,0.921L200.97,304.14z"/>
	<path fill-rule="evenodd" clip-rule="evenodd" fill="#C0C0C0" d="M245.233,427.328c0.831-1.212,1.662-2.425,2.82-4.115
		c1.385,3.178-0.364,3.807-1.208,4.863C246.308,427.827,245.771,427.578,245.233,427.328z"/>
	<path fill-rule="evenodd" clip-rule="evenodd" fill="#FEFEFE" d="M337.646,128.185c0.043,3.098,0.932,4.879,2.556,6.767
		c1.482,1.723,2.705,4.49,0.184,6.918c-2.367,2.28-2.465,5.071-0.368,7.375c2.855,3.137,2.81,5.967,0.267,9.116
		c-2.047,2.535-1.314,4.973,0.818,6.916c2.733,2.49,2.952,4.643,0.424,7.543c-2.296,2.635-2.122,5.69,0.678,8.085
		c2.818,2.412,2.499,4.847,0.461,7.467c-1.85,2.379-1.84,4.926-0.016,7.138c2.44,2.959,3.213,5.596,0.632,9.001
		c-1.637,2.16-1.026,4.695,1.03,6.619c2.554,2.389,3.399,4.786,0.862,7.861c-2.143,2.596-1.935,5.397,0.667,7.674
		c2.606,2.28,3.535,4.683,1.25,7.7c-2.01,2.656-1.685,5.302,0.737,7.316c3.021,2.514,2.869,5.049,0.705,7.806
		c-2.086,2.656-1.782,5.045,0.481,7.344c2.358,2.394,3.479,4.704,1.387,8.139c-1.46,2.398-1.417,5.383,1.648,7.162
		c3.093,1.795,3.923,3.686,1.418,6.911c-2.057,2.647-2.055,5.648,1.286,7.838c3.146,2.063,3.694,4.772,1.484,7.865
		c-1.786,2.502-1.905,5.301,0.473,6.951c3.711,2.574,2.794,5.62,1.64,8.657c-1.768,4.654-1.351,6.021,3.179,8.167
		c2.51,1.189,4.001,3.194,3.65,6.051c-0.29,2.373,0.424,4.146,2.31,5.513c2.71,1.962,4.353,7.243,3.307,10.105
		c-0.626,1.711-1.815,0.943-2.578,0.608c-3.146-1.382-6.041-0.963-8.537,1.198c-1.395,1.208-2.076,0.368-3.074-0.335
		c-2.719-1.917-5.67-2.245-8.616-0.691c-2.748,1.448-4.012,3.817-1.515,6.255c3.408,3.325,1.21,6.507-0.416,8.898
		c-2.113,3.108-2.919,5.583-0.347,8.515c0.578,0.657,0.924,1.287,0.484,2.002c-0.708,1.149-1.4,0.205-2.241-0.017
		c-3.691-0.974-5.487-2.491-3.58-6.67c1.024-2.241-0.102-4.681-2.378-5.868c-2.913-1.518-4.403-3.249-3.006-6.723
		c0.62-1.539,0.175-3.266-1.23-4.582c-2.64-2.475-2.278-5.447-0.477-7.991c2.21-3.12,1.821-5.528-0.757-8.065
		c-1.957-1.925-2.176-4.316-0.24-6.252c3.164-3.163,1.679-5.86-0.571-8.388c-2.436-2.736-3.23-5.039-0.148-7.995
		c1.969-1.887,1.628-4.54-0.113-6.623c-2.24-2.682-2.298-5.335-0.447-8.156c1.66-2.53,1.402-4.688-0.722-6.968
		c-2.085-2.235-2.16-4.745,0.181-7.095c1.936-1.942,2.739-4.318,0.784-6.55c-3.063-3.497-2.973-6.693-0.134-10.239
		c1.347-1.682,1.347-3.941-0.096-5.544c-3.061-3.403-3.194-6.525-0.291-10.136c1.551-1.929,1.464-4.501-0.316-6.341
		c-3-3.102-2.24-5.889-0.027-8.953c1.589-2.2,1.639-4.762-0.19-6.77c-2.882-3.163-2.218-6.058,0.015-9.077
		c1.703-2.304,1.612-4.695-0.265-6.697c-2.806-2.992-2.144-5.711,0.15-8.481c2.032-2.455,2.217-4.995,0.161-7.439
		c-2.445-2.907-2.461-5.799-0.238-8.724c1.864-2.453,1.937-5.025-0.172-7.05c-2.908-2.792-1.738-5.38,0.011-7.784
		c2.032-2.793,2.153-5.274-0.111-7.832c-2.223-2.509-1.89-5.268-0.206-7.639c2.236-3.149,2.221-5.689-0.471-8.533
		c-2.114-2.233-0.995-6.761,1.688-8.188c1.205-0.641,2.393-1.338,3.499-2.135C335.228,130.441,336.073,129.57,337.646,128.185z"/>
	<path fill-rule="evenodd" clip-rule="evenodd" fill="#FEFEFE" d="M246.004,293.1c-1.707-1.618,1.112-3.92-0.832-5.501
		c-0.667-2.036,1.298-1.141,1.929-1.733c3.222-2.077,3.417-4.776,1.581-7.86c-1.578-2.65-1.656-4.568,1.74-6.049
		c3.348-1.46,4.121-4.926,1.934-8.037c-1.969-2.798-1.197-5.099,0.967-6.919c3.004-2.528,3.339-4.938,1.404-8.372
		c-1.311-2.327-1.129-5.063,1.573-6.885c2.932-1.978,3.956-4.372,2.016-7.764c-1.651-2.889-0.482-5.208,2.116-7.002
		c3.562-2.458,4.091-5.113,1.583-8.466c-2.149-2.872-2.065-5.308,0.756-7.716c2.438-2.082,2.906-4.64,0.862-7.302
		c-2.407-3.134-1.956-5.773,0.873-8.443c2.147-2.027,2.456-4.512,0.467-6.963c-2.422-2.985-1.967-5.587,0.72-8.214
		c1.908-1.866,2.504-4.159,0.845-6.636c-2.063-3.081-1.491-5.558,1.479-7.846c2.493-1.921,3.055-4.602,1.083-7.236
		c-2.285-3.053-2.266-5.541,0.865-8.012c2.208-1.742,2.84-4.776,1.202-6.574c-4.364-4.787-2.334-8.564,0.974-12.507
		c1.696,0.879,3.413,1.773,5.134,2.663c3.362,1.737,3.979,4.825,1.438,7.805c-2.511,2.947-2.507,5.671,0.25,8.469
		c2.178,2.21,2.416,4.742,0.219,7.024c-2.579,2.679-2.717,5.312-0.397,8.093c2.369,2.839,2.724,5.428-0.209,8.228
		c-1.641,1.568-2.086,3.689-0.772,5.86c2.151,3.555,2.601,6.889-0.767,10.144c-1.572,1.519-1.543,3.503-0.25,5.455
		c2,3.017,2.638,5.804-0.76,8.616c-2.527,2.092-2.177,4.982-0.097,7.331c2.292,2.587,1.803,4.986-0.314,7.086
		c-2.462,2.441-2.845,4.939-1.043,7.781c1.724,2.718,1.868,5.137-0.611,7.569c-2.128,2.086-2.259,4.571-0.621,7.083
		c1.829,2.804,2.435,5.076-1.046,7.48c-2.699,1.865-2.936,5-0.653,7.671c2.585,3.024,2.608,5.83-0.162,8.664
		c-1.983,2.029-2.33,4.458-0.819,6.695c2.417,3.58,1.842,6.38-1.155,9.279c-1.577,1.526-2.152,3.54-0.762,5.832
		c2.15,3.545,2.165,6.873-1.284,9.92c-2.122,1.875-1.911,4.508-0.299,6.589c2.448,3.161,1.449,5.705-1.036,7.964
		c-2.802,2.547-3.437,4.917-1.139,8.333c1.462,2.174,2.643,4.962-0.772,7.259c-2.712,1.824-2.907,5.126-1.024,7.299
		c2.348,2.71-0.126,4.743-0.168,7.033c-0.01,0.56-2.041,2.18-4.129,0.979c-3.259-1.874-6.729-1.843-9.736,0.848
		c-0.913,0.815-1.648,0.568-2.401-0.064c-3.231-2.72-6.712-2.341-10.916-0.316c0-6.252-0.534-12.039,0.239-17.645
		c0.353-2.555,2.918-5.215,5.147-6.992c2.531-2.016,3.934-4.187,2.643-7.005c-1.434-3.132-0.38-5.841,0.29-8.719
		c0.844-0.713,1.352-1.674,1.902-2.606c0.142-0.351,0.287-0.693,0.409-1.05C246.586,296.144,246.825,294.57,246.004,293.1z"/>
	<path fill-rule="evenodd" clip-rule="evenodd" fill="#FEFEFE" d="M260.777,355.233c2.346,0.894,4.36,0.997,4.443-2.302
		c0.034-1.344,0.796-1.825,1.762-2.369c3.459-1.944,4.038-4.65,2.067-8.028c-1.755-3.006-0.661-5.75,1.489-7.787
		c2.713-2.569,3.289-5.216,0.999-7.987c-2.425-2.936-1.433-5.388,0.654-7.549c2.487-2.575,2.786-4.926,1.159-8.169
		c-1.301-2.593-1.404-5.526,1.341-7.833c2.375-1.994,3.333-4.366,0.868-7.092c-2.654-2.934-0.993-5.839,0.924-7.877
		c2.651-2.818,3.294-5.241,0.954-8.407c-1.94-2.625-1.343-5.303,0.829-7.317c3.074-2.853,3.344-5.371,0.567-8.648
		c-2.114-2.496-1.718-5.507,0.513-7.816c1.898-1.963,2.438-4.565,1.248-6.261c-1.913-2.727-0.964-5.037-0.065-7.828
		c1.809,5.004,4.447,9.47,7.858,13.464c0.225,0.263,0.252,0.917,0.089,1.252c-2.434,4.994,0.218,6.298,4.583,6.418
		c1.44,0.04,2.29,0.75,2.314,2.26c0.018,1.146-0.238,2.328-1.506,2.503c-3.181,0.44-5.255,1.867-4.828,5.336
		c0.417,3.382,3.251,4.031,6.729,4.735c-2.958,3.141-6.286,5.247-8.528,8.495c-4.728,6.848-6.201,13.975-3.793,22.01
		c1.828,6.098,3.743,11.989,10.087,15.008c1.609,0.767,1.885,2.247,1.833,3.885c-0.061,1.888-1.427,1.618-2.616,1.711
		c-2.533,0.199-3.981,1.543-3.927,4.117c0.055,2.623,1.708,3.757,4.169,3.896c1.286,0.071,2.491,0.116,2.365,1.954
		c-0.091,1.346-0.747,1.97-2.037,1.866c-2.8-0.225-4.445,0.931-4.496,3.824c-0.053,2.977,1.967,3.819,4.476,4.102
		c0.568,0.062,1.114,0.319,2.382,0.701c-6.956,4.175-11.645,9.494-13.875,16.88c-1.456,4.821-1.159,9.628-0.977,14.505
		c0.055,1.477,1.053,3.296-1.29,4.333c-2.095,0.926-3.013-0.321-4.279-1.461c-2.641-2.377-5.603-4.218-9.266-4.56
		c-2.584-0.242-3.85-1.534-3.576-4.221c0.195-1.907-0.732-3.581-1.364-5.286c-0.851-2.297-1.619-4.206,0.597-6.516
		c1.985-2.069,0.639-4.564-1.016-6.574C260.283,356.105,260.328,355.648,260.777,355.233z"/>
	<path fill-rule="evenodd" clip-rule="evenodd" fill="#FEFEFE" d="M422.262,374.005c3.014,4.421,2.938,9.2,1.948,14.228
		c-0.62,3.145-0.609,6.39,0.921,9.415c0.779,1.541,1.62,2.917,3.612,3.016c2.265,0.113,3.354-1.386,4.017-3.133
		c0.643-1.698,1.35-3.564,1.255-5.315c-0.399-7.342,1.782-14.917-1.735-21.98c-0.714-1.433,0.166-1.926,0.991-2.562
		c3.179-2.454,3.177-5.292,0.999-8.357c-0.609-0.858-1.741-1.67-0.828-2.753c0.966-1.146,1.921,0.045,2.746,0.514
		c2.842,1.61,3.555,6.344,1.08,9.228c-2.549,2.97-2.767,5.686-0.037,8.45c1.244,1.261,0.785,2.174,0.253,3.605
		c-1.661,4.466-2.637,9.143-1.72,13.915c0.484,2.518,1.221,5.485,4.473,5.559c3.549,0.079,4.341-3.017,4.796-5.716
		c0.754-4.46-0.007-8.878-1.671-13.03c-0.789-1.968-0.965-3.043,0.956-4.569c2.947-2.342,2.784-5.407-0.026-7.836
		c-1.448-1.251-1.893-2.251-0.846-3.782c1.23-1.8,2.348-0.232,3.492,0.188c1.29,0.475,2.587,1.403,3.861,1.37
		c6.288-0.158,6.455,3.773,6.195,8.447c-0.614,10.989-2.404,21.587-9.7,30.383c-10.032,12.097-28.923,15.626-44.392,8.418
		c-1.378-0.643-2.768-1.27-4.106-1.987c-9.173-4.921-10.256-7.811-6.438-17.235c0.276-0.683,0.72-1.586,1.306-1.81
		c5.144-1.964,5.116-6.234,4.994-10.64c-0.04-1.487-0.923-3.516,2.011-3.53c2.754-0.013,1.739,1.987,1.867,3.25
		c0.655,6.429,2.406,8.183,7.952,7.627c0,3.212-0.236,6.437,0.07,9.608c0.282,2.93,1.258,6.187,4.84,6.155
		c3.356-0.028,4.125-3.082,4.451-5.95c0.417-3.674,0.575-7.466-1.067-10.781c-1.834-3.704-1.156-6.386,1.933-8.773
		C421.747,376.647,419.987,374.468,422.262,374.005z"/>
	<path fill-rule="evenodd" clip-rule="evenodd" fill="#FEFEFE" d="M172.309,385.948c0.066,2.9-0.186,5.854,0.29,8.687
		c0.436,2.599,1.098,5.739,4.601,5.887c3.338,0.141,3.891-2.601,4.63-5.206c1.392-4.905-0.935-9.697-0.167-14.556
		c0.208-1.316-0.424-2.789,0.724-3.922c2.555-2.521,2.456-5.115,0.123-7.666c-1.382-1.512-0.273-2.646,0.84-2.349
		c1.641,0.438,3.219,1.665,4.457,2.919c1.419,1.437-0.707,1.953-1.256,2.77c-1.732,2.575-1.717,5.257,0.595,6.963
		c2.269,1.674,1.498,3.111,0.93,4.976c-1.508,4.949-3.364,9.866-1.122,15.139c0.83,1.951,1.777,3.635,4.12,3.68
		c2.208,0.042,2.985-1.667,3.844-3.364c2.181-4.309,1.052-8.635-0.199-13.521c2.369,0.356,4.184,2.364,6.17,0.491
		c2.075-1.957,2.423-4.519,2.847-7.042c0.262-1.562-0.514-3.579,2.32-3.288c2.766,0.286,1.293,2.116,1.323,3.424
		c0.095,4.146,0.337,7.737,4.703,10.529c3.646,2.331,3.042,7.652,4.13,11.663c0.78,2.873-2.569,3.423-4.25,4.587
		c-13.048,9.044-27.104,11.639-41.926,5.031c-13.688-6.101-18.292-18.392-20.234-32.062c-0.513-3.613-0.325-7.328-0.402-10.997
		c-0.029-1.405,0.1-2.877,1.808-3.305c3.388-0.85,6.818-1.524,9.93-3.248c0.713-0.395,1.632-0.128,1.88,0.719
		c0.317,1.086,0.808,2.097-0.45,3.267c-3.273,3.044-3.421,6.263,0.306,9.176c1.8,1.408,0.311,2.801-0.065,4.049
		c-1.231,4.089-2.824,8.129-1.679,12.479c0.639,2.426,0.922,5.326,4.142,5.958c3.612,0.709,3.887-2.631,5.309-4.563
		C172.462,391.124,169.373,387.824,172.309,385.948z"/>
	<path fill-rule="evenodd" clip-rule="evenodd" fill="#FEFEFE" d="M435.038,439.632c-4.298-1.229-6.622-0.094-8.188,2.888
		c-1.4,2.664-3.47,3.181-5.912,1.468c-2.109-1.479-4.207-1.673-6.352-0.304c-3.129,1.999-4.636,0.141-5.033-2.497
		c-0.535-3.548-2.294-4.967-5.74-5.191c-2.686-0.175-4.703-1.933-5.205-4.517c-0.688-3.544-2.547-5.177-6.061-5.636
		c-4.021-0.524-8.41-8.117-7.058-11.545c0.987-2.501,1.854-2.796,4.181-1.088c10.656,7.819,22.691,10.918,35.823,9.525
		c8.507-0.901,16.166-3.971,22.988-9.223c1.173-0.903,2.242-4.269,4.389-1.529c1.97,2.514,0.227,5.132-1.913,6.264
		c-3.839,2.032-5.654,4.109-3.698,8.651c0.753,1.749-0.581,3.901-3.17,3.838c-3.116-0.076-4.464,1.849-4.883,4.439
		C438.701,438.291,436.361,438.75,435.038,439.632z"/>
	<path fill-rule="evenodd" clip-rule="evenodd" fill="#FEFEFE" d="M221.456,416.016c-0.049,3.508-4.998,9.212-8.319,9.876
		c-2.761,0.553-4.879,1.708-5.115,4.902c-0.256,3.467-2.898,4.817-5.649,5.134c-3.492,0.399-5.134,2.086-5.855,5.296
		c-0.661,2.939-2.151,4.267-5.174,2.316c-2-1.29-4.064-1.002-5.967,0.375c-2.522,1.824-4.632,1.115-6.015-1.345
		c-1.652-2.938-3.675-4.013-7.115-3.218c-2.638,0.609-4.704-0.905-5.146-3.71c-0.467-2.964-1.798-4.565-4.949-4.913
		c-2.943-0.326-4.147-1.982-2.888-5.103c1.213-3.003,0.262-5.826-2.827-6.664c-2.769-0.75-2.437-3.192-3.708-4.69
		c-1.13-1.332,0.521-2.165,1.227-3.016c0.987-1.188,1.593,0.12,2.122,0.623c15.381,14.648,42.476,14.571,60.217,1.69
		c0.966-0.701,2.034-2.592,3.403-1.35C220.717,413.147,220.979,414.911,221.456,416.016z"/>
	<path fill-rule="evenodd" clip-rule="evenodd" fill="#FDFDFD" d="M311.695,349.253c1.037-0.197,1.909-0.414,2.796-0.522
		c2.609-0.321,4.572-1.71,4.411-4.34c-0.139-2.271-1.796-3.786-4.462-3.508c-1.494,0.156-2.777-0.094-2.812-2.054
		c-0.041-2.321,1.724-1.679,2.939-1.759c2.544-0.166,4.207-1.617,4.273-3.943c0.067-2.333-1.513-3.877-4.061-4.104
		c-1.238-0.11-2.968,0.594-3.188-1.572c-0.174-1.706-0.254-3.552,1.228-4.683c5.214-3.981,8.506-9.058,9.415-15.607
		c0.112-0.814,0.538-1.651,1.339-1.621c0.995,0.039,1.716,0.934,1.492,1.907c-0.453,1.978,1.464,4.128-1.159,6.108
		c-1.586,1.196-1.39,4.037,0.397,5.727c3.074,2.902,3.159,5.64,0.449,8.898c-1.636,1.968-1.359,4.401,0.427,6.276
		c2.668,2.801,3.358,5.266,0.321,8.469c-2.555,2.692-1.514,6.525,2.098,8.36c2.618,1.33,3.435,2.78,2.401,5.652
		c-0.985,2.742-0.006,5.046,2.694,6.547c2.618,1.456,3.698,3.571,2.966,6.71c-0.75,3.212,1.228,5.117,3.92,6.391
		c0.711,0.335,2.019-0.229,1.923,1.261c-0.059,0.923-0.807,1.291-1.575,1.384c-4.013,0.486-7.072,2.712-9.797,5.442
		c-1.245,1.247-2.365,1.011-3.712,0.391c-1.245-0.572-1.124-1.324-0.949-2.563c1.847-13.103-1.437-24.191-12.91-31.949
		C312.223,350.321,312.065,349.824,311.695,349.253z"/>
	<path fill-rule="evenodd" clip-rule="evenodd" fill="#FDFDFD" d="M311.641,544.24c-0.806-4.919-2.144-9.584-4.73-13.698
		c-1.116-1.776-0.674-2.425,0.573-3.739c2.32-2.448,2.163-5.272-0.026-7.805c-2.422-2.8-2.438-5.409,0.001-8.22
		c1.826-2.107,1.798-4.622,0.134-6.696c-2.556-3.186-2.583-5.968,0.128-9.066c1.923-2.195,2.015-5.072,0.038-7.072
		c-3.144-3.182-2.571-5.915-0.271-9.132c1.945-2.725,1.588-5.417-0.996-7.713c-0.654-0.582-2.302-0.643-1.23-2.258
		c0.642-0.969,0.799-2.27,2.462-2.229c1.828,0.045,3.661-0.188,5.492-0.268c0.431-0.019,1.22,0.025,1.246,0.157
		c0.572,2.919,1.676,5.383,3.762,7.717c0.533,0.597,1.759,5.016-1.638,7.133c-2.089,1.303-1.729,4.213-0.036,6.166
		c2.801,3.233,2.853,6.143-0.177,9.272c-1.972,2.038-1.972,4.739-0.16,6.661c3.06,3.243,3.102,6.126,0.295,9.423
		c-1.555,1.826-1.937,4.399-0.078,5.804c3.154,2.382,1.496,4.306,0.292,6.607c-2.366,4.522-3.048,9.528-3.896,14.475
		C312.57,541.237,312.837,542.838,311.641,544.24z"/>
	<path fill-rule="evenodd" clip-rule="evenodd" fill="#FDFDFD" d="M312.29,192.711c-0.119-4.402-0.442-7.243,3.792-9.136
		c4.364-1.951,3.401-8.148-1.408-9.938c-3.475-1.294-4.299-1.935-0.625-4.184c3.792-2.323,3.591-4.758-0.634-6.84
		c-2.602-1.282-1.856-3.293-1.778-5.087c0.068-1.546-0.958-3.606,1.918-4.379c2.618-0.703,4.287-2.699,4.309-5.78
		c0.02-2.936-1.052-4.971-3.842-6.066c-0.978-0.384-2.346-0.865-2.102-2.082c0.277-1.385,1.799-1.384,3.01-1.529
		c1.367-0.164,2.732-0.505,4.094-0.482c1.367,0.023,3.016-2.188,3.948-0.117c0.684,1.519,1.312,3.423-0.97,5.127
		c-2.569,1.917-2.275,4.867-0.259,7.289c2.534,3.042,3.09,5.825-0.026,8.883c-1.915,1.878-1.692,4.17-0.119,6.234
		c2.368,3.105,3.268,5.947-0.1,9.153c-1.846,1.757-1.705,4.456,0.088,6.229c3.431,3.396,3.836,6.393,0.102,9.833
		c-1.442,1.33-1.649,3.373-0.304,5.042c2.971,3.688,3.505,7.092-0.094,10.855c-1.54,1.612-1.53,4.216,0.278,5.819
		c1.792,1.589,2.292,3.199,2.019,5.463c-0.1,0.84,1.383,1.917-0.334,2.535c-1.154,0.416-1.68-0.592-2.05-1.368
		C317.154,209.693,311.9,201.597,312.29,192.711z"/>
	<path fill-rule="evenodd" clip-rule="evenodd" fill="#FDFDFD" d="M286.167,464.647c-3.195,3.657-4.358,6.899-0.522,10.877
		c1.419,1.471,2.439,4.679-0.386,7.103c-2.4,2.06-2.455,4.837-0.383,7.284c2.638,3.116,2.691,5.844-0.245,8.888
		c-2.033,2.107-1.923,4.969-0.07,7.065c2.714,3.071,3.161,5.655,0.204,8.841c-2.013,2.169-1.868,4.92,0.315,6.942
		c1.774,1.645,1.674,2.754,0.301,4.565c-2.081,2.747-1.885,6.609-4.174,9.534c-0.744-6.6-1.946-12.868-5.49-18.354
		c-1.169-1.811-0.442-2.606,0.778-3.745c2.057-1.919,2.571-4.416,0.705-6.527c-3.159-3.573-3.113-6.857-0.234-10.468
		c1.271-1.594,1.272-3.674-0.005-5.101c-3.324-3.711-2.846-6.973,0.29-10.495c1.583-1.779,1.279-3.908-0.174-5.855
		c-3.198-4.284-2.96-8.191,0.533-12.007c0.914-1,1.794-0.91,2.862-0.527C282.18,463.28,283.901,463.861,286.167,464.647z"/>
	<path fill-rule="evenodd" clip-rule="evenodd" fill="#FDFDFD" d="M292.375,466.255c2.596,0.146,4.388,0.34,6.177,0.318
		c1.616-0.02,1.87,1.15,2.481,2.213c0.878,1.527-0.467,1.719-1.154,2.353c-2.393,2.213-2.758,5.095-0.927,7.415
		c2.806,3.552,3.776,6.551,0.239,10.172c-1.717,1.759-1.289,4.177,0.221,5.88c2.887,3.261,2.971,6.069-0.144,9.281
		c-1.879,1.938-1.833,4.69-0.123,6.705c2.768,3.26,3.475,6.146,0.178,9.473c-1.551,1.566-1.807,4.041-0.23,5.409
		c2.991,2.597,1.758,4.787,0.288,7.357c-0.795,1.39-1.194,3.007-2.042,5.227c-2.435-4.827-2.878-9.803-5.88-13.653
		c-0.831-1.066,0.743-1.768,1.352-2.531c1.983-2.491,2.155-5.075,0.077-7.475c-2.537-2.929-2.386-5.729-0.165-8.654
		c1.537-2.025,1.938-4.227,0.369-6.308c-2.493-3.307-3.039-6.288,0.042-9.674c1.78-1.956,1.877-4.71-0.063-6.693
		c-3.078-3.148-2.843-6.081-0.302-9.296C294.562,471.504,294.136,469.035,292.375,466.255z"/>
	<path fill-rule="evenodd" clip-rule="evenodd" fill="#FDFDFD" d="M246.03,400.367c1.208,0,1.361,0.007,1.513-0.001
		c2.635-0.128,6.054-0.004,7.164,1.859c1.238,2.078-1.9,4.02-3.266,5.901c-3.303,4.551-6.598,9.152-10.955,12.786
		c-3.624,3.021-5.645,2.798-8.161-1.131c-1.785-2.788-3.093-5.886-4.557-8.872c-1.538-3.138,1.025-4.789,2.923-5.717
		C235.834,402.677,241.102,400.194,246.03,400.367z"/>
	<path fill-rule="evenodd" clip-rule="evenodd" fill="#FDFDFD" d="M359.274,400.337c5.937,0.048,11.272,2.264,16.392,4.904
		c2.753,1.421,4.152,3.546,2.252,7.087c-1.573,2.932-2.896,6.002-4.878,8.7c-1.478,2.01-3.327,2.537-5.516,1.062
		c-6.996-4.719-10.941-12.134-16.181-18.4c-0.977-1.17,0.176-1.683,1.268-2.201C354.759,400.471,356.998,400.385,359.274,400.337z"
		/>
	<path fill-rule="evenodd" clip-rule="evenodd" fill="#FCFCFC" d="M295.395,419.021c0,3.368,0.013,5.359-0.005,7.35
		c-0.012,1.349,0.281,2.949-1.767,3.081c-1.986,0.128-1.94-1.573-2.327-2.819c-3.256-10.5-9.839-18.448-18.735-24.685
		c-1.03-0.722-3.782-1.105-2.397-2.858c1.503-1.905,3.657-5.087,6.62-3.354c4.839,2.832,9.753,5.644,13.909,9.583
		C295.149,409.544,296.101,414.664,295.395,419.021z"/>
	<path fill-rule="evenodd" clip-rule="evenodd" fill="#FCFCFC" d="M311.545,417.927c-1.928-8.086,3.454-13.329,10.586-17.608
		c1.823-1.094,3.625-2.228,5.405-3.393c2.965-1.94,6.604-1.221,8.39,1.755c1.349,2.248-0.987,2.47-1.991,3.168
		c-8.089,5.628-14.285,12.718-18.048,21.945c-0.76,1.862-0.129,5.747-3.098,5.158c-2.528-0.501-0.77-3.983-1.201-6.096
		C311.348,421.683,311.545,420.419,311.545,417.927z"/>
	<path fill-rule="evenodd" clip-rule="evenodd" fill="#FCFCFC" d="M319.385,287.679c-1.271-1.502-2.348-3.249-3.856-4.455
		c-3.178-2.541-5.648-4.492-0.354-7.705c2.77-1.68,2.047-5.214-1.235-7.007c-1.609-0.878-2.417-1.723-2.301-3.418
		c0.127-1.847,1.539-1.992,2.98-2.121c2.544-0.228,3.915-2.205,2.977-4.091c-1.642-3.299,0.38-5.061,1.863-7.233
		c0.687-1.004,1.231-2.123,2.023-3.032c0.852-0.979,0.104-2.945,2.006-3.188c0.198-0.025,0.441,0.309,0.663,0.476
		c-1.931,1.582,1.838,3.494-0.465,5.314c-3.528,2.788-3.675,5.662-0.306,9.211c1.57,1.654,2.447,4.762-0.359,7.138
		c-2.105,1.782-2.684,4.435-0.887,6.561c2.834,3.353,2.959,6.29,0.017,9.505c-0.469,0.512-0.509,1.419-0.746,2.145
		C320.51,286.176,321.227,288.286,319.385,287.679z"/>
	<path fill-rule="evenodd" clip-rule="evenodd" fill="#FBFBFB" d="M292.87,190.749c0.091,9.66-4.227,17.864-8.652,26.023
		c-0.323,0.595-0.747,1.426-1.733,1.102c-1.093-0.36-0.596-1.219-0.5-1.894c0.261-1.836-0.376-3.688,1.696-5.298
		c2.061-1.602,2.227-4.484,0.626-6.655c-2.232-3.028-1.294-5.449,0.812-7.809c2.444-2.739,2.651-5.458-0.118-7.962
		c-2.649-2.395-0.795-4.456,0.259-6.552c0.265-0.526,1.036-0.991,1.925-0.579C290.052,182.454,292.868,187.175,292.87,190.749z"/>
	<path fill-rule="evenodd" clip-rule="evenodd" fill="#FAFAFA" d="M289.175,149.776c0.841,0.861,1.571,1.881,2.541,2.556
		c5.306,3.694,5.234,7.373-0.258,10.526c-1.313,0.753-1.809,2.015-1.714,3.462c0.109,1.649,0.896,2.784,2.563,3.375
		c1.17,0.415,3.222,0.216,2.958,2.148c-0.248,1.811-2.416,0.781-3.372,1.51c-2.95,2.245-5.412,0.804-6.534-1.589
		c-0.912-1.942-0.971-4.657,1.174-6.766c2.095-2.06,2.213-4.957,0.361-7.064c-3.25-3.698-2.513-6.796,0.492-9.98
		C289.152,147.413,288.364,149.38,289.175,149.776z"/>
	<path fill-rule="evenodd" clip-rule="evenodd" fill="#F5F5F5" d="M300.282,25.143c0-2.123-0.015-4.246,0.004-6.369
		c0.02-2.278,1.07-3.972,3.414-3.951c1.967,0.018,3.518,1.466,3.609,3.457c0.196,4.236,0.32,8.513-0.051,12.726
		c-0.302,3.421-3.736,1.581-5.604,2.34c-2.069,0.841-1.275-1.674-1.38-2.748c-0.176-1.803-0.047-3.635-0.047-5.455
		C300.245,25.143,300.263,25.143,300.282,25.143z"/>
	<path fill-rule="evenodd" clip-rule="evenodd" fill="#F9F9F9" d="M166.192,442.746c2.117,0.215,2.344,2.012,2.983,3.503
		c1.146,2.674,3.333,4.366,6.055,3.336c4.871-1.847,8.01,0.398,11.03,3.59c1.609,1.268,4.23-1.232,5.455,1.465
		c-1.719,0.327-3.104,2.149-5.292,0.423c-1.107-0.873-3.147-0.445-4.7,0.594c-2.999,2.006-5.545,1.226-7.675-1.551
		c-0.938-1.224-2.092-1.972-3.8-2.109c-4.888-0.394-5.721-1.628-5.049-6.717c0.056-0.428-0.151-0.891-0.236-1.337
		C164.78,442.935,165.244,442.592,166.192,442.746z"/>
	<path fill-rule="evenodd" clip-rule="evenodd" fill="#FAFAFA" d="M420.557,452.947c2.645-3.494,5.759-5.03,10.281-3.399
		c2.7,0.973,5.215-0.229,6.09-3.15c0.578-1.932,1.707-4.31,3.257-3.312c1.566,1.01,1.605,4.063,1.073,6.318
		c-0.188,0.797-1.148,2.108-1.583,2.043c-5.128-0.771-7.643,4.286-11.973,5.236c-0.981,0.215-1.812,0.362-2.499-0.346
		c-1.853-1.913-4.063-1.739-6.359-1.246c-0.313-0.296-0.434-0.655-0.362-1.08C418.968,453.257,420.062,453.689,420.557,452.947z"/>
	<path fill-rule="evenodd" clip-rule="evenodd" fill="#F4F4F4" d="M307.515,78.871c0,3.894-0.083,7.989,0.022,12.08
		c0.119,4.65-4.479,1.647-6.163,3.713c-0.343,0.42-0.79-2.14-0.9-3.377c-0.122-1.358,0.043-2.741-0.047-4.104
		C300.113,82.482,299.76,77.797,307.515,78.871z"/>
	<path fill-rule="evenodd" clip-rule="evenodd" fill="#F7F7F7" d="M299.295,57.468c2.699,1.281,6.156,1.884,6.537,3.309
		c0.916,3.431,0.875,7.325,0.292,10.88c-0.445,2.71-3.846,1.298-5.803,2.171c-1.427,0.636-0.959-1.76-0.982-2.787
		C299.237,66.69,299.295,62.336,299.295,57.468z"/>
	<path fill-rule="evenodd" clip-rule="evenodd" fill="#FDFDFD" d="M308.438,37.381c0,6.557,0,11.723,0,16.932
		c-7.019-3.036-6.609-3.051-6.917-10.989C301.301,37.655,306.161,40.546,308.438,37.381z"/>
	<path fill-rule="evenodd" clip-rule="evenodd" fill="#F0F0F0" d="M252.168,353.886c2.353-0.21,2.58,1.188,1.88,1.924
		c-3.938,4.139-3.113,7.494,1.289,10.542c0.569,0.395,0.373,1.058,0.074,1.648c-1.462,2.895-2.181,5.977-2.271,9.216
		c-0.027,0.959-0.284,1.883-1.415,2.004c-1.043,0.111-1.054-0.812-1.288-1.524c-0.709-2.168-2.472-4.11,0.465-6.359
		c1.72-1.316,1.591-4.201,0.258-5.9c-1.44-1.836-1.496-3.952-2.279-5.721C246.724,354.847,251.768,355.89,252.168,353.886z"/>
	<path fill-rule="evenodd" clip-rule="evenodd" fill="#F1F1F1" d="M354.2,379.771c-1.069-4.054-1.725-7.333-2.836-10.451
		c-0.655-1.837-0.735-2.928,0.988-4.213c2.89-2.154,3.353-4.922,1.02-7.871c-0.759-0.959-1.935-1.962-0.871-3.128
		c1.198-1.313,2.033,0.311,2.905,0.877c2.41,1.564,3.116,6.511,0.961,8.885c-2.776,3.056-2.687,5.537-0.074,8.766
		C358.35,375.178,356.016,377.299,354.2,379.771z"/>
	<path fill-rule="evenodd" clip-rule="evenodd" fill="#F9F9F9" d="M254.482,393.243c1.814-2.187,2.612-5.139,5.609-6.074
		c0.853-0.267,1.783-0.995,2.511-0.82c2.182,0.523,5.203,0.433,6.024,2.645c0.632,1.704-2.386,2.284-3.407,3.686
		C262.05,397.031,258.437,395.274,254.482,393.243z"/>
	<path fill-rule="evenodd" clip-rule="evenodd" fill="#F7F7F7" d="M337.045,389.084c5.543-3.724,8.872-2.73,14.646,4.139
		C342.855,397.026,346.072,396.649,337.045,389.084z"/>
	<path fill-rule="evenodd" clip-rule="evenodd" fill="#F0F0F0" d="M172.309,385.948c-1.806,2.143,0.609,5.283-1.726,7.303
		c0.596-5.163,0.163-10.201-1.958-14.999c-0.594-1.345-0.876-2.36,0.519-3.531c2.298-1.929,2.052-4.501,1.188-7.076
		c0.683-0.721,1.404-0.621,2.145-0.098c2.13,0.49,1.807,1.641,1.268,3.36C172.217,375.79,171.351,380.799,172.309,385.948z"/>
	<path fill-rule="evenodd" clip-rule="evenodd" fill="#F7F7F7" d="M302.034,108.878c0-1.665,0.264-3.082-0.045-4.361
		c-1.268-5.238,3.557-3.94,5.748-5.354c0.845-0.545,0.981,0.675,1.119,1.404C309.839,105.761,309.021,106.848,302.034,108.878z"/>
	<path fill-rule="evenodd" clip-rule="evenodd" fill="#F4F4F4" d="M287.479,144.225c-0.128-2.455-4.899-3.722-2.278-6.523
		c2.052-2.194,5.083,0.421,7.719,0.124c0.9-0.101,1.977,0.342,2.172,1.304c0.215,1.059-0.776,1.619-1.66,1.859
		c-1.891,0.515-2.982,1.986-4.238,3.278C288.609,144.802,288.037,144.805,287.479,144.225z"/>
	<path fill-rule="evenodd" clip-rule="evenodd" fill="#F1F1F1" d="M239.778,370.259c-4.528-4.275-3.81-8.419,1.71-10.252
		c1.082-0.36,2.123-1.022,2.511,0.541c0.234,0.943,1.797,2.073-0.074,3.056c-1.26,0.661-2.016,1.823-2.676,3.042
		C240.184,367.616,242.156,369.822,239.778,370.259z"/>
	<path fill-rule="evenodd" clip-rule="evenodd" fill="#F4F4F4" d="M365.331,369.346c-0.06-2.047-0.505-4.057-2.298-5.187
		c-1.752-1.105-1.693-2.502-0.888-3.837c1.083-1.8,2.436-0.253,3.562,0.172c4.274,1.612,4.842,5.161,1.492,8.857
		C366.575,369.89,365.951,369.945,365.331,369.346z"/>
	<path fill-rule="evenodd" clip-rule="evenodd" fill="#EDEDED" d="M365.331,369.346c0.622,0.001,1.246,0.003,1.869,0.006
		c-2.204,2.637-2.766,5.38-0.284,8.126c1.092,1.206,1.762,2.229-0.052,3.24c-1.658,0.924-2.963,0.287-3.819-1.229
		C360.765,375.446,362.27,372.209,365.331,369.346z"/>
	<path fill-rule="evenodd" clip-rule="evenodd" fill="#ECECEC" d="M239.778,370.259c0.49-1.204,0.98-2.409,1.471-3.613
		c0.211,1.763-0.445,3.942,1.336,5.072c4.255,2.698,1.012,5.447,0.153,8.079c-0.531,1.631-2.085,1.711-3.409,0.845
		c-1.4-0.916-0.914-2.041,0.029-3.043C241.555,375.266,241.767,372.827,239.778,370.259z"/>
	<path fill-rule="evenodd" clip-rule="evenodd" fill="#E8E8E8" d="M172.477,367.547c-0.715,0.032-1.43,0.065-2.145,0.098
		c-3.91-3.581-3.919-8.562-0.004-10.843c0.707-0.411,1.326-1.287,2.345-0.408c1.266,1.09,0.373,1.875-0.311,2.628
		C169.735,361.917,170.073,364.737,172.477,367.547z"/>
	<path fill-rule="evenodd" clip-rule="evenodd" fill="#EAEAEA" d="M237.74,293.139c-0.916,2.535-0.981,4.951,0.194,7.532
		c0.947,2.081,0.55,4.273-1.536,6.749c-0.828-3.896-1.116-7.245-2.884-10.253c-0.856-1.457,1.301-2.82,2.381-4.05
		C236.515,292.786,237.156,290.74,237.74,293.139z"/>
	<path fill-rule="evenodd" clip-rule="evenodd" fill="#E8E8E8" d="M422.262,374.005c-1.217,0.914-0.036,2.847-1.547,3.634
		c0.389-2.227,0.09-4.449-1.716-5.809c-1.54-1.162-1.175-2.086-0.012-2.624c1.62-0.751,2.67-3.728,4.83-2.132
		c2.313,1.708-1.159,2.353-1.233,3.771C422.529,371.901,422.372,372.952,422.262,374.005z"/>
	<path fill-rule="evenodd" clip-rule="evenodd" fill="#C4C4C4" d="M319.385,287.679c0.674-0.633,1.347-1.268,2.021-1.901
		c-0.169,2.085,0.207,4.01,2.15,5.14c1.668,0.969,1.284,2.668,1.653,4.065c0.303,1.148-0.926,1.431-1.666,1.795
		c-1.282,0.629-1.637-0.473-1.773-1.331C321.338,292.737,320.53,290.16,319.385,287.679z"/>
	<path fill-rule="evenodd" clip-rule="evenodd" fill="#C6C6C6" d="M237.74,293.139c-0.602-1.043-1.229-0.149-1.845-0.023
		c0.353-1.172,0.705-2.343,1.058-3.514c1.267-1.708-1.451-5.248,2.609-5.669C241.612,287.483,240.923,290.965,237.74,293.139z"/>
	<path fill-rule="evenodd" clip-rule="evenodd" fill="#E5E5E5" d="M218.558,381.092c0.548-3.408-2.116-6.173,1.603-7.95
		c0.98-0.468,2.246-1.019,2.564,0.451c0.203,0.94,1.873,2.183,0.14,3.072C221.28,377.478,220.744,379.131,218.558,381.092z"/>
	<path fill-rule="evenodd" clip-rule="evenodd" fill="#DCDCDC" d="M386.464,379.717c-0.411-2.36-5.263-2.561-2.918-6.087
		c1.189-1.789,2.427-0.69,3.453,0.103C389.561,375.71,387.896,377.655,386.464,379.717z"/>
	<path fill-rule="evenodd" clip-rule="evenodd" fill="#E1E1E1" d="M230.114,394.387c-1.304-1.862-0.657-4.36-2.106-6.229
		c-0.685-0.883-0.509-1.827,0.689-2.589c1.654-1.051,2.04,0.19,2.68,1.146C231.41,389.347,233.227,392.271,230.114,394.387z"/>
	<path fill-rule="evenodd" clip-rule="evenodd" fill="#F2F2F2" d="M374.781,393.248c-0.043-1.983-0.204-3.974-0.09-5.947
		c0.078-1.346,1.216-2.318,2.415-2.021c1.141,0.285,1.929,1.32,1.157,2.877c-0.802,1.62-1.306,3.387-1.939,5.09
		C375.811,393.81,375.296,393.809,374.781,393.248z"/>
	<path fill-rule="evenodd" clip-rule="evenodd" fill="#0F0F0F" d="M229.672,309.607c0-6.967,0-13.933,0-20.899
		c0.141-0.001,0.281-0.003,0.421-0.004c0,6.966,0,13.932,0,20.898C229.953,309.604,229.812,309.605,229.672,309.607z"/>
	<path fill-rule="evenodd" clip-rule="evenodd" fill="#0B0B0B" d="M307.059,311.283c-0.175-5.801-1.238-11.588,1.151-17.171
		C307.028,299.824,307.821,305.624,307.059,311.283z"/>
	<path fill-rule="evenodd" clip-rule="evenodd" fill="#141414" d="M247.086,298.75c-0.457,1.455-1.396,2.372-2.932,2.621
		c-0.112-2.919-0.208-5.837,1.85-8.271c1.362,1.711,2.686,3.43,1.043,5.693l-0.286-0.292L247.086,298.75z"/>
	<path fill-rule="evenodd" clip-rule="evenodd" fill="#1C1C1C" d="M247.101,285.866c-0.643,0.578-1.286,1.155-1.929,1.733
		c-2.167-3.192-0.467-6.67-1.063-10.45C246.833,279.865,243.125,284.105,247.101,285.866z"/>
	<path fill-rule="evenodd" clip-rule="evenodd" fill="#0D0D0D" d="M200.976,304.145c0-2.8,0-5.599,0-8.398
		c0.493,0.029,0.986,0.058,1.479,0.087c-1.519,2.703,2.16,5.739-1.484,8.307L200.976,304.145z"/>
	<path fill-rule="evenodd" clip-rule="evenodd" fill="#CECECE" d="M221.847,390.283c-0.346-1.512-2.119-2.779-0.962-4.384
		c0.219-0.305,1.652-0.225,2.033,0.163C224.553,387.725,222.836,388.908,221.847,390.283z"/>
	<path fill-rule="evenodd" clip-rule="evenodd" fill="#3B3B3B" d="M239.562,283.933c-3.068,0.878-1.406,3.932-2.609,5.669
		c-0.029-1.957-0.126-3.916-0.056-5.868c0.03-0.842,0.148-2.029,1.393-1.886C239.346,281.968,239.584,282.958,239.562,283.933z"/>
	<path fill-rule="evenodd" clip-rule="evenodd" fill="#D3D3D3" d="M261.287,350.781c-0.322,1.117-1.048,1.842-1.965,1.545
		c-1.184-0.383-1.96-1.494-1.692-2.768c0.109-0.517,1.183-1.277,1.669-1.18C260.51,348.62,261.286,349.546,261.287,350.781z"/>
	<path fill-rule="evenodd" clip-rule="evenodd" fill="#DFDFDF" d="M385.789,385.914c-0.231,1.311,0.112,2.741-1.26,4.502
		c-1.15-1.566-2.915-2.487-0.783-4.602C384.448,385.421,385.132,385.391,385.789,385.914z"/>
	<path fill-rule="evenodd" clip-rule="evenodd" fill="#ABABAB" d="M230.114,394.387c1.979-2.301,0.778-5.125,1.263-7.673
		c1.623,2.669,0.042,5.58,0.611,8.343c0.128,0.618-0.468,1.218-1.134,0.809C230.455,395.62,230.351,394.896,230.114,394.387z"/>
	<path fill-rule="evenodd" clip-rule="evenodd" fill="#111111" d="M377.923,295.017c-0.625,2.688-0.581,5.467-0.963,8.199
		C376.649,300.417,375.785,297.579,377.923,295.017z"/>
	<path fill-rule="evenodd" clip-rule="evenodd" fill="#B7B7B7" d="M301.598,36.412c1.676-0.967,2.655-2.678,4.352-1.162
		c0.23,0.206,0.312,0.996,0.13,1.175C304.879,37.599,303.553,37.873,301.598,36.412z"/>
	<path fill-rule="evenodd" clip-rule="evenodd" fill="#C0C0C0" d="M305.806,56.316c-0.138,1.013-0.563,1.37-1.259,1.103
		c-1.043-0.4-2.587-0.27-2.469-2.072c0.05-0.749,0.542-1.132,1.193-0.992C304.487,54.618,305.471,55.255,305.806,56.316z"/>
	<path fill-rule="evenodd" clip-rule="evenodd" fill="#FDFDFD" d="M418.731,454.274c0.018,0.275,0.056,0.548,0.112,0.817
		c-2.185,2.35-3.65-0.613-5.441-0.951c-0.41-0.077,0.62-1.246,1.642-0.973C416.123,454.038,417.891,452.615,418.731,454.274z"/>
	<path fill-rule="evenodd" clip-rule="evenodd" fill="#121212" d="M398.271,303.31c0,2.704,0,5.406,0,8.11
		c-0.136-0.003-0.271-0.005-0.406-0.008c0-2.703,0-5.407,0-8.11C397.999,303.305,398.135,303.307,398.271,303.31z"/>
	<path fill-rule="evenodd" clip-rule="evenodd" fill="#C3C3C3" d="M287.479,144.225c0.571,0.013,1.144,0.027,1.715,0.041
		c-0.006,1.837-0.012,3.673-0.019,5.51c-0.597-0.606-1.194-1.213-1.79-1.82C287.417,146.712,287.447,145.469,287.479,144.225z"/>
	<path fill-rule="evenodd" clip-rule="evenodd" fill="#AAAAAA" d="M306.448,96.329c-0.127,1.087-0.804,1.596-1.726,1.774
		c-0.792,0.153-1.638-0.147-1.715-0.943c-0.104-1.074,1.071-1.182,1.773-1.529C305.493,95.278,306.174,95.495,306.448,96.329z"/>
	<path fill-rule="evenodd" clip-rule="evenodd" fill="#0A0A0A" d="M303.202,302.275c0-2.129,0-4.257,0-6.386
		c0.149,0.001,0.299,0.001,0.448,0.002c0,2.128,0,4.257,0,6.385C303.501,302.275,303.352,302.275,303.202,302.275z"/>
	<path fill-rule="evenodd" clip-rule="evenodd" fill="#B8B8B8" d="M338.076,122.238c1.514,1.491,2.389,2.861,0.292,5.017
		C337.404,125.523,337.939,123.958,338.076,122.238z"/>
	<path fill-rule="evenodd" clip-rule="evenodd" fill="#CBCBCB" d="M191.715,454.64c-1.519-1.604-4.043,0.538-5.455-1.465
		c1.772-0.07,3.563-0.333,5.31-0.156C193.261,453.189,193.121,453.961,191.715,454.64z"/>
	<path fill-rule="evenodd" clip-rule="evenodd" fill="#F8F8F8" d="M304.568,76.438c-0.295,0.117-0.786,0.431-1.307,0.492
		c-0.785,0.092-1.149-0.65-0.885-1.118c0.193-0.343,1.053-0.392,1.621-0.408C304.306,75.396,304.996,75.392,304.568,76.438z"/>
	<path fill-rule="evenodd" clip-rule="evenodd" fill="#0D0D0D" d="M201.28,290.061c0.918,0.794,1.504,1.441,0.965,2.425
		c-0.07,0.128-0.625,0.178-0.755,0.053C200.877,291.957,200.955,291.214,201.28,290.061z"/>
	<path fill-rule="evenodd" clip-rule="evenodd" fill="#C5C5C5" d="M418.731,454.274c-1.216-0.411-2.759,0.262-3.688-1.106
		c1.838-0.074,3.675-0.147,5.513-0.221C419.948,453.39,419.34,453.832,418.731,454.274z"/>
	<path fill-rule="evenodd" clip-rule="evenodd" fill="#D5D5D5" d="M374.781,393.248c0.515,0,1.029-0.001,1.543-0.001
		c-0.075,1.044,0.606,2.756-1.126,2.626C374.179,395.796,374.706,394.198,374.781,393.248z"/>
	<path fill-rule="evenodd" clip-rule="evenodd" fill="#0F0F0F" d="M230.233,313.571c0.069,2.148,0.492,3.338-0.376,4.506
		C229.3,316.701,229.204,315.443,230.233,313.571z"/>
	<path fill-rule="evenodd" clip-rule="evenodd" fill="#D8D8D8" d="M458.173,419.541c-0.139,0.9-0.644,1.136-1.281,0.858
		c-0.338-0.146-0.804-0.599-0.778-0.872c0.073-0.757,0.802-0.68,1.353-0.697C458.005,418.812,458.21,419.164,458.173,419.541z"/>
	<path fill-rule="evenodd" clip-rule="evenodd" fill="#A1A1A1" d="M155.559,433.657c1.125,0.214,1.215,0.717,1.081,1.355
		c-0.141,0.672-0.619,1.031-1.217,0.94c-0.194-0.029-0.38-0.745-0.397-1.154C155.002,434.233,155.131,433.651,155.559,433.657z"/>
	<path fill-rule="evenodd" clip-rule="evenodd" fill="#919191" d="M166.192,442.746c-0.41,0.398-0.819,0.798-1.229,1.196
		c-1.028-0.735-1.207-1.964-0.36-2.544C165.533,440.761,165.966,441.896,166.192,442.746z"/>
	<path fill-rule="evenodd" clip-rule="evenodd" fill="#737373" d="M385.789,385.914c-0.682-0.033-1.362-0.066-2.043-0.1
		c0.846-0.7,1.69-1.401,2.537-2.103C386.753,384.589,386.77,385.363,385.789,385.914z"/>
	<path fill-rule="evenodd" clip-rule="evenodd" fill="#B7B7B7" d="M260.777,355.233c-0.045,0.455-0.09,0.911-0.136,1.367
		c-1.009-0.563-2.656-1.113-1.568-2.499C259.825,353.145,260.527,354.309,260.777,355.233z"/>
	<path fill-rule="evenodd" clip-rule="evenodd" d="M247.086,298.75c-1.005,0.115-2.273,0.586-1.928-1.278
		c0.073-0.397,0.42-1.08,0.608-1.068c1.624,0.098,0.886,1.559,1.281,2.389C247.047,298.793,247.086,298.75,247.086,298.75z"/>
</g>
</svg>
