<?xml version="1.0" encoding="utf-8"?>
<!-- Generator: Adobe Illustrator 16.0.0, SVG Export Plug-In . SVG Version: 6.00 Build 0)  -->
<!DOCTYPE svg PUBLIC "-//W3C//DTD SVG 1.1//EN" "http://www.w3.org/Graphics/SVG/1.1/DTD/svg11.dtd">
<svg version="1.1" id="Layer_1" xmlns="http://www.w3.org/2000/svg" xmlns:xlink="http://www.w3.org/1999/xlink" x="0px" y="0px"
	 width="600px" height="600px" viewBox="0 0 600 600" enable-background="new 0 0 600 600" xml:space="preserve">
<g opacity="0.07">
	<path d="M245.233,427.328c-5.403,3.802-10.771,5.772-16.497,0.41c-1.98-1.854-4.399,0.509-6.936-0.102
		c-3.139-0.755-3.058,2.631-3.4,5.121c-0.419,3.048-2.951,4.496-5.684,4.083c-3.574-0.542-4.354,1.459-4.975,4.062
		c-1.16,4.865-4.021,9.16-4.433,14.344c-0.167,2.106-2.182,3.527-4.774,3.356c-4.137-0.271-7.415,0.831-9.556,4.948
		c-1.442,2.775-6.215,2.752-8.343,0.067c-2.378-2.999-4.824-3.23-8.082-1.641c-4.07,1.987-7.518-0.167-8.278-4.699
		c-0.564-3.361-2.744-5.715-5.888-6.707c-2.403-0.76-3.428-2.332-4.11-4.422c-0.471-1.442,1.291-3.124-0.114-4.335
		c-1.093-0.942-1.568-2.181-2.496-3.457c-3.879,3.034-3.375,7.096-2.163,10.777c1.514,4.598,2.396,9.14,1.836,13.934
		c-0.338,2.892-1.365,5.853-4.583,5.919c-3.289,0.066-4.303-2.948-4.651-5.801c-0.526-4.303-0.384-8.719,1.402-12.613
		c1.963-4.283,0.925-7.863-0.611-11.864c-2.125-5.532-1.146-11.18,1.186-16.43c1.637-3.687,0.721-7.13-0.052-10.618
		c-0.255-1.152-1.319-2.48-0.698-3.45c4.596-7.188,1.495-14.191-0.245-21.252c-1.401-5.686-1.751-11.501-1.465-17.301
		c0.171-3.45-0.55-5.592-4.659-5.656c-0.086,2.223-0.943,4.244-2.806,5.743c-1.754,1.413-0.15,2.771,0.225,4.033
		c1.48,5.002,3.229,9.958,0.948,15.166c-0.797,1.819-1.566,3.679-4.161,3.559c-2.496-0.115-3.214-1.803-3.972-3.748
		c-2.05-5.263-0.444-10.187,1.213-15.115c0.571-1.698,1.388-3.016-0.773-4.605c-2.565-1.889-2.398-4.718-0.611-7.342
		c0.537-0.789,2.199-1.351,1.075-2.532c-1.221-1.284-2.713-2.557-4.334-3.12c-0.896-0.312-2.416,0.729-1.017,2.372
		c3.18,3.737,2.082,6.868-1.847,8.93c-1.996,1.047-0.808,1.867-0.459,2.833c1.679,4.659,2.505,9.395,1.681,14.355
		c-0.458,2.761-1.355,5.298-4.575,5.309c-3.305,0.011-4.22-2.92-4.617-5.409c-0.784-4.918-0.042-9.777,2.23-14.26
		c0.833-1.641,1.084-2.739-0.269-4.349c-2.558-3.044-1.866-6.024,1.337-8.183c2.666-1.795,2.856-4.412,2.182-6.877
		c-0.529-1.935-2.691-3.446-0.54-5.665c1.885-1.941,4.866-3.175,6.58-1.964c5.269,3.722,10.044-2.565,15.101-0.107
		c1.143,0.555,0.945-1.212,0.954-1.921c0.109-9.477,0.175-18.952,0.189-28.43c0.005-3.64-0.739-7.305,1.137-10.79
		c0.749-1.394,0.343-2.929-0.403-4.394c-5.613-11.013-4.118-22.278-0.505-33.335c1.998-6.115,5.016-11.922,8.627-17.793
		c5.065,14.45,9.079,28.555,7.128,43.64c-0.347,2.682-1.924,4.815-3.223,7.017c-1.071,1.818-1.426,3.135,0.117,4.883
		c1.088,1.231,1.447,2.892,1.42,4.694c-0.169,11.427-0.198,22.854-0.298,34.28c-0.018,2.022,0.098,3.345,2.799,2.152
		c3.255-1.438,5.942,0.621,8.968,1.563c2.468,0.771,5.342-2.92,8.847-2.017c4.618,1.189,5.669,4.097,2.746,7.832
		c-0.592,0.756-2.382,1.243-1.036,2.879c0.903,1.099,1.762,1.498,3.138,0.895c0.82-0.358,1.986-0.82,2.65-0.507
		c4.705,2.232,9.092,0.534,13.634-0.604c2.697-0.677,4.366-2.938,2.776-5.239c-1.452-2.102-1.84-3.678,0.188-5.542
		c1.273-1.171,0.767-2.884,0.778-4.37c0.047-6.125,0.124-12.253-0.015-18.375c-0.072-3.184,0.476-6.053,2.517-8.55
		c-0.431-2.174-0.937-4.324-1.954-6.312c1.477-1.818,1.036-3.88,0.689-5.777c-0.112,1.559,0.983,3.336-0.248,4.981
		c-1.082,1.021-1.457-0.009-1.96-0.668c-4.78-17.041,1.668-31.598,10.25-46.602c3.903,14.761,10.126,28.386,6.42,43.33
		c-1.597,6.441-3.235,12.363-1.451,19.296c1.4,5.439,0.57,11.588,0.027,17.354c-0.467,4.956,3.41,3.471,5.365,3.889
		c2.867,0.612,1.62-2.196,1.649-3.479c0.235-10.387-0.068-20.803,0.596-31.158c0.371-5.793,0.078-11.064-1.672-16.738
		c-3.591-11.635-0.792-22.949,4.233-33.733c1.787-3.834,3.816-7.556,6.179-12.203c3.121,12.475,7.683,23.568,7.625,35.772
		c5.225-3.166,6.035-5.015,4.312-10.229c-0.738-2.234,0.016-4.043,1.521-5.397c2.923-2.627,3.923-5.182,1.427-8.786
		c-1.636-2.363-0.59-4.909,1.567-6.456c3.405-2.441,3.513-5.262,1.733-8.6c-1.481-2.776-0.695-5.227,1.651-6.85
		c3.191-2.207,3.987-4.781,2.526-8.292c-0.891-2.141-0.629-4.278,0.987-5.982c2.529-2.667,2.767-5.342,0.734-8.427
		c-1.363-2.068-1.587-4.644,0.116-6.411c2.994-3.106,3.379-5.97,0.974-9.593c-1.51-2.275-1.007-4.856,1.051-6.676
		c2.839-2.51,2.921-4.808,0.692-7.874c-1.866-2.568-1.762-5.39,1.058-7.663c2.668-2.15,2.854-4.717,1.338-7.775
		c-1.039-2.096-1.318-4.632,0.616-6.41c3.12-2.868,2.996-5.675,0.827-9.013c-1.284-1.977-0.809-4.097,0.712-5.949
		c2.286-2.785,2.516-5.48-0.249-8.19c-1.864-1.827-2.351-4.518-0.806-6.296c3.259-3.751,3.62-7.538,2.431-12.166
		c-0.981-3.813,2.237-5.69,5.02-7.328c1.15-0.677,2.601-1.207,3.909-1.192c7.959,0.084,15.928,0.167,23.868,0.667
		c2.086,0.131,3.388,0.449,2.983-2.081c-1.66-10.364-0.914-20.876-2.09-31.305c-0.775-6.875-1.671-13.948,1.381-21.101
		c2-4.684,1.292-10.681,0.196-15.863c-1.454-6.875-0.675-13.674-0.675-20.502c0.001-2.648,2.046-3.932,4.495-4.468
		c2.37-0.519,4.271,0.349,5.559,2.275c0.654,0.979,1.279,2.292,1.195,3.399c-0.862,11.33,3.323,22.653,1.183,33.712
		c-1.373,7.084-2.912,14.145-1.898,21.055c1.523,10.381,0.365,20.904,2.46,31.188c0.185,0.909,0.144,2.183,1.213,2.164
		c4.381-0.077,8.313,3.251,12.942,1.449c3.944-1.537,7.889-0.424,11.611,0.976c2.284,0.859,4.957,2.479,4.753,5.052
		c-0.278,3.506,1.972,6.146,2.118,9.373c0.062,1.317,1.252,1.588,2.109,2.15c3.052,2,3.183,4.878,1.582,7.573
		c-2.061,3.468-2.311,6.354,0.707,9.362c1.847,1.841,2.035,4.111,0.268,6.206c-2.643,3.131-2.512,6.057,0.242,9.064
		c1.768,1.93,1.824,4.535,0.504,6.395c-2.425,3.413-2.411,6.223,0.419,9.275c1.636,1.766,1.7,3.958,0.245,5.882
		c-2.604,3.442-1.883,6.364,0.879,9.311c1.91,2.037,2.001,4.262,0.182,6.615c-2.199,2.843-2.299,5.528,0.705,8.167
		c2.215,1.945,2.447,4.467,0.562,6.967c-2.186,2.896-2.026,5.571,0.586,8.201c1.725,1.735,2.588,3.879,1.207,6.236
		c-2.041,3.487-2.307,6.481,1.262,9.344c2.055,1.647,1.723,4.517,0.544,6.343c-2.282,3.538-1.69,6.21,0.996,9.074
		c1.753,1.87,1.749,4.183,0.407,6.383c-1.795,2.945-2,5.456,1.294,7.65c1.837,1.223,2.099,3.436,1.528,5.409
		c-1.157,4.007-1.606,7.625,2.271,10.619c1.212,0.937,1.189,2.941,0.598,4.338c-1.645,3.877-1.053,7.117,1.666,10.357
		c1.674,1.997,1.517,4.867,0.258,6.927c-1.723,2.818-0.883,5.467,0.584,7.337c2.102,2.686,2.633,5.43,2.545,8.559
		c2.9,0.687,2.361-1.565,2.455-3.035c0.267-4.239-0.35-8.507,0.355-12.737c1.911-3.308,1.945-6.175-0.801-9.365
		c-1.859-2.162-1.477-5.514-1.753-8.372c-1.017-10.493,1.132-20.571,4.381-30.453c0.979-2.983,2.354-5.836,2.435-9.159
		c7.621,11.444,12.518,23.667,12.342,37.557c-0.549,9.912-2.627,19.691-1.588,29.756c0.826,8.025,0.104,16.165,0.267,24.252
		c0.026,1.354,0.03,2.969,2.022,2.932c1.682-0.033,2.313-1.249,2.5-2.752c0.168-1.367,0.068-2.744,0.125-4.115
		c0.281-6.838-0.765-13.735,1.039-20.508c0.549-2.058-0.633-3.848-1.318-5.695c-2.161-5.812-3.617-11.68-1.291-17.82
		c1.05-10.479,4.89-20.313,7.492-31.224c4.714,8.649,9.575,16.767,11.03,26.328c1.399,9.188,1.404,18.274-2.985,26.882
		c-1.049,2.058,0.836,3.993,0.81,6.136c-0.072,5.964,0.095,11.934,0.271,17.897c0.101,3.41-0.818,6.961,1.928,10.005
		c1.07,1.188-0.035,2.747-0.668,4.205c-1.159,2.667-0.368,3.843,2.785,5.401c5.769,2.852,11.354-0.678,16.816,1.035
		c1.201,0.376,2.007-0.116,2.714-1.104c0.809-1.136-0.16-1.667-0.687-2.296c-1.445-1.725-3.784-3.356-1.652-5.843
		c2.305-2.688,5.591-3.563,8.688-1.901c2.641,1.418,4.608,1.862,7.222,0.018c1.774-1.255,4.123-1.015,6.149,0.046
		c2.231,1.167,2.638,0.034,2.631-1.905c-0.035-11.326-1.037-22.771,0.281-33.94c0.924-7.829-1.761-14.531-2.679-21.76
		c-1.277-10.076,1.208-19.734,4.159-29.235c1.038-3.342,2.374-6.56,2.462-10.291c4.465,5.987,7.734,12.644,9.871,19.642
		c3.354,10.99,4.173,22.13-1.442,32.856c-0.268,0.51-0.633,1.185-0.499,1.654c3.615,12.736,0.905,25.746,1.688,38.602
		c0.159,2.627-0.188,3.916,3.793,4.057c4.822,0.172,9.542,0.722,14.488,0.362c4.719-0.343,5.916,2.745,4.195,7.114
		c-1.021,2.598-0.55,5.306,1.851,7.141c3.303,2.525,3.884,5.496,1.209,8.59c-1.431,1.653-0.404,2.589,0.033,3.987
		c1.665,5.346,4.115,10.644,1.46,16.417c-0.804,1.747-1.589,3.362-3.789,3.433c-2.405,0.076-3.308-1.589-4.244-3.493
		c-2.343-4.762-0.81-9.462,0.565-13.871c0.979-3.146,1.229-5.144-1.903-6.792c-0.585-0.308-0.846-1.23-1.256-1.871
		c-1.467-1.769-0.564-3.706-0.001-6.404c-3.622,3.471,0.588,7.237-1.773,10.022c-3.275,1.99-3.202,4.476-1.817,7.808
		c1.579,3.805,1.985,7.947,1.051,12.114c-0.606,2.703-1.484,5.277-4.826,4.962c-3.164-0.299-4.022-3.146-4.327-5.647
		c-0.577-4.736-0.086-9.443,1.884-13.899c0.438-0.993-2.707-8.896-3.479-8.709c-1.865,0.453-4.271,0.198-4.053,3.556
		c0.651,10.021-0.915,19.712-4.136,29.281c-0.766,2.274-0.643,5.75,1.123,8.416c1.203,1.817,1.689,3.652,0.695,6.014
		c-1.444,3.435-1.406,7.238-0.209,10.75c2.148,6.3,4.081,12.254,0.264,18.877c-1.286,2.23-1.523,5.785-0.073,9.034
		c2.118,4.741,3.438,9.838,1.399,15.094c-0.805,2.074-1.841,4.162-4.42,3.926c-2.17-0.197-3.095-2.04-3.898-3.997
		c-1.898-4.624-0.693-9.164,0.637-13.455c0.896-2.893,1.522-5.466,1.217-8.548c-0.193-1.949-0.777-3.81-2.145-4.056
		c-1.635-0.293-3.068,2.109-3.126,3.278c-0.219,4.451-0.595,8.207-6.246,9.03c-0.387,0.057-4.166,2.854-3.854,6.547
		c0.31,3.688-4.263,5.981-7.811,4.235c-3.452-1.699-5.984-1.646-8.504,1.59c-2.202,2.833-6.626,2.464-8.594-0.711
		c-2.14-3.457-5.043-4.702-8.909-4.397c-3.146,0.248-5.482-1.616-5.378-4.355c0.214-5.542-4.105-9.503-4.429-14.828
		c-0.068-1.124-1.637-3.272-4.466-2.698c-3.567,0.725-5.848-1.405-5.973-5.108c-0.117-3.396-1.691-3.549-4.768-3.932
		c-3.861-0.479-6.363,0.963-9.439,2.55c-4.297,2.217-8.262,0.013-11.898-2.47c-1.271-0.866-2.161-2.74-4.545-1.517
		c3.918,3.003,3.943,5.925,0.919,9.748c-1.269,1.604-1.759,4.855,0.753,7.057c2.432,2.129,2.831,4.954,0.814,7.364
		c-2.869,3.427-3.07,6.352-0.121,9.832c1.453,1.713,1.287,4.26-0.129,6.007c-2.674,3.296-2.701,6.087,0.217,9.29
		c1.82,1.999,1.888,5.012-0.145,6.677c-2.457,2.015-1.221,3.288-0.332,5.255c4.08,9.033,6.852,18.28,3.694,28.299
		c-1.171,3.714-3.007,7.194-7.17,7.316c-4.289,0.126-6.218-3.543-7.343-7.127c-3.109-9.903-0.627-19.316,3.256-28.415
		c0.949-2.227,2.094-3.551-0.415-5.57c-1.95-1.57-2.019-4.232-0.228-6.191c2.957-3.237,2.977-6.06-0.095-9.283
		c-1.851-1.945-1.835-4.688-0.067-6.662c2.898-3.237,3.414-6.127,0.291-9.493c-1.77-1.906-1.836-4.274-0.035-6.226
		c3.121-3.379,2.57-6.282-0.293-9.571c-1.853-2.13-1.717-4.853,0.336-7.03c0.975-1.03,1.149-2.113,1.552-3.396
		c1.601-5.106-1.583-8.006-4.224-11.35c-6.129-7.764-6.119-7.828-13.756-1.585c-5.42,4.433-9.34,9.884-11.707,16.58
		c-0.953,2.702-0.188,3.513,2.104,4.188c3.972,1.17,7.759,2.799,11.043,5.367c4.247,3.322,7.753,7.044,5.919,13.137
		c-0.425,1.413,0.605,2.309,1.255,3.285c1.261,1.897,1.312,3.758-0.1,5.509c-2.872,3.567-3.005,6.791,0.387,10.261
		c1.562,1.599,1.47,4.224,0.035,5.925c-2.945,3.496-3.497,6.702-0.269,10.294c1.539,1.709,1.344,3.745-0.091,5.455
		c-2.771,3.303-2.669,6.239,0.12,9.645c1.861,2.27,1.91,5.297-0.765,7.28c-1.649,1.225-1.296,1.883-0.454,3.4
		c4.884,8.815,6.68,18.246,4.904,28.232c-0.791,4.456-4.553,8.631-7.658,8.771c-3.268,0.149-7.086-3.812-7.915-8.915
		c-1.585-9.754-0.192-19.165,4.394-27.959c0.795-1.522,1.309-2.127-0.326-3.524c-2.361-2.022-2.609-4.974-0.607-7.394
		c2.624-3.171,2.587-5.815-0.227-8.807c-2.049-2.176-2.074-4.87-0.013-7.046c2.949-3.113,2.722-5.917,0.149-9.105
		c-1.711-2.121-1.945-5.161,0.231-6.601c3.203-2.117,0.816-4.72,1.398-6.984c0.249-0.969-1.647-2.208-2.563-1.911
		c-3,0.971-5.855,2.388-8.755,3.659c-0.259,0.113-0.638,0.588-0.618,0.611c3.207,3.878-0.06,6.414-1.445,9.648
		c-0.521,1.214-1.371,4.638,1.688,6.625c2.318,1.507,2.034,4.804,0.233,7c-2.623,3.2-3.121,6.017-0.139,9.274
		c1.737,1.896,1.685,4.289,0.004,6.276c-2.635,3.121-2.615,5.945,0.062,9.092c1.845,2.168,2.046,5.009-0.087,6.993
		c-1.953,1.815-1.275,2.862-0.344,4.844c4.158,8.823,6.725,17.982,4.131,27.854c-0.115,0.442-0.149,0.924-0.346,1.325
		c-1.547,3.195-3.104,6.757-7.22,6.826c-3.903,0.066-5.524-3.259-7.014-6.32c-0.229-0.467-0.336-0.993-0.804-2.418
		c-0.82,3.556-1.141,6.308-2.113,8.802c-1.262,3.231-2.658,6.562-7.085,6.755c-4.351,0.188-5.525-3.176-7.17-6.036
		c-0.424-0.739-0.53-1.661-0.797-2.547c-9.543,6.025-14.453,2.78-15.38-10.108c-1.573,0.292-1.875,1.729-2.635,2.715
		c-3.168,4.108-7.558,3.99-10.591-0.271c-2.405-3.38-3.258-7.329-3.165-11.285c0.174-7.344,1.065-14.642,4.654-21.262
		c1.003-1.852,1.704-3.13-0.321-5.027c-2.106-1.977-2.039-4.835,0.005-7.033c2.628-2.826,2.442-5.414-0.061-8.061
		c-2.558-2.703-2.609-5.413,0.027-8.021c2.682-2.652,2.526-5.309,0.237-8.022c-2.081-2.468-2.311-5.163-0.202-7.468
		c2.813-3.069,2.157-5.694-0.241-8.418c-2.248-2.554-2.633-5.189-0.138-7.729c1.394-1.418,1.11-2.278-0.006-3.81
		c-4.44-6.093-3.736-10.921,1.91-16.032c3.23-2.925,7.038-4.936,11.078-6.211c2.688-0.85,3.048-2.242,2.308-4.321
		c-3.375-9.476-9.651-16.476-18.407-21.362c-1.621-0.902-2.453-0.333-3.397,0.924c-2.568,3.421-5.555,6.579-7.718,10.229
		c-1.68,2.835-0.985,6.547,0.856,8.924c2.602,3.358,2.535,5.619-0.205,8.756c-1.905,2.181-2.692,5.095-0.044,7.793
		c2.274,2.317,2.183,4.969,0.174,7.425c-2.41,2.946-2.574,5.671,0.251,8.445c2.552,2.508,2.434,5.164-0.026,7.635
		c-2.674,2.687-2.669,5.318-0.287,8.151c2.065,2.458,2.303,5.254-0.079,7.381c-1.977,1.766-1.023,2.911-0.262,4.598
		c3.826,8.476,6.107,17.236,4.158,26.615c-0.306,1.477-0.891,2.915-1.505,4.301c-1.239,2.798-3.189,5.097-6.398,5.155
		c-3.297,0.062-5.29-2.386-6.384-5.153c-4.254-10.766-1.674-20.998,3.011-30.896c0.929-1.961,1.654-3.121-0.399-4.833
		c-1.91-1.591-2.57-4.004-0.687-6.118c3.175-3.564,3.33-6.916,0.26-10.661c-1.245-1.52-0.98-3.692,0.254-5.178
		c2.919-3.51,2.864-6.658-0.238-10.032c-1.744-1.896-1.956-4.271,0.026-6.193c3.371-3.271,3.134-6.382,0.337-9.897
		c-1.449-1.82-1.042-4.06,0-6.098c0.291-0.317,0.475-0.752,0.129-1.032C246.354,426.539,245.735,426.74,245.233,427.328z"/>
	<path fill="#FDFDFD" d="M389.199,287.614c0.08,7.342,0.111,14.69,4.387,21.171c0.307,0.463,0.637,1.274,0.438,1.652
		c-4.373,8.281-0.979,17.131-1.871,25.661c-0.256,2.44-0.098,3.65-3.453,4.18c-4.256,0.669-4.4-0.664-4.346-4
		c0.179-10.843,1.233-21.842-0.225-32.481c-1.119-8.167,4.09-14.603,3.314-22.231c0.019,2.084-0.268,4.232,0.143,6.238
		C387.971,289.684,388.621,287.591,389.199,287.614z"/>
	<path fill="#F1F1F1" d="M480.214,367.51c0.358-2.298,0.624-4.629-1.418-6.325c-1.335-1.107-1.265-2.2,0.112-2.812
		c1.515-0.673,2.504-3.338,4.35-2.121c2.426,1.601-0.854,2.581-0.978,4.007c-0.104,1.211-0.194,2.422-0.292,3.634
		C480.753,364.781,481.852,366.816,480.214,367.51z"/>
	<path fill="#BEBEBE" d="M370.841,301.354c-0.034,5.249-0.051,10.498-0.124,15.748c-0.012,0.799,0.432,2.088-0.828,2.179
		c-1.226,0.089-1.679-1.045-1.857-2.153c2.273-1.047,1.949-3.108,2.08-5.07C370.348,308.489,369.211,304.823,370.841,301.354z"/>
	<path fill="#0D0D0D" d="M200.97,304.141c2.497,1.803,1.881,4.386,1.719,6.856c-0.919-2.696-3.362-4.715-3.473-7.772
		c0.586,0.307,1.173,0.612,1.759,0.92L200.97,304.141z"/>
	<path fill="#C0C0C0" d="M245.233,427.328c0.831-1.212,1.662-2.425,2.82-4.115c1.385,3.178-0.364,3.807-1.208,4.863
		C246.308,427.827,245.771,427.578,245.233,427.328z"/>
	<path fill="#FEFEFE" d="M337.646,128.185c0.043,3.098,0.932,4.879,2.556,6.767c1.481,1.723,2.705,4.49,0.184,6.918
		c-2.366,2.28-2.465,5.071-0.368,7.375c2.855,3.137,2.811,5.967,0.268,9.116c-2.047,2.535-1.314,4.973,0.818,6.916
		c2.732,2.49,2.951,4.643,0.424,7.543c-2.297,2.635-2.123,5.69,0.678,8.085c2.818,2.412,2.499,4.847,0.461,7.467
		c-1.85,2.379-1.84,4.926-0.016,7.138c2.439,2.959,3.213,5.596,0.632,9.001c-1.638,2.16-1.026,4.695,1.03,6.619
		c2.554,2.389,3.398,4.786,0.861,7.861c-2.143,2.596-1.936,5.397,0.667,7.674c2.606,2.28,3.535,4.683,1.25,7.7
		c-2.01,2.656-1.685,5.302,0.737,7.316c3.021,2.514,2.869,5.049,0.705,7.806c-2.086,2.656-1.782,5.045,0.48,7.344
		c2.358,2.394,3.479,4.704,1.387,8.139c-1.459,2.398-1.416,5.383,1.648,7.162c3.094,1.795,3.924,3.686,1.418,6.911
		c-2.057,2.647-2.055,5.648,1.286,7.838c3.146,2.063,3.694,4.772,1.483,7.865c-1.785,2.502-1.904,5.301,0.474,6.951
		c3.711,2.574,2.794,5.62,1.64,8.656c-1.768,4.654-1.351,6.021,3.18,8.168c2.51,1.188,4,3.193,3.649,6.051
		c-0.29,2.373,0.425,4.146,2.31,5.513c2.711,1.962,4.354,7.243,3.308,10.105c-0.626,1.711-1.815,0.942-2.578,0.607
		c-3.146-1.382-6.041-0.963-8.536,1.198c-1.396,1.208-2.076,0.368-3.074-0.335c-2.719-1.917-5.67-2.245-8.616-0.691
		c-2.748,1.448-4.013,3.817-1.515,6.255c3.407,3.325,1.209,6.508-0.416,8.898c-2.113,3.108-2.92,5.583-0.348,8.515
		c0.578,0.657,0.924,1.287,0.484,2.002c-0.709,1.149-1.4,0.205-2.241-0.017c-3.69-0.974-5.487-2.491-3.58-6.67
		c1.024-2.241-0.103-4.681-2.378-5.868c-2.913-1.518-4.402-3.249-3.006-6.723c0.619-1.539,0.175-3.267-1.23-4.582
		c-2.64-2.476-2.277-5.447-0.477-7.991c2.21-3.12,1.82-5.528-0.758-8.065c-1.957-1.925-2.176-4.315-0.239-6.252
		c3.164-3.163,1.679-5.859-0.571-8.388c-2.436-2.736-3.23-5.039-0.148-7.995c1.97-1.887,1.629-4.54-0.112-6.623
		c-2.24-2.682-2.298-5.335-0.447-8.156c1.66-2.53,1.402-4.688-0.722-6.968c-2.085-2.235-2.16-4.745,0.181-7.095
		c1.937-1.942,2.739-4.318,0.784-6.55c-3.062-3.497-2.973-6.693-0.134-10.239c1.347-1.682,1.347-3.941-0.097-5.544
		c-3.061-3.403-3.193-6.525-0.291-10.136c1.552-1.929,1.465-4.501-0.315-6.341c-3-3.102-2.24-5.889-0.026-8.953
		c1.588-2.2,1.639-4.762-0.19-6.77c-2.882-3.163-2.218-6.058,0.015-9.077c1.703-2.304,1.612-4.695-0.265-6.697
		c-2.806-2.992-2.144-5.711,0.149-8.481c2.032-2.455,2.217-4.995,0.161-7.439c-2.444-2.907-2.461-5.799-0.237-8.724
		c1.863-2.453,1.937-5.025-0.172-7.05c-2.908-2.792-1.738-5.38,0.01-7.784c2.033-2.793,2.154-5.274-0.11-7.832
		c-2.224-2.509-1.89-5.268-0.206-7.639c2.236-3.149,2.221-5.689-0.471-8.533c-2.114-2.233-0.995-6.761,1.688-8.188
		c1.205-0.641,2.393-1.338,3.499-2.135C335.229,130.441,336.073,129.57,337.646,128.185z"/>
	<path fill="#FEFEFE" d="M246.004,293.1c-1.707-1.618,1.112-3.92-0.832-5.501c-0.667-2.036,1.298-1.141,1.929-1.733
		c3.222-2.077,3.417-4.776,1.581-7.86c-1.578-2.65-1.656-4.568,1.74-6.049c3.348-1.46,4.121-4.926,1.934-8.037
		c-1.969-2.798-1.197-5.099,0.967-6.919c3.004-2.528,3.339-4.938,1.404-8.372c-1.311-2.327-1.129-5.063,1.573-6.885
		c2.932-1.978,3.956-4.372,2.016-7.764c-1.651-2.889-0.482-5.208,2.116-7.002c3.562-2.458,4.091-5.113,1.583-8.466
		c-2.149-2.872-2.065-5.308,0.756-7.716c2.438-2.082,2.906-4.64,0.862-7.302c-2.407-3.134-1.956-5.773,0.873-8.443
		c2.147-2.027,2.456-4.512,0.467-6.963c-2.422-2.985-1.967-5.587,0.72-8.214c1.908-1.866,2.504-4.159,0.845-6.636
		c-2.063-3.081-1.491-5.558,1.479-7.846c2.493-1.921,3.055-4.602,1.083-7.236c-2.285-3.053-2.266-5.541,0.865-8.012
		c2.208-1.742,2.84-4.776,1.202-6.574c-4.364-4.787-2.334-8.564,0.974-12.507c1.696,0.879,3.413,1.773,5.134,2.663
		c3.362,1.737,3.979,4.825,1.438,7.805c-2.511,2.947-2.507,5.671,0.25,8.469c2.178,2.21,2.416,4.742,0.219,7.024
		c-2.579,2.679-2.717,5.312-0.397,8.093c2.369,2.839,2.724,5.428-0.209,8.228c-1.641,1.568-2.086,3.689-0.772,5.86
		c2.151,3.555,2.601,6.889-0.767,10.144c-1.572,1.519-1.543,3.503-0.25,5.455c2,3.017,2.638,5.804-0.76,8.616
		c-2.527,2.092-2.177,4.982-0.097,7.331c2.292,2.587,1.803,4.986-0.314,7.086c-2.462,2.441-2.845,4.939-1.043,7.781
		c1.724,2.718,1.868,5.137-0.611,7.569c-2.128,2.086-2.259,4.571-0.621,7.083c1.829,2.804,2.435,5.076-1.046,7.48
		c-2.699,1.865-2.936,5-0.653,7.671c2.585,3.024,2.608,5.83-0.162,8.664c-1.983,2.029-2.33,4.458-0.819,6.695
		c2.417,3.58,1.842,6.38-1.155,9.279c-1.577,1.526-2.152,3.54-0.762,5.832c2.15,3.545,2.165,6.873-1.284,9.92
		c-2.122,1.875-1.911,4.508-0.299,6.589c2.448,3.16,1.449,5.705-1.036,7.964c-2.802,2.547-3.437,4.917-1.139,8.333
		c1.462,2.174,2.643,4.962-0.772,7.259c-2.712,1.824-2.907,5.126-1.024,7.299c2.348,2.71-0.126,4.743-0.168,7.033
		c-0.01,0.56-2.041,2.18-4.129,0.979c-3.259-1.874-6.729-1.843-9.736,0.849c-0.913,0.814-1.648,0.567-2.401-0.064
		c-3.231-2.72-6.712-2.341-10.916-0.315c0-6.252-0.534-12.039,0.239-17.646c0.353-2.555,2.918-5.215,5.147-6.992
		c2.531-2.016,3.934-4.187,2.643-7.005c-1.434-3.132-0.38-5.841,0.29-8.719c0.844-0.713,1.352-1.674,1.902-2.606
		c0.142-0.351,0.287-0.693,0.409-1.05C246.586,296.144,246.825,294.57,246.004,293.1z"/>
	<path fill="#FEFEFE" d="M260.777,355.233c2.346,0.894,4.36,0.997,4.443-2.303c0.034-1.344,0.796-1.824,1.762-2.368
		c3.459-1.944,4.038-4.65,2.067-8.028c-1.755-3.006-0.661-5.75,1.489-7.787c2.713-2.569,3.289-5.216,0.999-7.987
		c-2.425-2.936-1.433-5.388,0.654-7.549c2.487-2.575,2.786-4.926,1.159-8.169c-1.301-2.593-1.404-5.526,1.341-7.833
		c2.375-1.994,3.333-4.366,0.868-7.092c-2.654-2.934-0.993-5.839,0.924-7.877c2.651-2.818,3.294-5.241,0.954-8.407
		c-1.94-2.625-1.343-5.303,0.829-7.317c3.074-2.853,3.344-5.371,0.567-8.648c-2.114-2.496-1.718-5.507,0.513-7.816
		c1.898-1.963,2.438-4.565,1.248-6.261c-1.913-2.727-0.964-5.037-0.065-7.828c1.809,5.004,4.447,9.47,7.858,13.464
		c0.225,0.263,0.252,0.917,0.089,1.252c-2.434,4.994,0.218,6.298,4.583,6.418c1.44,0.04,2.29,0.75,2.314,2.26
		c0.018,1.146-0.238,2.328-1.506,2.503c-3.181,0.44-5.255,1.867-4.828,5.336c0.417,3.382,3.251,4.031,6.729,4.735
		c-2.958,3.141-6.286,5.247-8.528,8.495c-4.728,6.848-6.201,13.975-3.793,22.01c1.828,6.099,3.743,11.989,10.087,15.009
		c1.609,0.767,1.885,2.247,1.833,3.885c-0.061,1.888-1.427,1.618-2.616,1.711c-2.533,0.199-3.981,1.543-3.927,4.117
		c0.055,2.623,1.708,3.757,4.169,3.896c1.286,0.071,2.491,0.116,2.365,1.954c-0.091,1.346-0.747,1.97-2.037,1.866
		c-2.8-0.225-4.445,0.931-4.496,3.824c-0.053,2.977,1.967,3.818,4.476,4.102c0.568,0.062,1.114,0.319,2.382,0.701
		c-6.956,4.175-11.645,9.494-13.875,16.88c-1.456,4.821-1.159,9.628-0.977,14.505c0.055,1.478,1.053,3.296-1.29,4.333
		c-2.095,0.926-3.013-0.321-4.279-1.461c-2.641-2.377-5.603-4.218-9.266-4.56c-2.584-0.242-3.85-1.534-3.576-4.222
		c0.195-1.906-0.732-3.581-1.364-5.286c-0.851-2.297-1.619-4.205,0.597-6.516c1.985-2.069,0.639-4.563-1.016-6.574
		C260.283,356.105,260.328,355.648,260.777,355.233z"/>
	<path fill="#FEFEFE" d="M422.262,374.005c3.015,4.421,2.938,9.2,1.948,14.229c-0.62,3.145-0.609,6.39,0.921,9.415
		c0.779,1.541,1.62,2.917,3.612,3.016c2.265,0.113,3.354-1.386,4.017-3.133c0.644-1.698,1.351-3.564,1.255-5.315
		c-0.398-7.342,1.782-14.917-1.734-21.979c-0.714-1.434,0.166-1.927,0.991-2.562c3.179-2.454,3.177-5.292,0.998-8.356
		c-0.608-0.858-1.74-1.671-0.827-2.753c0.966-1.146,1.921,0.045,2.745,0.514c2.843,1.609,3.556,6.344,1.08,9.228
		c-2.549,2.971-2.767,5.687-0.037,8.45c1.244,1.261,0.785,2.174,0.254,3.605c-1.661,4.466-2.638,9.143-1.721,13.915
		c0.484,2.518,1.222,5.484,4.474,5.559c3.549,0.079,4.341-3.017,4.796-5.716c0.754-4.46-0.007-8.878-1.671-13.03
		c-0.789-1.968-0.966-3.043,0.956-4.569c2.946-2.342,2.783-5.406-0.026-7.836c-1.448-1.251-1.894-2.251-0.846-3.781
		c1.229-1.801,2.348-0.232,3.491,0.188c1.29,0.476,2.588,1.403,3.861,1.37c6.288-0.158,6.455,3.773,6.195,8.447
		c-0.614,10.989-2.404,21.587-9.7,30.383c-10.032,12.097-28.923,15.626-44.392,8.418c-1.378-0.643-2.769-1.271-4.106-1.987
		c-9.173-4.921-10.256-7.811-6.438-17.234c0.276-0.684,0.721-1.586,1.307-1.811c5.144-1.964,5.116-6.233,4.994-10.64
		c-0.04-1.487-0.923-3.517,2.011-3.53c2.754-0.013,1.739,1.987,1.867,3.25c0.655,6.429,2.406,8.184,7.952,7.627
		c0,3.212-0.236,6.438,0.069,9.608c0.282,2.93,1.259,6.187,4.841,6.154c3.355-0.027,4.125-3.081,4.45-5.949
		c0.417-3.675,0.575-7.467-1.066-10.781c-1.834-3.704-1.156-6.386,1.933-8.773C421.747,376.647,419.987,374.468,422.262,374.005z"/>
	<path fill="#FEFEFE" d="M172.309,385.948c0.066,2.899-0.186,5.854,0.29,8.687c0.436,2.6,1.098,5.739,4.601,5.888
		c3.338,0.141,3.891-2.602,4.63-5.206c1.392-4.905-0.935-9.697-0.167-14.557c0.208-1.315-0.424-2.789,0.724-3.922
		c2.555-2.521,2.456-5.115,0.123-7.666c-1.382-1.512-0.273-2.646,0.84-2.349c1.641,0.438,3.219,1.665,4.457,2.919
		c1.419,1.437-0.707,1.953-1.256,2.77c-1.732,2.575-1.717,5.257,0.595,6.963c2.269,1.675,1.498,3.111,0.93,4.977
		c-1.508,4.949-3.364,9.866-1.122,15.139c0.83,1.951,1.777,3.635,4.12,3.681c2.208,0.042,2.985-1.667,3.844-3.364
		c2.181-4.31,1.052-8.635-0.199-13.521c2.369,0.356,4.184,2.364,6.17,0.491c2.075-1.957,2.423-4.519,2.847-7.042
		c0.262-1.562-0.514-3.579,2.32-3.288c2.766,0.286,1.293,2.116,1.323,3.424c0.095,4.146,0.337,7.737,4.703,10.529
		c3.646,2.331,3.042,7.652,4.13,11.663c0.78,2.873-2.569,3.423-4.25,4.587c-13.048,9.044-27.104,11.639-41.926,5.031
		c-13.688-6.102-18.292-18.393-20.234-32.062c-0.513-3.612-0.325-7.328-0.402-10.997c-0.029-1.404,0.1-2.877,1.808-3.305
		c3.388-0.85,6.818-1.524,9.93-3.248c0.713-0.395,1.632-0.128,1.88,0.719c0.317,1.086,0.808,2.098-0.45,3.268
		c-3.273,3.044-3.421,6.263,0.306,9.176c1.8,1.408,0.311,2.801-0.065,4.049c-1.231,4.089-2.824,8.129-1.679,12.479
		c0.639,2.426,0.922,5.325,4.142,5.958c3.612,0.709,3.887-2.631,5.309-4.563C172.462,391.124,169.373,387.824,172.309,385.948z"/>
	<path fill="#FEFEFE" d="M435.038,439.632c-4.298-1.229-6.622-0.094-8.188,2.888c-1.399,2.664-3.47,3.182-5.911,1.469
		c-2.109-1.479-4.207-1.673-6.353-0.305c-3.129,1.999-4.636,0.142-5.033-2.497c-0.535-3.548-2.294-4.967-5.739-5.19
		c-2.687-0.175-4.703-1.934-5.205-4.518c-0.688-3.544-2.547-5.177-6.062-5.636c-4.021-0.523-8.41-8.117-7.058-11.545
		c0.987-2.501,1.854-2.796,4.181-1.088c10.656,7.819,22.691,10.918,35.823,9.525c8.507-0.901,16.166-3.972,22.988-9.224
		c1.173-0.902,2.241-4.269,4.389-1.528c1.97,2.514,0.227,5.132-1.913,6.264c-3.839,2.032-5.654,4.109-3.698,8.651
		c0.753,1.748-0.581,3.9-3.17,3.838c-3.116-0.076-4.464,1.849-4.883,4.438C438.701,438.291,436.361,438.75,435.038,439.632z"/>
	<path fill="#FEFEFE" d="M221.456,416.016c-0.049,3.509-4.998,9.212-8.319,9.876c-2.761,0.554-4.879,1.708-5.115,4.902
		c-0.256,3.467-2.898,4.817-5.649,5.134c-3.492,0.399-5.134,2.086-5.855,5.296c-0.661,2.939-2.151,4.268-5.174,2.316
		c-2-1.29-4.064-1.002-5.967,0.375c-2.522,1.824-4.632,1.115-6.015-1.345c-1.652-2.938-3.675-4.014-7.115-3.219
		c-2.638,0.609-4.704-0.904-5.146-3.71c-0.467-2.964-1.798-4.564-4.949-4.912c-2.943-0.326-4.147-1.982-2.888-5.104
		c1.213-3.003,0.262-5.826-2.827-6.664c-2.769-0.75-2.437-3.191-3.708-4.689c-1.13-1.332,0.521-2.165,1.227-3.017
		c0.987-1.188,1.593,0.12,2.122,0.623c15.381,14.648,42.476,14.571,60.217,1.69c0.966-0.701,2.034-2.593,3.403-1.351
		C220.717,413.147,220.979,414.911,221.456,416.016z"/>
	<path fill="#FDFDFD" d="M311.695,349.253c1.037-0.197,1.908-0.414,2.796-0.521c2.608-0.321,4.571-1.71,4.411-4.341
		c-0.139-2.271-1.797-3.785-4.463-3.508c-1.494,0.156-2.776-0.094-2.812-2.054c-0.041-2.321,1.724-1.679,2.938-1.759
		c2.545-0.166,4.207-1.617,4.273-3.943c0.067-2.333-1.513-3.877-4.061-4.104c-1.238-0.11-2.969,0.594-3.188-1.572
		c-0.174-1.706-0.254-3.552,1.228-4.684c5.215-3.98,8.507-9.058,9.416-15.606c0.111-0.814,0.537-1.651,1.339-1.621
		c0.995,0.039,1.716,0.934,1.491,1.907c-0.453,1.978,1.465,4.128-1.158,6.107c-1.586,1.196-1.391,4.037,0.396,5.728
		c3.074,2.901,3.159,5.64,0.449,8.897c-1.636,1.969-1.359,4.401,0.428,6.276c2.668,2.801,3.357,5.266,0.32,8.469
		c-2.555,2.692-1.514,6.525,2.098,8.36c2.618,1.33,3.436,2.78,2.401,5.652c-0.985,2.741-0.006,5.046,2.694,6.547
		c2.617,1.456,3.697,3.57,2.966,6.71c-0.75,3.212,1.228,5.116,3.92,6.391c0.711,0.335,2.019-0.229,1.923,1.261
		c-0.059,0.923-0.807,1.291-1.574,1.385c-4.014,0.485-7.072,2.712-9.798,5.441c-1.245,1.247-2.364,1.011-3.712,0.391
		c-1.245-0.571-1.124-1.323-0.949-2.562c1.848-13.104-1.437-24.191-12.91-31.949C312.223,350.321,312.064,349.824,311.695,349.253z"
		/>
	<path fill="#FDFDFD" d="M311.641,544.24c-0.806-4.919-2.144-9.584-4.729-13.698c-1.116-1.776-0.675-2.425,0.573-3.739
		c2.32-2.447,2.162-5.271-0.026-7.805c-2.422-2.8-2.438-5.409,0.001-8.22c1.826-2.107,1.798-4.622,0.134-6.696
		c-2.556-3.187-2.583-5.968,0.128-9.066c1.924-2.194,2.016-5.071,0.038-7.071c-3.144-3.183-2.571-5.915-0.271-9.133
		c1.945-2.725,1.588-5.417-0.996-7.713c-0.654-0.582-2.303-0.643-1.23-2.258c0.643-0.969,0.799-2.27,2.463-2.229
		c1.827,0.045,3.66-0.188,5.491-0.269c0.431-0.019,1.22,0.025,1.246,0.157c0.572,2.919,1.677,5.383,3.763,7.717
		c0.532,0.598,1.758,5.017-1.639,7.133c-2.089,1.304-1.729,4.214-0.036,6.166c2.802,3.233,2.853,6.144-0.177,9.272
		c-1.973,2.038-1.973,4.739-0.16,6.661c3.061,3.243,3.102,6.126,0.295,9.423c-1.555,1.826-1.938,4.398-0.078,5.804
		c3.154,2.382,1.496,4.307,0.293,6.607c-2.367,4.521-3.049,9.528-3.896,14.475C312.57,541.237,312.837,542.838,311.641,544.24z"/>
	<path fill="#FDFDFD" d="M312.29,192.711c-0.119-4.402-0.442-7.243,3.792-9.136c4.363-1.951,3.4-8.148-1.408-9.938
		c-3.475-1.294-4.299-1.935-0.625-4.184c3.792-2.323,3.592-4.758-0.634-6.84c-2.603-1.282-1.856-3.293-1.778-5.087
		c0.068-1.546-0.957-3.606,1.918-4.379c2.618-0.703,4.287-2.699,4.309-5.78c0.021-2.936-1.051-4.971-3.842-6.066
		c-0.978-0.384-2.346-0.865-2.102-2.082c0.277-1.385,1.799-1.384,3.01-1.529c1.367-0.164,2.732-0.505,4.094-0.482
		c1.367,0.023,3.017-2.188,3.949-0.117c0.684,1.519,1.312,3.423-0.971,5.127c-2.568,1.917-2.275,4.867-0.259,7.289
		c2.534,3.042,3.09,5.825-0.026,8.883c-1.915,1.878-1.691,4.17-0.119,6.234c2.368,3.105,3.269,5.947-0.1,9.153
		c-1.846,1.757-1.705,4.456,0.088,6.229c3.432,3.396,3.836,6.393,0.102,9.833c-1.441,1.33-1.648,3.373-0.304,5.042
		c2.972,3.688,3.505,7.092-0.094,10.855c-1.54,1.612-1.53,4.216,0.278,5.819c1.791,1.589,2.291,3.199,2.019,5.463
		c-0.101,0.84,1.384,1.917-0.334,2.535c-1.153,0.416-1.68-0.592-2.05-1.368C317.154,209.693,311.9,201.597,312.29,192.711z"/>
	<path fill="#FDFDFD" d="M286.167,464.647c-3.195,3.656-4.358,6.898-0.522,10.877c1.419,1.471,2.439,4.679-0.386,7.103
		c-2.4,2.061-2.455,4.837-0.383,7.284c2.638,3.116,2.691,5.844-0.245,8.888c-2.033,2.107-1.923,4.969-0.07,7.065
		c2.714,3.07,3.161,5.654,0.204,8.841c-2.013,2.169-1.868,4.92,0.315,6.942c1.774,1.645,1.674,2.754,0.301,4.564
		c-2.081,2.747-1.885,6.609-4.174,9.534c-0.744-6.6-1.946-12.868-5.49-18.354c-1.169-1.811-0.442-2.605,0.778-3.744
		c2.057-1.919,2.571-4.416,0.705-6.527c-3.159-3.573-3.113-6.857-0.234-10.468c1.271-1.595,1.272-3.674-0.005-5.102
		c-3.324-3.711-2.846-6.973,0.29-10.495c1.583-1.778,1.279-3.907-0.174-5.854c-3.198-4.284-2.96-8.191,0.533-12.007
		c0.914-1,1.794-0.91,2.862-0.527C282.18,463.28,283.901,463.861,286.167,464.647z"/>
	<path fill="#FDFDFD" d="M292.375,466.255c2.596,0.146,4.388,0.34,6.177,0.318c1.616-0.021,1.87,1.149,2.481,2.213
		c0.878,1.527-0.467,1.719-1.154,2.353c-2.393,2.213-2.758,5.096-0.927,7.415c2.806,3.553,3.776,6.552,0.239,10.172
		c-1.717,1.76-1.289,4.178,0.221,5.881c2.887,3.261,2.971,6.068-0.144,9.28c-1.879,1.938-1.833,4.69-0.123,6.705
		c2.768,3.26,3.475,6.146,0.178,9.474c-1.551,1.565-1.807,4.041-0.23,5.408c2.991,2.598,1.759,4.787,0.288,7.357
		c-0.795,1.39-1.194,3.007-2.042,5.227c-2.435-4.827-2.878-9.803-5.88-13.652c-0.831-1.066,0.743-1.769,1.352-2.531
		c1.983-2.491,2.155-5.075,0.077-7.475c-2.537-2.93-2.386-5.729-0.165-8.654c1.537-2.025,1.938-4.228,0.369-6.309
		c-2.493-3.307-3.039-6.287,0.042-9.674c1.78-1.956,1.877-4.71-0.063-6.692c-3.078-3.148-2.843-6.081-0.302-9.296
		C294.562,471.504,294.136,469.035,292.375,466.255z"/>
	<path fill="#FDFDFD" d="M246.03,400.367c1.208,0,1.361,0.007,1.513-0.001c2.635-0.128,6.054-0.004,7.164,1.858
		c1.238,2.078-1.9,4.021-3.266,5.901c-3.303,4.551-6.598,9.152-10.955,12.786c-3.624,3.021-5.645,2.798-8.161-1.131
		c-1.785-2.788-3.093-5.887-4.557-8.872c-1.538-3.138,1.025-4.789,2.923-5.717C235.834,402.677,241.102,400.194,246.03,400.367z"/>
	<path fill="#FDFDFD" d="M359.273,400.337c5.938,0.048,11.272,2.264,16.393,4.904c2.753,1.421,4.152,3.546,2.252,7.087
		c-1.572,2.932-2.896,6.002-4.878,8.7c-1.478,2.01-3.327,2.537-5.517,1.062c-6.996-4.719-10.94-12.134-16.181-18.399
		c-0.977-1.171,0.177-1.684,1.269-2.201C354.759,400.471,356.998,400.385,359.273,400.337z"/>
	<path fill="#FCFCFC" d="M295.395,419.021c0,3.367,0.013,5.358-0.005,7.35c-0.012,1.349,0.281,2.949-1.767,3.081
		c-1.986,0.128-1.94-1.573-2.327-2.819c-3.256-10.5-9.839-18.448-18.735-24.685c-1.03-0.723-3.782-1.105-2.397-2.858
		c1.503-1.905,3.657-5.087,6.62-3.354c4.839,2.832,9.753,5.644,13.909,9.583C295.149,409.544,296.101,414.664,295.395,419.021z"/>
	<path fill="#FCFCFC" d="M311.545,417.927c-1.928-8.086,3.454-13.329,10.586-17.607c1.823-1.095,3.625-2.229,5.405-3.394
		c2.965-1.939,6.604-1.221,8.39,1.755c1.35,2.248-0.986,2.471-1.99,3.168c-8.09,5.628-14.285,12.719-18.049,21.945
		c-0.76,1.862-0.129,5.747-3.098,5.158c-2.527-0.501-0.77-3.983-1.201-6.096C311.348,421.683,311.545,420.419,311.545,417.927z"/>
	<path fill="#FCFCFC" d="M319.385,287.679c-1.271-1.502-2.348-3.249-3.855-4.455c-3.178-2.541-5.648-4.492-0.354-7.705
		c2.771-1.68,2.048-5.214-1.235-7.007c-1.608-0.878-2.416-1.723-2.301-3.418c0.127-1.847,1.539-1.992,2.98-2.121
		c2.544-0.228,3.915-2.205,2.977-4.091c-1.642-3.299,0.381-5.061,1.863-7.233c0.688-1.004,1.23-2.123,2.023-3.032
		c0.852-0.979,0.104-2.945,2.006-3.188c0.197-0.025,0.441,0.309,0.662,0.476c-1.93,1.582,1.839,3.494-0.465,5.313
		c-3.527,2.788-3.674,5.662-0.306,9.211c1.57,1.654,2.447,4.762-0.358,7.138c-2.105,1.782-2.685,4.435-0.887,6.561
		c2.834,3.353,2.959,6.29,0.016,9.505c-0.469,0.512-0.508,1.419-0.745,2.145C320.51,286.176,321.227,288.286,319.385,287.679z"/>
	<path fill="#FBFBFB" d="M292.87,190.749c0.091,9.66-4.227,17.864-8.652,26.023c-0.323,0.595-0.747,1.426-1.733,1.102
		c-1.093-0.36-0.596-1.219-0.5-1.894c0.261-1.836-0.376-3.688,1.696-5.298c2.061-1.602,2.227-4.484,0.626-6.655
		c-2.232-3.028-1.294-5.449,0.812-7.809c2.444-2.739,2.651-5.458-0.118-7.962c-2.649-2.395-0.795-4.456,0.259-6.552
		c0.265-0.526,1.036-0.991,1.925-0.579C290.052,182.454,292.868,187.175,292.87,190.749z"/>
	<path fill="#FAFAFA" d="M289.175,149.776c0.841,0.861,1.571,1.881,2.541,2.556c5.306,3.694,5.234,7.373-0.258,10.526
		c-1.313,0.753-1.809,2.015-1.714,3.462c0.109,1.649,0.896,2.784,2.563,3.375c1.17,0.415,3.222,0.216,2.958,2.148
		c-0.248,1.811-2.416,0.781-3.372,1.51c-2.95,2.245-5.412,0.804-6.534-1.589c-0.912-1.942-0.971-4.657,1.174-6.766
		c2.095-2.06,2.213-4.957,0.361-7.064c-3.25-3.698-2.513-6.796,0.492-9.98C289.152,147.413,288.364,149.38,289.175,149.776z"/>
	<path fill="#F5F5F5" d="M300.282,25.143c0-2.123-0.015-4.246,0.004-6.369c0.02-2.278,1.069-3.972,3.414-3.951
		c1.967,0.018,3.518,1.466,3.608,3.457c0.196,4.236,0.32,8.513-0.051,12.726c-0.302,3.421-3.736,1.581-5.604,2.34
		c-2.069,0.841-1.275-1.674-1.38-2.748c-0.176-1.803-0.047-3.635-0.047-5.455C300.245,25.143,300.263,25.143,300.282,25.143z"/>
	<path fill="#F9F9F9" d="M166.192,442.746c2.117,0.215,2.344,2.012,2.983,3.503c1.146,2.674,3.333,4.366,6.055,3.336
		c4.871-1.847,8.01,0.398,11.03,3.59c1.609,1.269,4.23-1.231,5.455,1.465c-1.719,0.327-3.104,2.149-5.292,0.423
		c-1.107-0.872-3.147-0.444-4.7,0.595c-2.999,2.006-5.545,1.226-7.675-1.551c-0.938-1.225-2.092-1.973-3.8-2.109
		c-4.888-0.395-5.721-1.628-5.049-6.717c0.056-0.429-0.151-0.892-0.236-1.337C164.78,442.935,165.244,442.592,166.192,442.746z"/>
	<path fill="#FAFAFA" d="M420.557,452.947c2.646-3.494,5.76-5.03,10.281-3.399c2.7,0.974,5.215-0.229,6.09-3.149
		c0.578-1.933,1.707-4.311,3.257-3.312c1.566,1.01,1.605,4.063,1.073,6.318c-0.188,0.797-1.147,2.107-1.583,2.043
		c-5.128-0.771-7.643,4.286-11.973,5.235c-0.981,0.216-1.812,0.362-2.499-0.346c-1.854-1.913-4.063-1.739-6.359-1.246
		c-0.312-0.296-0.434-0.655-0.361-1.08C418.968,453.257,420.062,453.689,420.557,452.947z"/>
	<path fill="#F4F4F4" d="M307.516,78.871c0,3.894-0.084,7.989,0.021,12.08c0.119,4.65-4.479,1.647-6.163,3.713
		c-0.343,0.42-0.79-2.14-0.9-3.377c-0.122-1.358,0.043-2.741-0.047-4.104C300.113,82.482,299.76,77.797,307.516,78.871z"/>
	<path fill="#F7F7F7" d="M299.295,57.468c2.699,1.281,6.156,1.884,6.537,3.309c0.916,3.431,0.875,7.325,0.292,10.88
		c-0.444,2.71-3.847,1.298-5.803,2.171c-1.427,0.636-0.959-1.76-0.982-2.787C299.237,66.69,299.295,62.336,299.295,57.468z"/>
	<path fill="#FDFDFD" d="M308.438,37.381c0,6.557,0,11.723,0,16.932c-7.019-3.036-6.608-3.051-6.916-10.989
		C301.301,37.655,306.161,40.546,308.438,37.381z"/>
	<path fill="#F0F0F0" d="M252.168,353.886c2.353-0.21,2.58,1.188,1.88,1.924c-3.938,4.14-3.113,7.494,1.289,10.542
		c0.569,0.396,0.373,1.059,0.074,1.648c-1.462,2.895-2.181,5.977-2.271,9.216c-0.027,0.959-0.284,1.883-1.415,2.004
		c-1.043,0.111-1.054-0.812-1.288-1.523c-0.709-2.168-2.472-4.11,0.465-6.359c1.72-1.315,1.591-4.201,0.258-5.899
		c-1.44-1.837-1.496-3.952-2.279-5.722C246.724,354.847,251.768,355.89,252.168,353.886z"/>
	<path fill="#F1F1F1" d="M354.2,379.771c-1.069-4.055-1.726-7.334-2.836-10.451c-0.655-1.837-0.735-2.929,0.987-4.213
		c2.891-2.154,3.354-4.923,1.021-7.871c-0.759-0.959-1.935-1.962-0.871-3.128c1.198-1.313,2.033,0.311,2.905,0.877
		c2.41,1.563,3.115,6.511,0.961,8.885c-2.776,3.056-2.688,5.537-0.074,8.766C358.35,375.178,356.016,377.299,354.2,379.771z"/>
	<path fill="#F9F9F9" d="M254.482,393.243c1.814-2.188,2.612-5.14,5.609-6.074c0.853-0.267,1.783-0.995,2.511-0.82
		c2.182,0.523,5.203,0.434,6.024,2.646c0.632,1.704-2.386,2.284-3.407,3.686C262.05,397.031,258.437,395.274,254.482,393.243z"/>
	<path fill="#F7F7F7" d="M337.045,389.084c5.543-3.724,8.872-2.73,14.646,4.139C342.855,397.026,346.072,396.649,337.045,389.084z"
		/>
	<path fill="#F0F0F0" d="M172.309,385.948c-1.806,2.143,0.609,5.283-1.726,7.303c0.596-5.163,0.163-10.201-1.958-14.999
		c-0.594-1.345-0.876-2.36,0.519-3.531c2.298-1.929,2.052-4.501,1.188-7.076c0.683-0.721,1.404-0.62,2.145-0.098
		c2.13,0.49,1.807,1.642,1.268,3.36C172.217,375.79,171.351,380.799,172.309,385.948z"/>
	<path fill="#F7F7F7" d="M302.034,108.878c0-1.665,0.264-3.082-0.046-4.361c-1.268-5.238,3.558-3.94,5.748-5.354
		c0.846-0.545,0.981,0.675,1.119,1.404C309.839,105.761,309.021,106.848,302.034,108.878z"/>
	<path fill="#F4F4F4" d="M287.479,144.225c-0.128-2.455-4.899-3.722-2.278-6.523c2.052-2.194,5.083,0.421,7.719,0.124
		c0.9-0.101,1.977,0.342,2.172,1.304c0.215,1.059-0.776,1.619-1.66,1.859c-1.891,0.515-2.982,1.986-4.238,3.278
		C288.609,144.802,288.037,144.805,287.479,144.225z"/>
	<path fill="#F1F1F1" d="M239.778,370.259c-4.528-4.274-3.81-8.419,1.71-10.252c1.082-0.359,2.123-1.021,2.511,0.541
		c0.234,0.943,1.797,2.073-0.074,3.056c-1.26,0.661-2.016,1.823-2.676,3.042C240.184,367.616,242.156,369.822,239.778,370.259z"/>
	<path fill="#F4F4F4" d="M365.331,369.346c-0.06-2.047-0.505-4.057-2.298-5.187c-1.752-1.105-1.693-2.502-0.889-3.837
		c1.084-1.8,2.437-0.253,3.562,0.172c4.273,1.612,4.842,5.161,1.492,8.856C366.575,369.89,365.951,369.945,365.331,369.346z"/>
	<path fill="#EDEDED" d="M365.331,369.346c0.622,0.001,1.246,0.003,1.869,0.006c-2.204,2.638-2.767,5.381-0.284,8.127
		c1.092,1.205,1.762,2.229-0.053,3.239c-1.657,0.924-2.963,0.287-3.818-1.229C360.766,375.446,362.27,372.209,365.331,369.346z"/>
	<path fill="#ECECEC" d="M239.778,370.259c0.49-1.204,0.98-2.409,1.471-3.612c0.211,1.763-0.445,3.941,1.336,5.071
		c4.255,2.698,1.012,5.447,0.153,8.079c-0.531,1.631-2.085,1.711-3.409,0.845c-1.4-0.916-0.914-2.041,0.029-3.043
		C241.555,375.266,241.767,372.827,239.778,370.259z"/>
	<path fill="#E8E8E8" d="M172.477,367.547c-0.715,0.032-1.43,0.065-2.145,0.098c-3.91-3.58-3.919-8.562-0.004-10.843
		c0.707-0.411,1.326-1.287,2.345-0.408c1.266,1.091,0.373,1.875-0.311,2.629C169.735,361.917,170.073,364.737,172.477,367.547z"/>
	<path fill="#EAEAEA" d="M237.74,293.139c-0.916,2.535-0.981,4.951,0.194,7.532c0.947,2.081,0.55,4.272-1.536,6.749
		c-0.828-3.896-1.116-7.245-2.884-10.253c-0.856-1.457,1.301-2.82,2.381-4.05C236.515,292.786,237.156,290.74,237.74,293.139z"/>
	<path fill="#E8E8E8" d="M422.262,374.005c-1.217,0.914-0.036,2.847-1.547,3.634c0.389-2.227,0.09-4.448-1.716-5.809
		c-1.54-1.162-1.175-2.086-0.012-2.624c1.62-0.751,2.67-3.728,4.83-2.132c2.312,1.708-1.159,2.353-1.233,3.771
		C422.529,371.901,422.372,372.952,422.262,374.005z"/>
	<path fill="#C4C4C4" d="M319.385,287.679c0.674-0.633,1.348-1.268,2.021-1.901c-0.17,2.085,0.207,4.01,2.15,5.14
		c1.668,0.969,1.283,2.668,1.652,4.065c0.303,1.148-0.926,1.431-1.666,1.795c-1.281,0.629-1.637-0.473-1.773-1.331
		C321.338,292.737,320.529,290.16,319.385,287.679z"/>
	<path fill="#C6C6C6" d="M237.74,293.139c-0.602-1.043-1.229-0.149-1.845-0.023c0.353-1.172,0.705-2.343,1.058-3.514
		c1.267-1.708-1.451-5.248,2.609-5.669C241.612,287.483,240.923,290.965,237.74,293.139z"/>
	<path fill="#E5E5E5" d="M218.558,381.092c0.548-3.408-2.116-6.173,1.603-7.95c0.98-0.468,2.246-1.019,2.564,0.451
		c0.203,0.94,1.873,2.184,0.14,3.072C221.28,377.478,220.744,379.131,218.558,381.092z"/>
	<path fill="#DCDCDC" d="M386.464,379.717c-0.411-2.359-5.263-2.561-2.918-6.087c1.188-1.789,2.427-0.689,3.453,0.104
		C389.561,375.71,387.896,377.655,386.464,379.717z"/>
	<path fill="#E1E1E1" d="M230.114,394.387c-1.304-1.861-0.657-4.359-2.106-6.229c-0.685-0.883-0.509-1.827,0.689-2.589
		c1.654-1.052,2.04,0.189,2.68,1.146C231.41,389.347,233.227,392.271,230.114,394.387z"/>
	<path fill="#F2F2F2" d="M374.781,393.248c-0.043-1.983-0.204-3.974-0.09-5.947c0.078-1.346,1.216-2.317,2.414-2.021
		c1.142,0.285,1.93,1.319,1.158,2.877c-0.803,1.62-1.307,3.387-1.939,5.09C375.811,393.81,375.296,393.809,374.781,393.248z"/>
	<path fill="#0F0F0F" d="M229.672,309.607c0-6.967,0-13.934,0-20.899c0.141-0.001,0.281-0.003,0.421-0.004
		c0,6.966,0,13.933,0,20.897C229.953,309.604,229.812,309.605,229.672,309.607z"/>
	<path fill="#0B0B0B" d="M307.059,311.283c-0.175-5.801-1.238-11.588,1.151-17.171C307.027,299.824,307.82,305.624,307.059,311.283z
		"/>
	<path fill="#141414" d="M247.086,298.75c-0.457,1.455-1.396,2.372-2.932,2.621c-0.112-2.919-0.208-5.837,1.85-8.271
		c1.362,1.711,2.686,3.43,1.043,5.693l-0.286-0.292L247.086,298.75z"/>
	<path fill="#1C1C1C" d="M247.101,285.866c-0.643,0.578-1.286,1.155-1.929,1.733c-2.167-3.192-0.467-6.67-1.063-10.45
		C246.833,279.865,243.125,284.105,247.101,285.866z"/>
	<path fill="#0D0D0D" d="M200.976,304.145c0-2.799,0-5.599,0-8.397c0.493,0.029,0.986,0.058,1.479,0.087
		c-1.519,2.703,2.16,5.739-1.484,8.307L200.976,304.145z"/>
	<path fill="#CECECE" d="M221.847,390.283c-0.346-1.512-2.119-2.779-0.962-4.384c0.219-0.306,1.652-0.226,2.033,0.162
		C224.553,387.725,222.836,388.908,221.847,390.283z"/>
	<path fill="#3B3B3B" d="M239.562,283.933c-3.068,0.878-1.406,3.932-2.609,5.669c-0.029-1.957-0.126-3.916-0.056-5.868
		c0.03-0.842,0.148-2.029,1.393-1.886C239.346,281.968,239.584,282.958,239.562,283.933z"/>
	<path fill="#D3D3D3" d="M261.287,350.781c-0.322,1.117-1.048,1.842-1.965,1.545c-1.184-0.383-1.96-1.494-1.692-2.769
		c0.109-0.517,1.183-1.276,1.669-1.18C260.51,348.62,261.286,349.546,261.287,350.781z"/>
	<path fill="#DFDFDF" d="M385.789,385.914c-0.23,1.311,0.111,2.741-1.26,4.502c-1.15-1.566-2.916-2.487-0.783-4.602
		C384.448,385.421,385.132,385.391,385.789,385.914z"/>
	<path fill="#ABABAB" d="M230.114,394.387c1.979-2.301,0.778-5.125,1.263-7.673c1.623,2.669,0.042,5.58,0.611,8.343
		c0.128,0.618-0.468,1.219-1.134,0.81C230.455,395.62,230.351,394.896,230.114,394.387z"/>
	<path fill="#111111" d="M377.923,295.017c-0.625,2.688-0.581,5.467-0.963,8.199C376.648,300.417,375.785,297.579,377.923,295.017z"
		/>
	<path fill="#B7B7B7" d="M301.598,36.412c1.676-0.967,2.655-2.678,4.353-1.162c0.229,0.206,0.312,0.996,0.13,1.175
		C304.879,37.599,303.553,37.873,301.598,36.412z"/>
	<path fill="#C0C0C0" d="M305.807,56.316c-0.139,1.013-0.563,1.37-1.26,1.103c-1.043-0.4-2.587-0.27-2.469-2.072
		c0.05-0.749,0.542-1.132,1.193-0.992C304.486,54.618,305.471,55.255,305.807,56.316z"/>
	<path fill="#FDFDFD" d="M418.731,454.274c0.018,0.274,0.056,0.548,0.111,0.816c-2.185,2.351-3.649-0.613-5.44-0.951
		c-0.41-0.077,0.619-1.246,1.642-0.973C416.123,454.038,417.891,452.615,418.731,454.274z"/>
	<path fill="#121212" d="M398.271,303.311c0,2.703,0,5.405,0,8.109c-0.137-0.003-0.271-0.005-0.406-0.008c0-2.703,0-5.407,0-8.11
		C397.999,303.305,398.135,303.307,398.271,303.311z"/>
	<path fill="#C3C3C3" d="M287.479,144.225c0.571,0.013,1.144,0.027,1.715,0.041c-0.006,1.837-0.012,3.673-0.019,5.51
		c-0.597-0.606-1.194-1.213-1.79-1.82C287.417,146.712,287.447,145.469,287.479,144.225z"/>
	<path fill="#AAAAAA" d="M306.448,96.329c-0.128,1.087-0.804,1.596-1.726,1.774c-0.793,0.153-1.639-0.147-1.716-0.943
		c-0.104-1.074,1.071-1.182,1.772-1.529C305.493,95.278,306.174,95.495,306.448,96.329z"/>
	<path fill="#0A0A0A" d="M303.202,302.275c0-2.129,0-4.257,0-6.386c0.149,0.001,0.299,0.001,0.448,0.002c0,2.128,0,4.257,0,6.384
		C303.501,302.275,303.352,302.275,303.202,302.275z"/>
	<path fill="#B8B8B8" d="M338.076,122.238c1.514,1.491,2.389,2.861,0.292,5.017C337.404,125.523,337.939,123.958,338.076,122.238z"
		/>
	<path fill="#CBCBCB" d="M191.715,454.64c-1.519-1.604-4.043,0.538-5.455-1.465c1.772-0.069,3.563-0.333,5.31-0.156
		C193.261,453.189,193.121,453.961,191.715,454.64z"/>
	<path fill="#F8F8F8" d="M304.568,76.438c-0.295,0.117-0.786,0.431-1.308,0.492c-0.784,0.092-1.149-0.65-0.885-1.118
		c0.192-0.343,1.054-0.392,1.621-0.408C304.307,75.396,304.996,75.392,304.568,76.438z"/>
	<path fill="#0D0D0D" d="M201.28,290.061c0.918,0.794,1.504,1.441,0.965,2.425c-0.07,0.128-0.625,0.178-0.755,0.053
		C200.877,291.957,200.955,291.214,201.28,290.061z"/>
	<path fill="#C5C5C5" d="M418.731,454.274c-1.217-0.411-2.76,0.262-3.688-1.106c1.838-0.074,3.675-0.146,5.513-0.221
		C419.948,453.39,419.34,453.832,418.731,454.274z"/>
	<path fill="#D5D5D5" d="M374.781,393.248c0.515,0,1.029-0.001,1.543-0.001c-0.075,1.044,0.605,2.756-1.126,2.626
		C374.18,395.796,374.706,394.198,374.781,393.248z"/>
	<path fill="#0F0F0F" d="M230.233,313.571c0.069,2.147,0.492,3.338-0.376,4.506C229.3,316.701,229.204,315.443,230.233,313.571z"/>
	<path fill="#D8D8D8" d="M458.173,419.541c-0.139,0.9-0.644,1.136-1.281,0.858c-0.338-0.146-0.804-0.6-0.777-0.872
		c0.073-0.758,0.802-0.681,1.353-0.697C458.005,418.812,458.21,419.164,458.173,419.541z"/>
	<path fill="#A1A1A1" d="M155.559,433.657c1.125,0.214,1.215,0.717,1.081,1.354c-0.141,0.672-0.619,1.031-1.217,0.94
		c-0.194-0.029-0.38-0.745-0.397-1.154C155.002,434.233,155.131,433.651,155.559,433.657z"/>
	<path fill="#919191" d="M166.192,442.746c-0.41,0.397-0.819,0.798-1.229,1.196c-1.028-0.735-1.207-1.964-0.36-2.544
		C165.533,440.761,165.966,441.896,166.192,442.746z"/>
	<path fill="#737373" d="M385.789,385.914c-0.682-0.033-1.362-0.066-2.043-0.1c0.846-0.7,1.689-1.401,2.537-2.104
		C386.753,384.589,386.77,385.363,385.789,385.914z"/>
	<path fill="#B7B7B7" d="M260.777,355.233c-0.045,0.454-0.09,0.91-0.136,1.366c-1.009-0.562-2.656-1.112-1.568-2.499
		C259.825,353.145,260.527,354.309,260.777,355.233z"/>
	<path d="M247.086,298.75c-1.005,0.115-2.273,0.586-1.928-1.278c0.073-0.397,0.42-1.08,0.608-1.068
		c1.624,0.098,0.886,1.559,1.281,2.389L247.086,298.75z"/>
</g>
</svg>
